<svg width="451" height="231" viewBox="0 0 451 231" fill="none" xmlns="http://www.w3.org/2000/svg">
<rect x="5" y="5" width="441" height="221" rx="25" fill="#02D898" fill-opacity="0.1"/>
<rect x="5" y="5" width="441" height="221" rx="25" stroke="#02D898" stroke-width="10"/>
<path d="M82.3232 157L103.91 79.56H114.17L135.757 157H125.786L109.04 95.9192L92.2936 157H82.3232ZM92.3904 138.318L94.7136 129.412H123.366L125.69 138.318H92.3904ZM164.662 158.355C161.177 158.355 158.209 157.968 155.757 157.194C153.369 156.419 151.272 155.129 149.465 153.322C147.658 151.45 145.948 148.998 144.334 145.965L151.981 139.673C153.143 142.254 154.24 144.255 155.273 145.674C156.305 147.094 157.531 148.094 158.951 148.675C160.435 149.191 162.339 149.45 164.662 149.45C169.18 149.45 172.632 149.159 175.02 148.578C177.408 147.998 179.053 146.997 179.957 145.578C180.925 144.158 181.409 142.254 181.409 139.866C181.409 137.479 181.021 135.672 180.247 134.446C179.473 133.219 178.053 132.316 175.988 131.735C173.987 131.09 171.083 130.541 167.276 130.09C162.307 129.444 158.209 128.509 154.982 127.282C151.82 126.056 149.465 124.346 147.916 122.152C146.432 119.893 145.689 117.022 145.689 113.537C145.689 109.213 146.464 105.761 148.013 103.179C149.561 100.598 152.078 98.7264 155.563 97.5648C159.048 96.4032 163.694 95.8224 169.502 95.8224C173.181 95.8224 176.246 96.1773 178.698 96.8872C181.215 97.5325 183.409 98.6296 185.281 100.178C187.152 101.727 188.894 103.825 190.508 106.47L183.441 113.343C182.215 111.02 181.021 109.245 179.86 108.019C178.763 106.793 177.408 105.954 175.794 105.502C174.245 104.986 172.148 104.728 169.502 104.728C165.759 104.728 162.855 104.986 160.79 105.502C158.725 106.019 157.305 106.922 156.531 108.213C155.757 109.503 155.369 111.278 155.369 113.537C155.369 115.925 156.305 117.602 158.177 118.57C160.113 119.538 163.339 120.345 167.857 120.99C173.6 121.765 178.15 122.83 181.505 124.185C184.926 125.54 187.378 127.444 188.862 129.896C190.346 132.348 191.089 135.672 191.089 139.866C191.089 144.384 190.217 147.998 188.475 150.708C186.797 153.354 184.022 155.29 180.15 156.516C176.343 157.742 171.18 158.355 164.662 158.355ZM231.416 158.355C226.899 158.355 223.253 157.581 220.478 156.032C217.703 154.419 215.67 151.902 214.38 148.482C213.153 145.061 212.54 140.576 212.54 135.026V105.212H200.537V96.3064H212.54V79.56H222.22V96.3064H242.355V105.212H222.22V135.026C222.22 140.512 222.898 144.287 224.253 146.352C225.608 148.417 227.996 149.45 231.416 149.45C233.74 149.45 235.482 149.288 236.644 148.966C237.87 148.578 238.773 147.933 239.354 147.03C239.999 146.126 240.58 144.803 241.096 143.061L250.196 146.158C249.292 149.191 248.098 151.611 246.614 153.418C245.13 155.161 243.161 156.419 240.709 157.194C238.321 157.968 235.224 158.355 231.416 158.355ZM263.807 157V97.1776H273.487V103.663C274.326 102.437 275.455 101.243 276.875 100.082C278.294 98.8555 279.972 97.8552 281.908 97.0808C283.844 96.2419 285.942 95.8224 288.2 95.8224C291.75 95.8224 294.718 96.3064 297.106 97.2744C299.494 98.1779 301.526 99.6944 303.204 101.824C304.882 103.954 306.399 106.825 307.754 110.439L299.042 114.408C298.203 111.827 297.332 109.858 296.428 108.503C295.589 107.083 294.524 106.115 293.234 105.599C292.008 105.018 290.33 104.728 288.2 104.728C285.425 104.728 283.07 105.277 281.134 106.374C279.262 107.471 277.746 108.987 276.584 110.923C275.487 112.795 274.68 114.989 274.164 117.506C273.712 119.958 273.487 122.571 273.487 125.346V157H263.807ZM341.209 158.355C335.401 158.355 330.787 157.323 327.366 155.258C324.011 153.193 321.591 149.869 320.106 145.287C318.687 140.641 317.977 134.575 317.977 127.089C317.977 119.538 318.687 113.472 320.106 108.89C321.591 104.309 324.011 100.985 327.366 98.92C330.787 96.8549 335.401 95.8224 341.209 95.8224C347.017 95.8224 351.599 96.8549 354.954 98.92C358.375 100.985 360.795 104.309 362.214 108.89C363.699 113.472 364.441 119.538 364.441 127.089C364.441 134.575 363.699 140.641 362.214 145.287C360.795 149.869 358.375 153.193 354.954 155.258C351.599 157.323 347.017 158.355 341.209 158.355ZM341.209 149.45C344.694 149.45 347.404 148.772 349.34 147.417C351.34 146.062 352.728 143.771 353.502 140.544C354.341 137.253 354.761 132.768 354.761 127.089C354.761 121.345 354.341 116.86 353.502 113.634C352.728 110.407 351.34 108.116 349.34 106.761C347.404 105.406 344.694 104.728 341.209 104.728C337.724 104.728 334.981 105.406 332.981 106.761C331.045 108.116 329.657 110.407 328.818 113.634C328.044 116.86 327.657 121.345 327.657 127.089C327.657 132.768 328.044 137.253 328.818 140.544C329.657 143.771 331.045 146.062 332.981 147.417C334.981 148.772 337.724 149.45 341.209 149.45Z" fill="#02D898"/>
</svg>
