<svg width="592" height="231" viewBox="0 0 592 231" fill="none" xmlns="http://www.w3.org/2000/svg">
<rect x="5" y="5" width="581.354" height="221" rx="25" fill="#02D898" fill-opacity="0.1"/>
<rect x="5" y="5" width="581.354" height="221" rx="25" stroke="#02D898" stroke-width="10"/>
<path opacity="0.3" d="M101.908 97.7452C128.245 62.5505 160.253 70.759 166.428 72.7602C166.764 72.867 167.071 73.0521 167.321 73.3002C167.572 73.5482 167.761 73.8522 167.871 74.1873C169.975 80.4215 178.773 113.02 142.897 138.772C141.261 139.952 140.322 141.921 140.558 143.922L141.245 149.781C141.374 150.885 141.158 152.001 140.625 152.977C140.093 153.952 139.271 154.738 138.272 155.226L128.277 160.125C127.749 160.374 127.172 160.502 126.588 160.5C126.005 160.498 125.428 160.366 124.902 160.114C124.375 159.862 123.912 159.496 123.544 159.042C123.177 158.588 122.915 158.058 122.778 157.491C120.97 150.156 116.877 136.336 110.578 130.038C104.247 123.707 90.3088 119.602 83.0016 117.805C82.444 117.669 81.9229 117.413 81.4749 117.054C81.0269 116.696 80.6628 116.243 80.4082 115.729C80.1536 115.215 80.0146 114.651 80.0011 114.077C79.9876 113.503 80.0997 112.934 80.3298 112.408L85.0135 102.193C85.4957 101.142 86.3047 100.275 87.3198 99.7206C88.335 99.1667 89.5019 98.9555 90.6468 99.1187L96.6879 99.9771C98.6944 100.267 100.696 99.3708 101.908 97.7452Z" fill="#02D898"/>
<path d="M110.583 130.038C104.247 123.707 90.3029 119.602 83.0065 117.805C82.4484 117.67 81.9267 117.414 81.4781 117.056C81.0295 116.697 80.6647 116.245 80.4096 115.731C80.1544 115.216 80.015 114.652 80.0011 114.078C79.9873 113.504 80.0993 112.934 80.3293 112.408L85.013 102.193C85.4952 101.142 86.3042 100.275 87.3193 99.7206C88.3344 99.1667 89.5014 98.9555 90.6463 99.1187L96.6873 99.9771C98.6939 100.267 100.695 99.3708 101.908 97.7452C128.245 62.5505 160.253 70.759 166.428 72.7602C166.764 72.867 167.07 73.0521 167.321 73.3002C167.572 73.5482 167.76 73.8522 167.871 74.1873C169.974 80.4215 178.773 113.02 142.897 138.772C141.26 139.952 140.321 141.921 140.557 143.922L141.244 149.781C141.374 150.885 141.157 152.001 140.625 152.977C140.093 153.952 139.27 154.738 138.272 155.226L128.277 160.125C127.749 160.374 127.172 160.502 126.588 160.5C126.004 160.498 125.428 160.366 124.901 160.114C124.375 159.862 123.911 159.496 123.544 159.042C123.176 158.588 122.915 158.058 122.778 157.491C120.97 150.156 116.876 136.336 110.577 130.038M110.577 130.038C109.581 129.041 108.398 128.25 107.096 127.71C105.794 127.171 104.398 126.893 102.989 126.893C101.579 126.893 100.183 127.171 98.8814 127.71C97.5792 128.25 96.3962 129.041 95.3997 130.038C91.215 134.228 87.8135 152.801 87.8135 152.801C87.8135 152.801 106.387 149.405 110.577 145.21C112.589 143.198 113.719 140.469 113.719 137.624C113.719 134.778 112.589 132.05 110.577 130.038ZM140.917 107.284C140.422 107.797 139.83 108.205 139.175 108.487C138.521 108.768 137.817 108.916 137.104 108.922C136.392 108.928 135.686 108.792 135.026 108.523C134.367 108.253 133.768 107.855 133.264 107.351C132.76 106.847 132.362 106.248 132.092 105.589C131.823 104.929 131.687 104.223 131.693 103.511C131.699 102.798 131.847 102.094 132.128 101.44C132.41 100.785 132.818 100.193 133.331 99.6981C134.343 98.7208 135.698 98.1801 137.104 98.1923C138.511 98.2045 139.857 98.7687 140.852 99.7635C141.846 100.758 142.41 102.104 142.423 103.511C142.435 104.917 141.894 106.272 140.917 107.284Z" stroke="#02D898" stroke-width="10.7301" stroke-linecap="round" stroke-linejoin="round"/>
<path d="M222.677 157L244.263 79.56H254.524L276.11 157H266.14L249.394 95.9192L232.647 157H222.677ZM232.744 138.318L235.067 129.412H263.72L266.043 138.318H232.744ZM305.016 158.355C301.531 158.355 298.562 157.968 296.11 157.194C293.722 156.419 291.625 155.129 289.818 153.322C288.011 151.45 286.301 148.998 284.688 145.965L292.335 139.673C293.497 142.254 294.594 144.255 295.626 145.674C296.659 147.094 297.885 148.094 299.305 148.675C300.789 149.191 302.693 149.45 305.016 149.45C309.533 149.45 312.986 149.159 315.373 148.578C317.761 147.998 319.407 146.997 320.31 145.578C321.278 144.158 321.762 142.254 321.762 139.866C321.762 137.479 321.375 135.672 320.601 134.446C319.826 133.219 318.406 132.316 316.341 131.735C314.341 131.09 311.437 130.541 307.629 130.09C302.66 129.444 298.562 128.509 295.336 127.282C292.174 126.056 289.818 124.346 288.269 122.152C286.785 119.893 286.043 117.022 286.043 113.537C286.043 109.213 286.817 105.761 288.366 103.179C289.915 100.598 292.432 98.7264 295.917 97.5648C299.401 96.4032 304.048 95.8224 309.856 95.8224C313.534 95.8224 316.599 96.1773 319.052 96.8872C321.569 97.5325 323.763 98.6296 325.634 100.178C327.506 101.727 329.248 103.825 330.861 106.47L323.795 113.343C322.569 111.02 321.375 109.245 320.213 108.019C319.116 106.793 317.761 105.954 316.148 105.502C314.599 104.986 312.502 104.728 309.856 104.728C306.113 104.728 303.209 104.986 301.144 105.502C299.079 106.019 297.659 106.922 296.885 108.213C296.11 109.503 295.723 111.278 295.723 113.537C295.723 115.925 296.659 117.602 298.53 118.57C300.466 119.538 303.693 120.345 308.21 120.99C313.954 121.765 318.503 122.83 321.859 124.185C325.279 125.54 327.731 127.444 329.216 129.896C330.7 132.348 331.442 135.672 331.442 139.866C331.442 144.384 330.571 147.998 328.829 150.708C327.151 153.354 324.376 155.29 320.504 156.516C316.696 157.742 311.534 158.355 305.016 158.355ZM371.77 158.355C367.253 158.355 363.606 157.581 360.831 156.032C358.057 154.419 356.024 151.902 354.733 148.482C353.507 145.061 352.894 140.576 352.894 135.026V105.212H340.891V96.3064H352.894V79.56H362.574V96.3064H382.708V105.212H362.574V135.026C362.574 140.512 363.251 144.287 364.607 146.352C365.962 148.417 368.35 149.45 371.77 149.45C374.093 149.45 375.836 149.288 376.997 148.966C378.223 148.578 379.127 147.933 379.708 147.03C380.353 146.126 380.934 144.803 381.45 143.061L390.549 146.158C389.646 149.191 388.452 151.611 386.967 153.418C385.483 155.161 383.515 156.419 381.063 157.194C378.675 157.968 375.577 158.355 371.77 158.355ZM404.16 157V97.1776H413.84V103.663C414.679 102.437 415.808 101.243 417.228 100.082C418.648 98.8555 420.326 97.8552 422.262 97.0808C424.198 96.2419 426.295 95.8224 428.554 95.8224C432.103 95.8224 435.072 96.3064 437.459 97.2744C439.847 98.1779 441.88 99.6944 443.558 101.824C445.236 103.954 446.752 106.825 448.107 110.439L439.395 114.408C438.556 111.827 437.685 109.858 436.782 108.503C435.943 107.083 434.878 106.115 433.587 105.599C432.361 105.018 430.683 104.728 428.554 104.728C425.779 104.728 423.423 105.277 421.487 106.374C419.616 107.471 418.099 108.987 416.938 110.923C415.841 112.795 415.034 114.989 414.518 117.506C414.066 119.958 413.84 122.571 413.84 125.346V157H404.16ZM481.562 158.355C475.754 158.355 471.14 157.323 467.72 155.258C464.364 153.193 461.944 149.869 460.46 145.287C459.04 140.641 458.33 134.575 458.33 127.089C458.33 119.538 459.04 113.472 460.46 108.89C461.944 104.309 464.364 100.985 467.72 98.92C471.14 96.8549 475.754 95.8224 481.562 95.8224C487.37 95.8224 491.952 96.8549 495.308 98.92C498.728 100.985 501.148 104.309 502.568 108.89C504.052 113.472 504.794 119.538 504.794 127.089C504.794 134.575 504.052 140.641 502.568 145.287C501.148 149.869 498.728 153.193 495.308 155.258C491.952 157.323 487.37 158.355 481.562 158.355ZM481.562 149.45C485.047 149.45 487.757 148.772 489.693 147.417C491.694 146.062 493.081 143.771 493.856 140.544C494.695 137.253 495.114 132.768 495.114 127.089C495.114 121.345 494.695 116.86 493.856 113.634C493.081 110.407 491.694 108.116 489.693 106.761C487.757 105.406 485.047 104.728 481.562 104.728C478.077 104.728 475.335 105.406 473.334 106.761C471.398 108.116 470.011 110.407 469.172 113.634C468.397 116.86 468.01 121.345 468.01 127.089C468.01 132.768 468.397 137.253 469.172 140.544C470.011 143.771 471.398 146.062 473.334 147.417C475.335 148.772 478.077 149.45 481.562 149.45Z" fill="#02D898"/>
</svg>
