<svg width="1251" height="203" viewBox="0 0 1251 203" fill="none" xmlns="http://www.w3.org/2000/svg">
<rect width="1250.14" height="202.898" rx="30" fill="#022DD8"/>
<path d="M1155.12 133.926V74.1032H1164.81V76.62C1166.55 75.3939 1168.61 74.4582 1171 73.8128C1173.39 73.103 1176.32 72.748 1179.81 72.748C1184.97 72.748 1189.04 73.4902 1192.01 74.9744C1194.97 76.4587 1197.07 78.9755 1198.3 82.5248C1199.52 86.0742 1200.14 90.9464 1200.14 97.1416V133.926H1190.46V97.1416C1190.46 93.2051 1190.13 90.1075 1189.49 87.8489C1188.84 85.5902 1187.75 84.0091 1186.2 83.1056C1184.65 82.1376 1182.52 81.6536 1179.81 81.6536C1175.68 81.6536 1172.52 82.0408 1170.32 82.8153C1168.19 83.5896 1166.74 85.0094 1165.97 87.0744C1165.19 89.1395 1164.81 92.1403 1164.81 96.0769V133.926H1155.12Z" fill="white"/>
<path d="M1119.06 135.281C1112.8 135.281 1107.83 134.087 1104.15 131.699C1100.54 129.311 1097.95 125.472 1096.41 120.18C1094.86 114.888 1094.08 107.854 1094.08 99.0776V91.3336C1094.08 82.557 1094.86 75.5229 1096.41 70.2312C1097.95 64.9394 1100.54 61.0997 1104.15 58.712C1107.83 56.3242 1112.8 55.1304 1119.06 55.1304C1125.32 55.1304 1130.25 56.3242 1133.87 58.712C1137.54 61.0997 1140.16 64.9394 1141.71 70.2312C1143.26 75.5229 1144.03 82.557 1144.03 91.3336V99.0776C1144.03 107.854 1143.26 114.888 1141.71 120.18C1140.16 125.472 1137.54 129.311 1133.87 131.699C1130.25 134.087 1125.32 135.281 1119.06 135.281ZM1119.06 126.375C1122.99 126.375 1126.06 125.569 1128.25 123.955C1130.45 122.277 1132 119.47 1132.9 115.534C1133.87 111.533 1134.35 106.047 1134.35 99.0776V91.3336C1134.35 84.364 1133.87 78.9109 1132.9 74.9744C1132 70.9733 1130.45 68.1661 1128.25 66.5528C1126.06 64.8749 1122.99 64.036 1119.06 64.036C1115.12 64.036 1112.02 64.8749 1109.76 66.5528C1107.57 68.1661 1106.02 70.9733 1105.12 74.9744C1104.21 78.9109 1103.76 84.364 1103.76 91.3336V99.0776C1103.76 106.047 1104.21 111.533 1105.12 115.534C1106.09 119.47 1107.67 122.277 1109.86 123.955C1112.12 125.569 1115.18 126.375 1119.06 126.375Z" fill="white"/>
<path d="M1002.78 152.898C999.874 152.898 997.39 152.64 995.325 152.124C993.324 151.672 991.517 150.866 989.904 149.704C988.29 148.607 986.645 147.09 984.967 145.154L992.033 139.153C993.195 140.444 994.228 141.444 995.131 142.154C996.035 142.864 997.067 143.348 998.229 143.606C999.39 143.864 1000.91 143.993 1002.78 143.993C1006.2 143.993 1008.84 143.541 1010.72 142.638C1012.59 141.799 1013.88 140.282 1014.59 138.088C1015.36 135.894 1015.75 132.861 1015.75 128.989V126.666C1014.14 127.892 1012.17 128.828 1009.84 129.473C1007.59 130.118 1005 130.441 1002.1 130.441C996.293 130.441 991.679 129.408 988.258 127.343C984.903 125.214 982.482 121.793 980.998 117.082C979.578 112.307 978.869 105.983 978.869 98.1096C978.869 92.0435 979.611 87.1712 981.095 83.4928C982.579 79.7499 984.999 77.0395 988.355 75.3616C991.775 73.6192 996.357 72.748 1002.1 72.748C1005 72.748 1007.59 73.0062 1009.84 73.5224C1012.17 73.9742 1014.14 74.7163 1015.75 75.7488V74.1032H1025.43V128.118C1025.43 134.119 1024.72 138.927 1023.3 142.541C1021.88 146.219 1019.49 148.865 1016.14 150.478C1012.85 152.092 1008.39 152.898 1002.78 152.898ZM1002.1 121.535C1006.81 121.535 1010.26 120.406 1012.46 118.147C1014.65 115.824 1015.75 112.21 1015.75 107.306V87.9456C1015.75 86.5904 1015.23 85.4611 1014.2 84.5576C1013.23 83.5896 1011.75 82.8798 1009.75 82.4281C1007.75 81.9118 1005.2 81.6536 1002.1 81.6536C998.616 81.6536 995.873 82.1699 993.873 83.2024C991.937 84.1704 990.549 85.8483 989.71 88.236C988.936 90.6238 988.549 93.915 988.549 98.1096C988.549 104.111 988.936 108.822 989.71 112.242C990.549 115.663 991.969 118.083 993.969 119.502C995.97 120.858 998.68 121.535 1002.1 121.535Z" fill="white"/>
<path d="M922.956 133.926V74.1032H932.636V76.62C934.378 75.3939 936.444 74.4582 938.831 73.8128C941.219 73.103 944.155 72.748 947.64 72.748C952.803 72.748 956.868 73.4902 959.837 74.9744C962.805 76.4587 964.903 78.9755 966.129 82.5248C967.355 86.0742 967.968 90.9464 967.968 97.1416V133.926H958.288V97.1416C958.288 93.2051 957.965 90.1075 957.32 87.8489C956.675 85.5902 955.578 84.0091 954.029 83.1056C952.48 82.1376 950.35 81.6536 947.64 81.6536C943.51 81.6536 940.348 82.0408 938.154 82.8153C936.024 83.5896 934.572 85.0094 933.798 87.0744C933.023 89.1395 932.636 92.1403 932.636 96.0769V133.926H922.956Z" fill="white"/>
<path d="M884.564 133.926V76.9104L890.663 83.0088H872.367V74.1032H894.244V133.926H884.564ZM867.624 133.926V125.02H911.184V133.926H867.624ZM887.371 64.52C884.403 64.52 882.37 64.0037 881.273 62.9712C880.176 61.9387 879.628 60.0349 879.628 57.26C879.628 54.4851 880.176 52.5813 881.273 51.5488C882.37 50.5163 884.403 50 887.371 50C890.34 50 892.373 50.5163 893.47 51.5488C894.567 52.5813 895.115 54.4851 895.115 57.26C895.115 60.0349 894.567 61.9387 893.47 62.9712C892.373 64.0037 890.34 64.52 887.371 64.52Z" fill="white"/>
<path d="M809.582 133.926V56.4856H819.262V97.432H820.617L840.074 74.1032H851.787L829.232 101.691L855.659 133.926H843.946L821.004 106.338H819.262V133.926H809.582Z" fill="white"/>
<path d="M751.443 133.926V74.1032H761.123V80.5888C761.962 79.3627 763.092 78.1688 764.511 77.0072C765.931 75.7811 767.609 74.7808 769.545 74.0064C771.481 73.1675 773.578 72.748 775.837 72.748C779.386 72.748 782.355 73.232 784.743 74.2C787.13 75.1035 789.163 76.62 790.841 78.7496C792.519 80.8792 794.035 83.751 795.391 87.3648L786.679 91.3336C785.84 88.7523 784.968 86.784 784.065 85.4288C783.226 84.0091 782.161 83.0411 780.871 82.5248C779.644 81.944 777.967 81.6536 775.837 81.6536C773.062 81.6536 770.707 82.2022 768.771 83.2993C766.899 84.3963 765.383 85.9128 764.221 87.8489C763.124 89.7203 762.317 91.9145 761.801 94.4313C761.349 96.8835 761.123 99.4971 761.123 102.272V133.926H751.443Z" fill="white"/>
<path d="M712.761 135.281C706.953 135.281 702.339 134.248 698.918 132.183C695.563 130.118 693.143 126.795 691.658 122.213C690.239 117.566 689.529 111.5 689.529 104.014C689.529 96.464 690.239 90.3979 691.658 85.816C693.143 81.2342 695.563 77.9107 698.918 75.8456C702.339 73.7806 706.953 72.748 712.761 72.748C718.569 72.748 723.151 73.7806 726.506 75.8456C729.927 77.9107 732.347 81.2342 733.766 85.816C735.251 90.3979 735.993 96.464 735.993 104.014C735.993 111.5 735.251 117.566 733.766 122.213C732.347 126.795 729.927 130.118 726.506 132.183C723.151 134.248 718.569 135.281 712.761 135.281ZM712.761 126.375C716.246 126.375 718.956 125.698 720.892 124.342C722.893 122.987 724.28 120.696 725.054 117.47C725.893 114.178 726.313 109.693 726.313 104.014C726.313 98.271 725.893 93.7859 725.054 90.5592C724.28 87.3326 722.893 85.0416 720.892 83.6864C718.956 82.3312 716.246 81.6536 712.761 81.6536C709.276 81.6536 706.533 82.3312 704.533 83.6864C702.597 85.0416 701.209 87.3326 700.37 90.5592C699.596 93.7859 699.209 98.271 699.209 104.014C699.209 109.693 699.596 114.178 700.37 117.47C701.209 120.696 702.597 122.987 704.533 124.342C706.533 125.698 709.276 126.375 712.761 126.375Z" fill="white"/>
<path d="M637.295 133.926L626.356 56.4856H636.133L643.296 109.435L650.363 79.8144H659.075L666.141 109.435L673.304 56.4856H683.081L672.143 133.926H663.14L654.719 101.11L646.781 133.926H637.295Z" fill="white"/>
<path d="M522.565 152.898C520.178 152.898 518.113 152.608 516.37 152.027C514.692 151.446 512.853 150.446 510.853 149.026L514.725 140.895C516.854 142.121 518.371 142.928 519.274 143.315C520.242 143.767 521.339 143.993 522.565 143.993C524.953 143.993 526.921 143.638 528.47 142.928C530.019 142.283 531.374 141.089 532.536 139.346C533.697 137.604 534.794 135.152 535.827 131.989L515.983 74.103H526.05L540.957 119.115L556.058 74.103H566.222L545.701 132.57C543.958 137.604 542.087 141.605 540.086 144.573C538.086 147.542 535.698 149.672 532.923 150.962C530.148 152.253 526.695 152.898 522.565 152.898Z" fill="white"/>
<path d="M490.659 135.281C486.4 135.281 483.044 134.603 480.592 133.248C478.14 131.893 476.397 129.602 475.365 126.375C474.332 123.149 473.816 118.76 473.816 113.21V65.3912H461.619V56.4856H483.496V113.21C483.496 116.502 483.722 119.115 484.174 121.051C484.625 122.987 485.367 124.375 486.4 125.214C487.432 125.988 488.852 126.375 490.659 126.375C491.885 126.375 493.144 126.02 494.434 125.31C495.725 124.601 497.467 123.31 499.662 121.438L505.082 129.666C502.307 131.796 499.887 133.248 497.822 134.022C495.757 134.861 493.37 135.281 490.659 135.281Z" fill="white"/>
<path d="M428.842 135.281C424.325 135.281 420.679 134.506 417.904 132.958C415.129 131.344 413.096 128.827 411.805 125.407C410.579 121.987 409.966 117.502 409.966 111.952V82.1376H397.963V73.232H409.966V56.4856H419.646V73.232H439.781V82.1376H419.646V111.952C419.646 117.437 420.324 121.213 421.679 123.278C423.034 125.343 425.422 126.375 428.842 126.375C431.165 126.375 432.908 126.214 434.069 125.891C435.295 125.504 436.199 124.859 436.78 123.955C437.425 123.052 438.006 121.729 438.522 119.986L447.621 123.084C446.718 126.117 445.524 128.537 444.04 130.344C442.555 132.086 440.587 133.345 438.135 134.119C435.747 134.894 432.65 135.281 428.842 135.281Z" fill="white"/>
<path d="M342.534 133.926V74.1032H352.214V76.62C353.957 75.3939 356.022 74.4582 358.409 73.8128C360.797 73.103 363.733 72.748 367.218 72.748C372.381 72.748 376.446 73.4902 379.415 74.9744C382.384 76.4587 384.481 78.9755 385.707 82.5248C386.933 86.0742 387.546 90.9464 387.546 97.1416V133.926H377.866V97.1416C377.866 93.2051 377.543 90.1075 376.898 87.8489C376.253 85.5902 375.156 84.0091 373.607 83.1056C372.058 82.1376 369.929 81.6536 367.218 81.6536C363.088 81.6536 359.926 82.0408 357.732 82.8153C355.602 83.5896 354.15 85.0094 353.376 87.0744C352.601 89.1395 352.214 92.1403 352.214 96.0769V133.926H342.534Z" fill="white"/>
<path d="M306.756 135.281C300.496 135.281 295.527 134.345 291.849 132.474C288.235 130.538 285.654 127.279 284.105 122.697C282.621 118.115 281.878 111.888 281.878 104.014C281.878 96.0768 282.621 89.8494 284.105 85.332C285.654 80.7502 288.235 77.5235 291.849 75.652C295.527 73.716 300.496 72.748 306.756 72.748C312.951 72.748 317.791 73.7806 321.276 75.8456C324.825 77.8462 327.342 81.2987 328.826 86.2032C330.311 91.1078 331.053 97.8192 331.053 106.338H284.686V97.4321H321.179C321.179 93.431 320.727 90.3011 319.824 88.0424C318.985 85.7192 317.501 84.0736 315.371 83.1056C313.306 82.1376 310.434 81.6536 306.756 81.6536C302.884 81.6536 299.851 82.3312 297.657 83.6864C295.463 84.9771 293.882 87.1712 292.914 90.2688C292.01 93.3664 291.558 97.6579 291.558 103.143C291.558 109.016 292.01 113.662 292.914 117.082C293.882 120.438 295.463 122.826 297.657 124.246C299.851 125.665 302.884 126.375 306.756 126.375C309.015 126.375 310.983 126.117 312.661 125.601C314.403 125.02 316.017 124.117 317.501 122.89C318.985 121.6 320.534 119.857 322.147 117.663L329.891 122.794C327.762 125.956 325.632 128.44 323.502 130.247C321.373 132.054 318.985 133.345 316.339 134.119C313.693 134.894 310.499 135.281 306.756 135.281Z" fill="white"/>
<path d="M229.063 133.926V74.1032H238.743V80.5888C239.582 79.3627 240.712 78.1688 242.131 77.0072C243.551 75.7811 245.229 74.7808 247.165 74.0064C249.101 73.1675 251.198 72.748 253.457 72.748C257.006 72.748 259.975 73.232 262.363 74.2C264.75 75.1035 266.783 76.62 268.461 78.7496C270.139 80.8792 271.655 83.751 273.011 87.3648L264.299 91.3336C263.46 88.7523 262.589 86.784 261.685 85.4288C260.846 84.0091 259.781 83.0411 258.491 82.5248C257.265 81.944 255.587 81.6536 253.457 81.6536C250.682 81.6536 248.327 82.2022 246.391 83.2993C244.519 84.3963 243.003 85.9128 241.841 87.8489C240.744 89.7203 239.937 91.9145 239.421 94.4313C238.969 96.8835 238.743 99.4971 238.743 102.272V133.926H229.063Z" fill="white"/>
<path d="M171.021 133.926V74.1032H180.701V80.5888C181.54 79.3627 182.669 78.1688 184.089 77.0072C185.509 75.7811 187.187 74.7808 189.123 74.0064C191.059 73.1675 193.156 72.748 195.415 72.748C198.964 72.748 201.932 73.232 204.32 74.2C206.708 75.1035 208.741 76.62 210.419 78.7496C212.096 80.8792 213.613 83.751 214.968 87.3648L206.256 91.3336C205.417 88.7523 204.546 86.784 203.643 85.4288C202.804 84.0091 201.739 83.0411 200.448 82.5248C199.222 81.944 197.544 81.6536 195.415 81.6536C192.64 81.6536 190.284 82.2022 188.348 83.2993C186.477 84.3963 184.96 85.9128 183.799 87.8489C182.702 89.7203 181.895 91.9145 181.379 94.4313C180.927 96.8835 180.701 99.4971 180.701 102.272V133.926H171.021Z" fill="white"/>
<path d="M130.693 135.281C125.66 135.281 121.659 134.538 118.69 133.054C115.722 131.505 113.592 128.989 112.301 125.504C111.011 121.954 110.365 117.244 110.365 111.371V74.103H120.045V111.371C120.045 115.372 120.336 118.47 120.916 120.664C121.562 122.793 122.659 124.278 124.208 125.117C125.756 125.956 127.918 126.375 130.693 126.375C134.694 126.375 137.76 126.02 139.889 125.31C142.083 124.6 143.6 123.342 144.439 121.535C145.278 119.728 145.697 117.211 145.697 113.985V74.103H155.377V133.925H145.697V131.893C144.536 132.667 143.245 133.312 141.825 133.829C140.406 134.345 138.76 134.7 136.888 134.893C135.082 135.152 133.016 135.281 130.693 135.281Z" fill="white"/>
<path d="M75.7488 135.281C70.9088 135.281 66.8432 134.571 63.552 133.151C60.2608 131.667 57.6149 129.344 55.6144 126.182C53.6139 123.019 52.1619 118.889 51.2584 113.791C50.4195 108.693 50 102.466 50 95.1088C50 87.8165 50.4195 81.6213 51.2584 76.5232C52.1619 71.425 53.6139 67.3272 55.6144 64.2296C57.6149 61.0674 60.2608 58.7765 63.552 57.3568C66.8432 55.8725 70.9088 55.1304 75.7488 55.1304C80.2016 55.1304 83.88 55.7434 86.784 56.9696C89.7525 58.1957 92.1725 60.2285 94.044 63.068C95.98 65.8429 97.6256 69.6181 98.9808 74.3936L89.7848 77.588C88.7523 73.9741 87.6552 71.1992 86.4936 69.2632C85.3965 67.2626 84.0091 65.9074 82.3312 65.1976C80.7179 64.4232 78.5237 64.036 75.7488 64.036C71.6832 64.036 68.4888 64.9717 66.1656 66.8432C63.8424 68.7146 62.1645 71.909 61.132 76.4264C60.164 80.9437 59.68 87.1712 59.68 95.1088C59.68 103.046 60.164 109.306 61.132 113.888C62.1645 118.405 63.8424 121.632 66.1656 123.568C68.4888 125.439 71.6832 126.375 75.7488 126.375C78.5237 126.375 80.7179 126.02 82.3312 125.31C84.0091 124.536 85.3965 123.213 86.4936 121.342C87.6552 119.406 88.7523 116.663 89.7848 113.114L98.9808 116.211C97.6256 120.922 95.98 124.697 94.044 127.537C92.1725 130.312 89.7848 132.312 86.8808 133.538C83.9768 134.7 80.2661 135.281 75.7488 135.281Z" fill="white"/>
</svg>
