<svg width="617" height="198" viewBox="0 0 617 198" fill="none" xmlns="http://www.w3.org/2000/svg">
<rect width="616.222" height="197.768" rx="30" fill="#022DD8"/>
<path d="M522.565 147.768C520.178 147.768 518.113 147.477 516.37 146.897C514.692 146.316 512.853 145.316 510.853 143.896L514.725 135.765C516.854 136.991 518.371 137.797 519.274 138.185C520.242 138.636 521.339 138.862 522.565 138.862C524.953 138.862 526.921 138.507 528.47 137.797C530.019 137.152 531.374 135.958 532.536 134.216C533.697 132.473 534.794 130.021 535.827 126.859L515.983 68.9727H526.05L540.957 113.985L556.058 68.9727H566.222L545.701 127.44C543.958 132.473 542.087 136.475 540.086 139.443C538.086 142.412 535.698 144.541 532.923 145.832C530.148 147.123 526.695 147.768 522.565 147.768Z" fill="#F9FAFC"/>
<path d="M490.659 130.15C486.4 130.15 483.044 129.473 480.592 128.118C478.14 126.762 476.397 124.471 475.365 121.245C474.332 118.018 473.816 113.63 473.816 108.08V60.2608H461.619V51.3552H483.496V108.08C483.496 111.371 483.722 113.985 484.174 115.921C484.625 117.857 485.367 119.244 486.4 120.083C487.432 120.858 488.852 121.245 490.659 121.245C491.885 121.245 493.144 120.89 494.434 120.18C495.725 119.47 497.467 118.179 499.662 116.308L505.082 124.536C502.307 126.666 499.887 128.118 497.822 128.892C495.757 129.731 493.37 130.15 490.659 130.15Z" fill="#F9FAFC"/>
<path d="M428.842 130.15C424.325 130.15 420.679 129.376 417.904 127.827C415.129 126.214 413.096 123.697 411.805 120.277C410.579 116.857 409.966 112.371 409.966 106.822V77.0072H397.963V68.1016H409.966V51.3552H419.646V68.1016H439.781V77.0072H419.646V106.822C419.646 112.307 420.324 116.082 421.679 118.147C423.034 120.212 425.422 121.245 428.842 121.245C431.165 121.245 432.908 121.083 434.069 120.761C435.295 120.374 436.199 119.728 436.78 118.825C437.425 117.921 438.006 116.598 438.522 114.856L447.621 117.954C446.718 120.987 445.524 123.407 444.04 125.214C442.555 126.956 440.587 128.214 438.135 128.989C435.747 129.763 432.65 130.15 428.842 130.15Z" fill="#F9FAFC"/>
<path d="M342.534 128.795V68.9729H352.214V71.4897C353.957 70.2635 356.022 69.3278 358.409 68.6825C360.797 67.9726 363.733 67.6177 367.218 67.6177C372.381 67.6177 376.446 68.3598 379.415 69.8441C382.384 71.3283 384.481 73.8451 385.707 77.3945C386.933 80.9438 387.546 85.8161 387.546 92.0113V128.795H377.866V92.0113C377.866 88.0747 377.543 84.9771 376.898 82.7185C376.253 80.4598 375.156 78.8787 373.607 77.9753C372.058 77.0073 369.929 76.5233 367.218 76.5233C363.088 76.5233 359.926 76.9105 357.732 77.6849C355.602 78.4593 354.15 79.879 353.376 81.9441C352.601 84.0091 352.214 87.0099 352.214 90.9465V128.795H342.534Z" fill="#F9FAFC"/>
<path d="M306.756 130.15C300.496 130.15 295.527 129.215 291.849 127.343C288.235 125.407 285.654 122.148 284.105 117.566C282.621 112.985 281.878 106.757 281.878 98.8841C281.878 90.9465 282.621 84.719 284.105 80.2017C285.654 75.6198 288.235 72.3931 291.849 70.5217C295.527 68.5857 300.496 67.6177 306.756 67.6177C312.951 67.6177 317.791 68.6502 321.276 70.7153C324.825 72.7158 327.342 76.1683 328.826 81.0729C330.311 85.9774 331.053 92.6889 331.053 101.207H284.686V92.3017H321.179C321.179 88.3006 320.727 85.1707 319.824 82.9121C318.985 80.5889 317.501 78.9433 315.371 77.9753C313.306 77.0073 310.434 76.5233 306.756 76.5233C302.884 76.5233 299.851 77.2009 297.657 78.5561C295.463 79.8467 293.882 82.0409 292.914 85.1385C292.01 88.2361 291.558 92.5275 291.558 98.0129C291.558 103.885 292.01 108.532 292.914 111.952C293.882 115.308 295.463 117.696 297.657 119.115C299.851 120.535 302.884 121.245 306.756 121.245C309.015 121.245 310.983 120.987 312.661 120.47C314.403 119.89 316.017 118.986 317.501 117.76C318.985 116.469 320.534 114.727 322.147 112.533L329.891 117.663C327.762 120.825 325.632 123.31 323.502 125.117C321.373 126.924 318.985 128.214 316.339 128.989C313.693 129.763 310.499 130.15 306.756 130.15Z" fill="#F9FAFC"/>
<path d="M229.063 128.795V68.9729H238.743V75.4585C239.582 74.2323 240.712 73.0385 242.131 71.8769C243.551 70.6507 245.229 69.6505 247.165 68.8761C249.101 68.0371 251.198 67.6177 253.457 67.6177C257.006 67.6177 259.975 68.1017 262.363 69.0697C264.75 69.9731 266.783 71.4897 268.461 73.6193C270.139 75.7489 271.655 78.6206 273.011 82.2345L264.299 86.2033C263.46 83.6219 262.589 81.6537 261.685 80.2985C260.846 78.8787 259.781 77.9107 258.491 77.3945C257.265 76.8137 255.587 76.5233 253.457 76.5233C250.682 76.5233 248.327 77.0718 246.391 78.1689C244.519 79.2659 243.003 80.7825 241.841 82.7185C240.744 84.5899 239.937 86.7841 239.421 89.3009C238.969 91.7531 238.743 94.3667 238.743 97.1417V128.795H229.063Z" fill="#F9FAFC"/>
<path d="M171.021 128.795V68.9729H180.701V75.4585C181.54 74.2323 182.669 73.0385 184.089 71.8769C185.509 70.6507 187.187 69.6505 189.123 68.8761C191.059 68.0371 193.156 67.6177 195.415 67.6177C198.964 67.6177 201.932 68.1017 204.32 69.0697C206.708 69.9731 208.741 71.4897 210.419 73.6193C212.096 75.7489 213.613 78.6206 214.968 82.2345L206.256 86.2033C205.417 83.6219 204.546 81.6537 203.643 80.2985C202.804 78.8787 201.739 77.9107 200.448 77.3945C199.222 76.8137 197.544 76.5233 195.415 76.5233C192.64 76.5233 190.284 77.0718 188.348 78.1689C186.477 79.2659 184.96 80.7825 183.799 82.7185C182.702 84.5899 181.895 86.7841 181.379 89.3009C180.927 91.7531 180.701 94.3667 180.701 97.1417V128.795H171.021Z" fill="#F9FAFC"/>
<path d="M130.693 130.15C125.66 130.15 121.659 129.408 118.69 127.924C115.722 126.375 113.592 123.858 112.301 120.373C111.011 116.824 110.365 112.113 110.365 106.241V68.9727H120.045V106.241C120.045 110.242 120.336 113.339 120.916 115.533C121.562 117.663 122.659 119.147 124.208 119.986C125.756 120.825 127.918 121.245 130.693 121.245C134.694 121.245 137.76 120.89 139.889 120.18C142.083 119.47 143.6 118.212 144.439 116.405C145.278 114.598 145.697 112.081 145.697 108.854V68.9727H155.377V128.795H145.697V126.762C144.536 127.537 143.245 128.182 141.825 128.698C140.406 129.215 138.76 129.569 136.888 129.763C135.082 130.021 133.016 130.15 130.693 130.15Z" fill="#F9FAFC"/>
<path d="M75.7488 130.15C70.9088 130.15 66.8432 129.441 63.552 128.021C60.2608 126.537 57.6149 124.213 55.6144 121.051C53.6139 117.889 52.1619 113.759 51.2584 108.661C50.4195 103.563 50 97.3352 50 89.9784C50 82.6861 50.4195 76.4909 51.2584 71.3928C52.1619 66.2947 53.6139 62.1968 55.6144 59.0992C57.6149 55.9371 60.2608 53.6461 63.552 52.2264C66.8432 50.7421 70.9088 50 75.7488 50C80.2016 50 83.88 50.6131 86.784 51.8392C89.7525 53.0653 92.1725 55.0981 94.044 57.9376C95.98 60.7125 97.6256 64.4877 98.9808 69.2632L89.7848 72.4576C88.7523 68.8437 87.6552 66.0688 86.4936 64.1328C85.3965 62.1323 84.0091 60.7771 82.3312 60.0672C80.7179 59.2928 78.5237 58.9056 75.7488 58.9056C71.6832 58.9056 68.4888 59.8413 66.1656 61.7128C63.8424 63.5843 62.1645 66.7787 61.132 71.296C60.164 75.8133 59.68 82.0408 59.68 89.9784C59.68 97.916 60.164 104.176 61.132 108.758C62.1645 113.275 63.8424 116.502 66.1656 118.438C68.4888 120.309 71.6832 121.245 75.7488 121.245C78.5237 121.245 80.7179 120.89 82.3312 120.18C84.0091 119.406 85.3965 118.083 86.4936 116.211C87.6552 114.275 88.7523 111.533 89.7848 107.983L98.9808 111.081C97.6256 115.792 95.98 119.567 94.044 122.406C92.1725 125.181 89.7848 127.182 86.8808 128.408C83.9768 129.57 80.2661 130.15 75.7488 130.15Z" fill="#F9FAFC"/>
</svg>
