<svg width="451" height="231" viewBox="0 0 451 231" fill="none" xmlns="http://www.w3.org/2000/svg">
<rect x="5" y="5" width="441" height="221" rx="25" fill="#D9027D" fill-opacity="0.1"/>
<rect x="5" y="5" width="441" height="221" rx="25" stroke="#D9027D" stroke-width="10"/>
<path d="M87.5504 157V79.56H133.434V88.4656H90.164L97.2304 81.3992V123.12L90.164 116.054H120.462V124.959H90.164L97.2304 117.893V157H87.5504ZM164.759 157V99.9848L170.857 106.083H152.562V97.1776H174.439V157H164.759ZM147.819 157V148.094H191.379V157H147.819ZM167.566 87.5944C164.598 87.5944 162.565 87.0781 161.468 86.0456C160.371 85.0131 159.822 83.1093 159.822 80.3344C159.822 77.5595 160.371 75.6557 161.468 74.6232C162.565 73.5907 164.598 73.0744 167.566 73.0744C170.535 73.0744 172.568 73.5907 173.665 74.6232C174.762 75.6557 175.31 77.5595 175.31 80.3344C175.31 83.1093 174.762 85.0131 173.665 86.0456C172.568 87.0781 170.535 87.5944 167.566 87.5944ZM224.931 175.973C222.027 175.973 219.542 175.715 217.477 175.198C215.477 174.747 213.67 173.94 212.056 172.778C210.443 171.681 208.797 170.165 207.12 168.229L214.186 162.227C215.348 163.518 216.38 164.518 217.284 165.228C218.187 165.938 219.22 166.422 220.381 166.68C221.543 166.938 223.059 167.067 224.931 167.067C228.351 167.067 230.997 166.615 232.868 165.712C234.74 164.873 236.031 163.357 236.74 161.162C237.515 158.968 237.902 155.935 237.902 152.063V149.74C236.289 150.966 234.32 151.902 231.997 152.547C229.739 153.193 227.157 153.515 224.253 153.515C218.445 153.515 213.831 152.483 210.411 150.418C207.055 148.288 204.635 144.868 203.151 140.157C201.731 135.381 201.021 129.057 201.021 121.184C201.021 115.118 201.763 110.246 203.248 106.567C204.732 102.824 207.152 100.114 210.508 98.436C213.928 96.6936 218.51 95.8224 224.253 95.8224C227.157 95.8224 229.739 96.0805 231.997 96.5968C234.32 97.0485 236.289 97.7907 237.902 98.8232V97.1776H247.582V151.192C247.582 157.194 246.872 162.001 245.452 165.615C244.033 169.294 241.645 171.939 238.289 173.553C234.998 175.166 230.545 175.973 224.931 175.973ZM224.253 144.61C228.964 144.61 232.417 143.48 234.611 141.222C236.805 138.898 237.902 135.285 237.902 130.38V111.02C237.902 109.665 237.386 108.535 236.353 107.632C235.385 106.664 233.901 105.954 231.9 105.502C229.9 104.986 227.351 104.728 224.253 104.728C220.768 104.728 218.026 105.244 216.025 106.277C214.089 107.245 212.702 108.923 211.863 111.31C211.088 113.698 210.701 116.989 210.701 121.184C210.701 127.186 211.088 131.897 211.863 135.317C212.702 138.737 214.121 141.157 216.122 142.577C218.123 143.932 220.833 144.61 224.253 144.61ZM257.224 157V97.1776H266.904V98.1456C268.388 97.3067 269.647 96.7259 270.679 96.4032C271.712 96.016 272.906 95.8224 274.261 95.8224C276.907 95.8224 278.907 96.2419 280.263 97.0808C281.682 97.9197 282.973 99.4685 284.135 101.727C285.812 99.4685 287.458 97.9197 289.071 97.0808C290.685 96.2419 292.782 95.8224 295.363 95.8224C298.848 95.8224 301.591 96.5645 303.591 98.0488C305.592 99.5331 307.012 102.05 307.851 105.599C308.69 109.084 309.109 113.859 309.109 119.926V157H299.429V119.926C299.429 116.312 299.3 113.472 299.042 111.407C298.784 109.278 298.364 107.761 297.783 106.858C297.203 105.954 296.396 105.502 295.363 105.502C293.492 105.502 292.008 105.922 290.911 106.761C289.878 107.6 289.136 109.019 288.684 111.02C288.232 113.021 288.007 115.731 288.007 119.151V157H278.327V120.506C278.327 116.763 278.198 113.795 277.939 111.601C277.681 109.407 277.262 107.858 276.681 106.954C276.1 105.986 275.294 105.502 274.261 105.502C272.39 105.502 270.905 105.922 269.808 106.761C268.776 107.6 268.034 109.019 267.582 111.02C267.13 113.021 266.904 115.731 266.904 119.151V157H257.224ZM339.66 158.355C334.11 158.355 329.69 157.742 326.398 156.516C323.107 155.29 320.719 153.322 319.235 150.611C317.815 147.901 317.106 144.287 317.106 139.77C317.106 134.736 317.815 130.832 319.235 128.057C320.719 125.217 323.107 123.249 326.398 122.152C329.69 121.055 334.11 120.506 339.66 120.506H352.534V117.409C352.534 114.44 352.147 112.117 351.373 110.439C350.663 108.697 349.372 107.471 347.501 106.761C345.694 106.051 343.08 105.696 339.66 105.696C336.95 105.696 334.82 105.986 333.271 106.567C331.787 107.083 330.625 108.084 329.786 109.568C328.947 111.052 328.173 113.15 327.463 115.86L318.17 113.537C319.267 109.342 320.655 105.954 322.333 103.373C324.011 100.791 326.237 98.8877 329.012 97.6616C331.787 96.4355 335.336 95.8224 339.66 95.8224C345.274 95.8224 349.727 96.5968 353.018 98.1456C356.31 99.6944 358.665 102.082 360.085 105.309C361.504 108.471 362.214 112.504 362.214 117.409V140.738C362.214 143.125 362.408 144.868 362.795 145.965C363.182 146.997 363.925 147.643 365.022 147.901C366.119 148.094 367.7 148.127 369.765 147.998V156.903C366.086 157.097 363.118 156.839 360.859 156.129C358.665 155.419 357.019 154.096 355.922 152.16C354.761 153.644 353.406 154.87 351.857 155.838C350.372 156.742 348.63 157.387 346.63 157.774C344.629 158.162 342.306 158.355 339.66 158.355ZM339.66 149.45C343.08 149.45 345.694 149.03 347.501 148.191C349.372 147.352 350.663 145.9 351.373 143.835C352.147 141.706 352.534 138.802 352.534 135.123V129.412H339.66C336.24 129.412 333.594 129.638 331.722 130.09C329.851 130.541 328.56 131.509 327.85 132.994C327.14 134.413 326.786 136.672 326.786 139.77C326.786 142.222 327.14 144.158 327.85 145.578C328.56 146.997 329.851 147.998 331.722 148.578C333.594 149.159 336.24 149.45 339.66 149.45Z" fill="#D9027D"/>
</svg>
