<svg width="561" height="231" viewBox="0 0 561 231" fill="none" xmlns="http://www.w3.org/2000/svg">
<rect width="561" height="231" rx="30" fill="#0B1118"/>
<g opacity="0.3">
<path d="M80 85.5005C80 81.5222 81.5804 77.7069 84.3934 74.8939C87.2064 72.0808 91.0218 70.5005 95 70.5005H110V100.5H95C91.0218 100.5 87.2064 98.9201 84.3934 96.1071C81.5804 93.294 80 89.4787 80 85.5005ZM110.05 70.5005H125C128.978 70.5005 132.794 72.0808 135.607 74.8939C138.42 77.7069 140 81.5222 140 85.5005C140 89.4787 138.42 93.294 135.607 96.1071C132.794 98.9201 128.978 100.5 125 100.5H110.05V70.5005ZM80 115.525C80 111.554 81.5777 107.745 84.3861 104.937C87.1944 102.128 91.0034 100.55 94.975 100.55H110V130.5H94.975C91.0034 130.5 87.1944 128.923 84.3861 126.114C81.5777 123.306 80 119.497 80 115.525Z" fill="#F9FAFC"/>
<path d="M110.05 115.524C110.05 111.553 111.628 107.744 114.436 104.935C117.244 102.127 121.053 100.549 125.025 100.549C128.997 100.549 132.806 102.127 135.614 104.935C138.422 107.744 140 111.553 140 115.524C140 119.496 138.422 123.305 135.614 126.113C132.806 128.922 128.997 130.499 125.025 130.499C121.053 130.499 117.244 128.922 114.436 126.113C111.628 123.305 110.05 119.496 110.05 115.524ZM80 145.524C80 141.553 81.5777 137.744 84.3861 134.935C87.1944 132.127 91.0034 130.549 94.975 130.549H110V145.499C110 153.784 103.27 160.499 94.99 160.499C91.0166 160.501 87.2053 158.924 84.3943 156.116C81.5833 153.307 80.0027 149.498 80 145.524Z" fill="#F9FAFC"/>
</g>
<path d="M80 85.5005C80 81.5222 81.5804 77.7069 84.3934 74.8939C87.2064 72.0808 91.0218 70.5005 95 70.5005H110V100.5H95C91.0218 100.5 87.2064 98.9201 84.3934 96.1071C81.5804 93.294 80 89.4787 80 85.5005ZM110.05 70.5005H125C128.978 70.5005 132.794 72.0808 135.607 74.8939C138.42 77.7069 140 81.5222 140 85.5005C140 89.4787 138.42 93.294 135.607 96.1071C132.794 98.9201 128.978 100.5 125 100.5H110.05V70.5005ZM80 115.525C80 111.554 81.5777 107.745 84.3861 104.937C87.1944 102.128 91.0034 100.55 94.975 100.55H110V130.5H94.975C91.0034 130.5 87.1944 128.923 84.3861 126.114C81.5777 123.306 80 119.497 80 115.525Z" stroke="#F9FAFC" stroke-width="10"/>
<path d="M110.05 115.524C110.05 111.553 111.628 107.744 114.436 104.935C117.244 102.127 121.053 100.549 125.025 100.549C128.997 100.549 132.806 102.127 135.614 104.935C138.422 107.744 140 111.553 140 115.524C140 119.496 138.422 123.305 135.614 126.113C132.806 128.922 128.997 130.499 125.025 130.499C121.053 130.499 117.244 128.922 114.436 126.113C111.628 123.305 110.05 119.496 110.05 115.524ZM80 145.524C80 141.553 81.5777 137.744 84.3861 134.935C87.1944 132.127 91.0034 130.549 94.975 130.549H110V145.499C110 153.784 103.27 160.499 94.99 160.499C91.0166 160.501 87.2053 158.924 84.3943 156.116C81.5833 153.307 80.0027 149.498 80 145.524Z" stroke="#F9FAFC" stroke-width="10"/>
<path d="M197.55 157V79.56H243.434V88.4656H200.164L207.23 81.3992V123.12L200.164 116.054H230.462V124.959H200.164L207.23 117.893V157H197.55ZM274.759 157V99.9848L280.857 106.083H262.562V97.1776H284.439V157H274.759ZM257.819 157V148.094H301.379V157H257.819ZM277.566 87.5944C274.598 87.5944 272.565 87.0781 271.468 86.0456C270.371 85.0131 269.822 83.1093 269.822 80.3344C269.822 77.5595 270.371 75.6557 271.468 74.6232C272.565 73.5907 274.598 73.0744 277.566 73.0744C280.535 73.0744 282.568 73.5907 283.665 74.6232C284.762 75.6557 285.31 77.5595 285.31 80.3344C285.31 83.1093 284.762 85.0131 283.665 86.0456C282.568 87.0781 280.535 87.5944 277.566 87.5944ZM334.931 175.973C332.027 175.973 329.542 175.715 327.477 175.198C325.477 174.747 323.67 173.94 322.056 172.778C320.443 171.681 318.797 170.165 317.12 168.229L324.186 162.227C325.348 163.518 326.38 164.518 327.284 165.228C328.187 165.938 329.22 166.422 330.381 166.68C331.543 166.938 333.059 167.067 334.931 167.067C338.351 167.067 340.997 166.615 342.868 165.712C344.74 164.873 346.031 163.357 346.74 161.162C347.515 158.968 347.902 155.935 347.902 152.063V149.74C346.289 150.966 344.32 151.902 341.997 152.547C339.739 153.193 337.157 153.515 334.253 153.515C328.445 153.515 323.831 152.483 320.411 150.418C317.055 148.288 314.635 144.868 313.151 140.157C311.731 135.381 311.021 129.057 311.021 121.184C311.021 115.118 311.763 110.246 313.248 106.567C314.732 102.824 317.152 100.114 320.508 98.436C323.928 96.6936 328.51 95.8224 334.253 95.8224C337.157 95.8224 339.739 96.0805 341.997 96.5968C344.32 97.0485 346.289 97.7907 347.902 98.8232V97.1776H357.582V151.192C357.582 157.194 356.872 162.001 355.452 165.615C354.033 169.294 351.645 171.939 348.289 173.553C344.998 175.166 340.545 175.973 334.931 175.973ZM334.253 144.61C338.964 144.61 342.417 143.48 344.611 141.222C346.805 138.898 347.902 135.285 347.902 130.38V111.02C347.902 109.665 347.386 108.535 346.353 107.632C345.385 106.664 343.901 105.954 341.9 105.502C339.9 104.986 337.351 104.728 334.253 104.728C330.768 104.728 328.026 105.244 326.025 106.277C324.089 107.245 322.702 108.923 321.863 111.31C321.088 113.698 320.701 116.989 320.701 121.184C320.701 127.186 321.088 131.897 321.863 135.317C322.702 138.737 324.121 141.157 326.122 142.577C328.123 143.932 330.833 144.61 334.253 144.61ZM367.224 157V97.1776H376.904V98.1456C378.388 97.3067 379.647 96.7259 380.679 96.4032C381.712 96.016 382.906 95.8224 384.261 95.8224C386.907 95.8224 388.907 96.2419 390.263 97.0808C391.682 97.9197 392.973 99.4685 394.135 101.727C395.812 99.4685 397.458 97.9197 399.071 97.0808C400.685 96.2419 402.782 95.8224 405.363 95.8224C408.848 95.8224 411.591 96.5645 413.591 98.0488C415.592 99.5331 417.012 102.05 417.851 105.599C418.69 109.084 419.109 113.859 419.109 119.926V157H409.429V119.926C409.429 116.312 409.3 113.472 409.042 111.407C408.784 109.278 408.364 107.761 407.783 106.858C407.203 105.954 406.396 105.502 405.363 105.502C403.492 105.502 402.008 105.922 400.911 106.761C399.878 107.6 399.136 109.019 398.684 111.02C398.232 113.021 398.007 115.731 398.007 119.151V157H388.327V120.506C388.327 116.763 388.198 113.795 387.939 111.601C387.681 109.407 387.262 107.858 386.681 106.954C386.1 105.986 385.294 105.502 384.261 105.502C382.39 105.502 380.905 105.922 379.808 106.761C378.776 107.6 378.034 109.019 377.582 111.02C377.13 113.021 376.904 115.731 376.904 119.151V157H367.224ZM449.66 158.355C444.11 158.355 439.69 157.742 436.398 156.516C433.107 155.29 430.719 153.322 429.235 150.611C427.815 147.901 427.106 144.287 427.106 139.77C427.106 134.736 427.815 130.832 429.235 128.057C430.719 125.217 433.107 123.249 436.398 122.152C439.69 121.055 444.11 120.506 449.66 120.506H462.534V117.409C462.534 114.44 462.147 112.117 461.373 110.439C460.663 108.697 459.372 107.471 457.501 106.761C455.694 106.051 453.08 105.696 449.66 105.696C446.95 105.696 444.82 105.986 443.271 106.567C441.787 107.083 440.625 108.084 439.786 109.568C438.947 111.052 438.173 113.15 437.463 115.86L428.17 113.537C429.267 109.342 430.655 105.954 432.333 103.373C434.011 100.791 436.237 98.8877 439.012 97.6616C441.787 96.4355 445.336 95.8224 449.66 95.8224C455.274 95.8224 459.727 96.5968 463.018 98.1456C466.31 99.6944 468.665 102.082 470.085 105.309C471.504 108.471 472.214 112.504 472.214 117.409V140.738C472.214 143.125 472.408 144.868 472.795 145.965C473.182 146.997 473.925 147.643 475.022 147.901C476.119 148.094 477.7 148.127 479.765 147.998V156.903C476.086 157.097 473.118 156.839 470.859 156.129C468.665 155.419 467.019 154.096 465.922 152.16C464.761 153.644 463.406 154.87 461.857 155.838C460.372 156.742 458.63 157.387 456.63 157.774C454.629 158.162 452.306 158.355 449.66 158.355ZM449.66 149.45C453.08 149.45 455.694 149.03 457.501 148.191C459.372 147.352 460.663 145.9 461.373 143.835C462.147 141.706 462.534 138.802 462.534 135.123V129.412H449.66C446.24 129.412 443.594 129.638 441.722 130.09C439.851 130.541 438.56 131.509 437.85 132.994C437.14 134.413 436.786 136.672 436.786 139.77C436.786 142.222 437.14 144.158 437.85 145.578C438.56 146.997 439.851 147.998 441.722 148.578C443.594 149.159 446.24 149.45 449.66 149.45Z" fill="#F9FAFC"/>
</svg>
