<svg width="609" height="120" viewBox="0 0 609 120" fill="none" xmlns="http://www.w3.org/2000/svg">
<path d="M20 0H608.5L588.5 120H0L20 0Z" fill="#022DD8"/>
<path d="M546.256 94.968C541.996 94.968 538.253 94.0646 535.027 92.2576C531.865 90.3862 529.445 87.8048 527.767 84.5136C526.089 81.2224 525.25 77.415 525.25 73.0912C525.25 68.4448 526.218 63.7016 528.154 58.8616C530.155 53.9571 533.155 49.8592 537.156 46.568C541.222 43.2123 546.127 41.5344 551.87 41.5344C556.968 41.5344 561.26 42.7606 564.744 45.2128C568.229 47.6006 570.617 50.9886 571.908 55.3768C573.263 59.7651 573.36 64.7664 572.198 70.3808H530.284V63.7984H570.262L565.228 63.992C565.422 59.0875 564.325 55.28 561.937 52.5696C559.614 49.8592 556.194 48.504 551.676 48.504C547.224 48.504 543.61 49.956 540.835 52.86C538.124 55.764 536.188 59.1198 535.027 62.9272C533.93 66.7347 533.381 70.0582 533.381 72.8976C533.381 75.9952 533.897 78.6734 534.93 80.932C536.027 83.1907 537.576 84.9331 539.576 86.1592C541.577 87.3854 543.997 87.9984 546.836 87.9984C550.128 87.9984 553.032 87.2563 555.548 85.772C558.065 84.2232 560.033 81.9968 561.453 79.0928H570.359C567.971 84.2555 564.712 88.192 560.582 90.9024C556.516 93.6128 551.741 94.968 546.256 94.968Z" fill="#F9FAFC"/>
<path d="M488.2 22.7552L496.622 21.9808L481.328 94H473.1L488.2 22.7552ZM493.137 67.9608L495.073 68.2512L484.522 77.4472L486.555 67.7672H487.136L516.466 42.5024H526.34L499.526 66.6056L499.72 63.024L516.272 94H507.754L493.137 67.9608Z" fill="#F9FAFC"/>
<path d="M437.309 94.6776C434.212 94.6776 431.405 94.0646 428.888 92.8384C426.436 91.5478 424.5 89.8054 423.08 87.6112C421.66 85.3526 420.95 82.8358 420.95 80.0608C420.95 75.3499 422.37 71.7038 425.209 69.1224C428.113 66.4766 432.502 64.831 438.374 64.1856L453.862 62.4432C455.605 62.1851 456.831 61.7979 457.541 61.2816C458.315 60.7008 458.864 59.7651 459.186 58.4744C459.573 56.5384 459.38 54.8283 458.605 53.344C457.831 51.7952 456.573 50.6014 454.83 49.7624C453.088 48.9235 451.023 48.504 448.635 48.504C445.537 48.504 442.859 49.2784 440.601 50.8272C438.406 52.376 436.922 54.5056 436.148 57.216H427.242C428.468 52.1179 430.888 48.2459 434.502 45.6C438.181 42.8896 442.892 41.5344 448.635 41.5344C453.023 41.5344 456.734 42.3411 459.767 43.9544C462.8 45.5678 464.93 47.8264 466.156 50.7304C467.446 53.6344 467.705 56.9579 466.93 60.7008L459.864 94H451.733L453.185 87.224H452.797C451.894 88.6438 450.603 89.9344 448.925 91.096C447.312 92.1931 445.473 93.0643 443.408 93.7096C441.343 94.355 439.31 94.6776 437.309 94.6776ZM438.471 87.5144C441.181 87.5144 443.795 86.8046 446.312 85.3848C448.829 83.9651 450.99 82.0614 452.797 79.6736C454.604 77.2214 455.83 74.511 456.476 71.5424L457.541 66.7024H458.605C458.218 67.4123 457.605 67.9608 456.766 68.348C455.992 68.7352 454.959 68.9934 453.669 69.1224L438.955 70.768C435.793 71.0907 433.47 72.0264 431.985 73.5752C430.501 75.0595 429.759 77.2214 429.759 80.0608C429.759 82.255 430.566 84.0619 432.179 85.4816C433.857 86.8368 435.954 87.5144 438.471 87.5144Z" fill="#F9FAFC"/>
<path d="M412.953 22.7552L421.375 21.9808L405.984 94H397.756L412.953 22.7552Z" fill="#F9FAFC"/>
<path d="M349.447 25.6592H377.712C381.133 25.6592 384.101 26.3045 386.618 27.5952C389.199 28.8858 391.168 30.6928 392.523 33.016C393.878 35.2746 394.556 37.8882 394.556 40.8568C394.556 42.7928 394.168 44.9869 393.394 47.4392C392.62 49.8269 391.232 52.1178 389.232 54.312C387.296 56.5061 384.65 57.9904 381.294 58.7648L381.197 59.152C383.972 60.3781 386.134 62.2173 387.683 64.6696C389.296 67.1218 390.103 69.9291 390.103 73.0912C390.103 76.0597 389.361 79.1573 387.876 82.384C386.457 85.5461 383.94 88.2888 380.326 90.612C376.777 92.8707 372.098 94 366.29 94H334.927L349.447 25.6592ZM366.096 86.3528C369.968 86.3528 373.066 85.6106 375.389 84.1264C377.777 82.6421 379.422 80.8997 380.326 78.8992C381.294 76.8341 381.778 74.8659 381.778 72.9944C381.778 70.0259 380.778 67.5736 378.777 65.6376C376.777 63.637 374.195 62.6368 371.033 62.6368H350.028L344.994 86.3528H366.096ZM372.776 55.3768C376.002 55.3768 378.584 54.7314 380.52 53.4408C382.52 52.0856 383.94 50.4722 384.779 48.6008C385.682 46.6648 386.134 44.8256 386.134 43.0832C386.134 40.1792 385.134 37.8237 383.133 36.0168C381.197 34.2098 378.551 33.3064 375.196 33.3064H356.223L351.576 55.3768H372.776Z" fill="#F9FAFC"/>
<path d="M235.705 42.5024H243.933L242.577 48.988H242.965C244.513 46.7294 246.611 44.9224 249.257 43.5672C251.902 42.212 254.71 41.5344 257.678 41.5344C261.292 41.5344 264.357 42.3734 266.874 44.0512C269.391 45.7291 271.133 48.0523 272.101 51.0208C273.134 53.9248 273.263 57.2483 272.489 60.9912L270.165 50.6336H272.973C274.715 47.8587 277.07 45.6646 280.039 44.0512C283.007 42.3734 286.073 41.5344 289.235 41.5344C293.042 41.5344 296.301 42.3734 299.012 44.0512C301.722 45.7291 303.594 48.0523 304.626 51.0208C305.723 53.9248 305.885 57.2483 305.11 60.9912L298.044 94H289.816L296.785 61.1848C297.56 57.7 297.076 54.8283 295.333 52.5696C293.655 50.2464 291.106 49.0848 287.686 49.0848C285.169 49.0848 282.814 49.827 280.62 51.3112C278.426 52.731 276.522 54.7315 274.909 57.3128C273.295 59.8942 272.134 62.8627 271.424 66.2184L265.519 94H257.291L264.261 61.1848C265.035 57.7 264.583 54.8283 262.905 52.5696C261.227 50.2464 258.711 49.0848 255.355 49.0848C252.838 49.0848 250.45 49.827 248.192 51.3112C245.998 52.731 244.062 54.7315 242.384 57.3128C240.77 59.8942 239.609 62.8627 238.899 66.2184L232.994 94H224.766L235.705 42.5024Z" fill="#F9FAFC"/>
<path d="M210.01 45.3096C211.752 45.3096 213.204 44.5352 214.366 42.9864C215.528 41.373 216.431 38.953 217.076 35.7264H212.043L214.172 25.6592H224.336L222.207 35.7264C221.174 40.5018 219.561 44.0834 217.367 46.4712C215.173 48.7944 212.398 49.956 209.042 49.956L210.01 45.3096Z" fill="#F9FAFC"/>
<path d="M189.309 25.6592H197.827L183.307 94H174.789L189.309 25.6592Z" fill="#F9FAFC"/>
<path d="M123.129 103.583C124.872 103.583 126.324 102.777 127.485 101.163C128.647 99.6145 129.55 97.2267 130.196 94.0001H125.162L127.292 83.9329H137.456L135.326 94.0001C134.293 98.7755 132.68 102.325 130.486 104.648C128.292 107.036 125.517 108.23 122.161 108.23L123.129 103.583Z" fill="#F9FAFC"/>
<path d="M113.003 42.5023H121.134L110.196 93.9999H101.968L113.003 42.5023ZM116.197 23.5295H125.877L123.941 32.8223H114.261L116.197 23.5295Z" fill="#F9FAFC"/>
<path d="M47.1338 25.6592H55.6522L49.2634 55.8608H86.725L93.1138 25.6592H101.632L87.1122 94H78.5938L85.0794 63.508H47.6178L41.1322 94H32.6138L47.1338 25.6592Z" fill="#F9FAFC"/>
</svg>
