<svg width="845" height="203" viewBox="0 0 845 203" fill="none" xmlns="http://www.w3.org/2000/svg">
<rect width="844.422" height="202.898" rx="30" fill="#022DD8"/>
<path d="M770.125 135.281C763.865 135.281 758.896 134.345 755.218 132.474C751.604 130.538 749.023 127.279 747.474 122.697C745.99 118.115 745.248 111.888 745.248 104.014C745.248 96.0768 745.99 89.8494 747.474 85.332C749.023 80.7502 751.604 77.5235 755.218 75.652C758.896 73.716 763.865 72.748 770.125 72.748C776.32 72.748 781.16 73.7806 784.645 75.8456C788.194 77.8462 790.711 81.2987 792.196 86.2032C793.68 91.1078 794.422 97.8192 794.422 106.338H748.055V97.4321H784.548C784.548 93.431 784.097 90.3011 783.193 88.0424C782.354 85.7192 780.87 84.0736 778.74 83.1056C776.675 82.1376 773.804 81.6536 770.125 81.6536C766.253 81.6536 763.22 82.3312 761.026 83.6864C758.832 84.9771 757.251 87.1712 756.283 90.2688C755.379 93.3664 754.928 97.6579 754.928 103.143C754.928 109.016 755.379 113.662 756.283 117.082C757.251 120.438 758.832 122.826 761.026 124.246C763.22 125.665 766.253 126.375 770.125 126.375C772.384 126.375 774.352 126.117 776.03 125.601C777.772 125.02 779.386 124.117 780.87 122.89C782.354 121.6 783.903 119.857 785.516 117.663L793.26 122.794C791.131 125.956 789.001 128.44 786.872 130.247C784.742 132.054 782.354 133.345 779.708 134.119C777.062 134.894 773.868 135.281 770.125 135.281Z" fill="#F9FAFC"/>
<path d="M692.529 133.926V56.4856H702.209V97.432H703.565L723.021 74.1032H734.734L712.18 101.691L738.606 133.926H726.893L703.952 106.338H702.209V133.926H692.529Z" fill="#F9FAFC"/>
<path d="M652.202 135.281C646.652 135.281 642.231 134.668 638.94 133.442C635.649 132.216 633.261 130.247 631.777 127.537C630.357 124.826 629.647 121.213 629.647 116.695C629.647 111.662 630.357 107.757 631.777 104.982C633.261 102.143 635.649 100.175 638.94 99.0777C642.231 97.9806 646.652 97.4321 652.202 97.4321H665.076V94.3344C665.076 91.3659 664.689 89.0427 663.915 87.3648C663.205 85.6224 661.914 84.3963 660.043 83.6864C658.236 82.9766 655.622 82.6216 652.202 82.6216C649.491 82.6216 647.362 82.912 645.813 83.4928C644.329 84.0091 643.167 85.0094 642.328 86.4936C641.489 87.9779 640.715 90.0753 640.005 92.7857L630.712 90.4624C631.809 86.2678 633.197 82.8798 634.875 80.2984C636.553 77.7171 638.779 75.8134 641.554 74.5872C644.329 73.3611 647.878 72.748 652.202 72.748C657.816 72.748 662.269 73.5224 665.56 75.0712C668.851 76.62 671.207 79.0078 672.627 82.2344C674.046 85.3966 674.756 89.4299 674.756 94.3344V117.663C674.756 120.051 674.95 121.793 675.337 122.89C675.724 123.923 676.466 124.568 677.563 124.826C678.66 125.02 680.242 125.052 682.307 124.923V133.829C678.628 134.022 675.66 133.764 673.401 133.054C671.207 132.345 669.561 131.022 668.464 129.086C667.303 130.57 665.947 131.796 664.399 132.764C662.914 133.668 661.172 134.313 659.171 134.7C657.171 135.087 654.848 135.281 652.202 135.281ZM652.202 126.375C655.622 126.375 658.236 125.956 660.043 125.117C661.914 124.278 663.205 122.826 663.915 120.761C664.689 118.631 665.076 115.727 665.076 112.049V106.338H652.202C648.782 106.338 646.136 106.564 644.264 107.015C642.393 107.467 641.102 108.435 640.392 109.919C639.682 111.339 639.327 113.598 639.327 116.695C639.327 119.148 639.682 121.084 640.392 122.503C641.102 123.923 642.393 124.923 644.264 125.504C646.136 126.085 648.782 126.375 652.202 126.375Z" fill="#F9FAFC"/>
<path d="M605.775 135.281C601.516 135.281 598.16 134.603 595.708 133.248C593.256 131.893 591.513 129.602 590.481 126.375C589.448 123.149 588.932 118.76 588.932 113.21V65.3912H576.735V56.4856H598.612V113.21C598.612 116.502 598.838 119.115 599.29 121.051C599.741 122.987 600.484 124.375 601.516 125.214C602.549 125.988 603.968 126.375 605.775 126.375C607.001 126.375 608.26 126.02 609.551 125.31C610.841 124.601 612.584 123.31 614.778 121.438L620.199 129.666C617.424 131.796 615.004 133.248 612.939 134.022C610.873 134.861 608.486 135.281 605.775 135.281Z" fill="#F9FAFC"/>
<path d="M515.305 133.926V56.4856H536.117C541.861 56.4856 546.41 57.1632 549.766 58.5184C553.186 59.8736 555.639 62.0355 557.123 65.004C558.607 67.908 559.349 71.8123 559.349 76.7168C559.349 79.5563 559.123 81.944 558.672 83.88C558.284 85.7515 557.607 87.3325 556.639 88.6232C555.671 89.9139 554.38 91.1077 552.767 92.2048C554.961 93.3019 556.703 94.6248 557.994 96.1736C559.349 97.7224 560.317 99.6907 560.898 102.078C561.479 104.466 561.769 107.499 561.769 111.178C561.769 116.663 561.027 121.083 559.543 124.439C558.059 127.795 555.606 130.215 552.186 131.699C548.83 133.183 544.281 133.926 538.537 133.926H515.305ZM524.985 125.02H538.537C542.087 125.02 544.829 124.633 546.765 123.858C548.766 123.019 550.153 121.6 550.928 119.599C551.702 117.534 552.089 114.727 552.089 111.178C552.089 107.241 551.702 104.305 550.928 102.369C550.153 100.368 548.766 99.0453 546.765 98.4C544.829 97.7547 542.087 97.432 538.537 97.432H524.985V125.02ZM524.985 88.5264H536.117C539.731 88.5264 542.506 88.2683 544.442 87.752C546.378 87.1712 547.733 86.0419 548.508 84.364C549.282 82.6861 549.669 80.1371 549.669 76.7168C549.669 73.8128 549.282 71.5541 548.508 69.9408C547.798 68.2629 546.443 67.1013 544.442 66.456C542.506 65.7461 539.731 65.3912 536.117 65.3912H524.985V88.5264Z" fill="#F9FAFC"/>
<path d="M395.639 133.926V74.1032H405.319V75.0712C406.803 74.2323 408.062 73.6515 409.094 73.3288C410.127 72.9416 411.321 72.748 412.676 72.748C415.322 72.748 417.322 73.1675 418.678 74.0064C420.097 74.8454 421.388 76.3942 422.55 78.6528C424.227 76.3942 425.873 74.8454 427.486 74.0064C429.1 73.1675 431.197 72.748 433.778 72.748C437.263 72.748 440.006 73.4902 442.006 74.9744C444.007 76.4587 445.427 78.9755 446.266 82.5248C447.104 86.0096 447.524 90.7851 447.524 96.8512V133.926H437.844V96.8512C437.844 93.2374 437.715 90.3979 437.457 88.3328C437.199 86.2032 436.779 84.6867 436.198 83.7832C435.618 82.8798 434.811 82.4281 433.778 82.4281C431.907 82.4281 430.423 82.8475 429.326 83.6864C428.293 84.5254 427.551 85.9451 427.099 87.9456C426.647 89.9462 426.422 92.6566 426.422 96.0769V133.926H416.742V97.4321C416.742 93.6891 416.613 90.7206 416.354 88.5264C416.096 86.3323 415.677 84.7835 415.096 83.88C414.515 82.912 413.708 82.4281 412.676 82.4281C410.804 82.4281 409.32 82.8475 408.223 83.6864C407.191 84.5254 406.448 85.9451 405.997 87.9456C405.545 89.9462 405.319 92.6566 405.319 96.0769V133.926H395.639Z" fill="#F9FAFC"/>
<path d="M352.795 89.8815C354.989 86.6548 356.699 83.9767 357.925 81.8471C359.216 79.7175 360.119 77.9106 360.636 76.4263C361.152 74.942 361.41 73.5868 361.41 72.3607C359.151 72.3607 357.57 71.8122 356.667 70.7151C355.828 69.618 355.409 67.6175 355.409 64.7135C355.409 61.874 355.989 59.9058 357.151 58.8087C358.313 57.7116 360.442 57.1631 363.54 57.1631C366.637 57.1631 368.767 57.7116 369.929 58.8087C371.09 59.9058 371.671 61.874 371.671 64.7135C371.671 67.7466 371.316 70.5538 370.606 73.1351C369.961 75.6519 368.831 78.2332 367.218 80.8791C365.605 83.525 363.378 86.5258 360.539 89.8815H352.795Z" fill="#F9FAFC"/>
<path d="M300.657 133.926V56.4856H310.337V133.926H300.657ZM284.976 133.926V125.02H326.019V133.926H284.976ZM284.976 65.3912V56.4856H326.019V65.3912H284.976Z" fill="#F9FAFC"/>
<path d="M178.668 152.898C180.862 149.672 182.572 146.994 183.798 144.864C185.089 142.734 185.993 140.927 186.509 139.443C187.025 137.959 187.283 136.604 187.283 135.378C185.025 135.378 183.443 134.829 182.54 133.732C181.701 132.635 181.282 130.634 181.282 127.73C181.282 124.891 181.862 122.923 183.024 121.826C184.186 120.728 186.315 120.18 189.413 120.18C192.51 120.18 194.64 120.728 195.802 121.826C196.963 122.923 197.544 124.891 197.544 127.73C197.544 130.763 197.189 133.538 196.479 136.055C195.834 138.636 194.705 141.25 193.091 143.896C191.478 146.542 189.251 149.543 186.412 152.898H178.668Z" fill="#F9FAFC"/>
<path d="M129.047 133.926V76.9104L135.146 83.0088H116.851V74.1032H138.727V133.926H129.047ZM112.107 133.926V125.02H155.667V133.926H112.107ZM131.855 64.52C128.886 64.52 126.853 64.0037 125.756 62.9712C124.659 61.9387 124.111 60.0349 124.111 57.26C124.111 54.4851 124.659 52.5813 125.756 51.5488C126.853 50.5163 128.886 50 131.855 50C134.823 50 136.856 50.5163 137.953 51.5488C139.05 52.5813 139.599 54.4851 139.599 57.26C139.599 60.0349 139.05 61.9387 137.953 62.9712C136.856 64.0037 134.823 64.52 131.855 64.52Z" fill="#F9FAFC"/>
<path d="M86.9776 133.926V56.4856H96.6576V133.926H86.9776ZM50 133.926V56.4856H59.68V133.926H50ZM52.8072 97.432V88.5264H93.8504V97.432H52.8072Z" fill="#F9FAFC"/>
</svg>
