<svg width="200" height="200" viewBox="0 0 200 200" fill="none" xmlns="http://www.w3.org/2000/svg">
<rect width="200" height="200" rx="100" fill="#022DD8"/>
<path opacity="0.2" d="M52.0003 107.06L52.2427 70.7027C52.2852 64.1209 56.8882 58.4785 63.2427 57.2209L98.3547 50.2603C106.791 48.5876 114.621 55.1906 114.567 63.9269L114.324 100.29C114.279 106.869 109.676 112.509 103.321 113.769L68.2094 120.73C59.773 122.402 51.9427 115.799 52.0003 107.06Z" fill="white"/>
<path opacity="0.5" d="M69.203 121.567L69.4454 85.2039C69.4848 78.6282 74.0908 72.9888 80.4453 71.7282L115.557 64.7706C123.994 63.0979 131.824 69.6979 131.766 78.4373L131.524 114.801C131.482 121.38 126.879 127.019 120.524 128.28L85.412 135.24C76.9757 136.91 69.1454 130.31 69.203 121.574V121.567Z" fill="white"/>
<path opacity="0.8" d="M86.4066 136.073L86.6491 99.7094C86.6915 93.1276 91.2945 87.4913 97.649 86.2306L132.761 79.2701C141.197 77.5973 149.028 84.2003 148.97 92.9367L148.728 129.3C148.685 135.882 144.082 141.521 137.728 142.779L102.616 149.74C94.1793 151.412 86.3491 144.809 86.4036 136.073H86.4066Z" fill="white"/>
</svg>
