<svg width="200" height="200" viewBox="0 0 200 200" fill="none" xmlns="http://www.w3.org/2000/svg">
<rect width="200" height="200" rx="100" fill="#022DD8"/>
<path d="M142.598 50H57.3828C53.3008 50 50 53.2227 50 57.207V142.773C50 146.758 53.3008 150 57.3828 150H142.598C146.68 150 150 146.758 150 142.793V57.207C150 53.2227 146.68 50 142.598 50ZM79.668 135.215H64.8242V87.4805H79.668V135.215ZM72.2461 80.9766C67.4805 80.9766 63.6328 77.1289 63.6328 72.3828C63.6328 67.6367 67.4805 63.7891 72.2461 63.7891C76.9922 63.7891 80.8398 67.6367 80.8398 72.3828C80.8398 77.1094 76.9922 80.9766 72.2461 80.9766ZM135.215 135.215H120.391V112.012C120.391 106.484 120.293 99.3555 112.676 99.3555C104.961 99.3555 103.789 105.391 103.789 111.621V135.215H88.9844V87.4805H103.203V94.0039H103.398C105.371 90.2539 110.215 86.2891 117.422 86.2891C132.441 86.2891 135.215 96.1719 135.215 109.023V135.215Z" fill="white"/>
</svg>
