<svg width="1697" height="202" viewBox="0 0 1697 202" fill="none" xmlns="http://www.w3.org/2000/svg">
<rect width="1696.32" height="202" rx="30" fill="#F8F9FC"/>
<path d="M1470.02 143.64C1463.76 143.64 1458.79 142.704 1455.11 140.833C1451.5 138.897 1448.92 135.638 1447.37 131.056C1445.88 126.474 1445.14 120.247 1445.14 112.374C1445.14 104.436 1445.88 98.2088 1447.37 93.6914C1448.92 89.1096 1451.5 85.8829 1455.11 84.0114C1458.79 82.0754 1463.76 81.1074 1470.02 81.1074C1476.21 81.1074 1481.05 82.14 1484.54 84.205C1488.09 86.2056 1490.61 89.6581 1492.09 94.5626C1493.57 99.4672 1494.32 106.179 1494.32 114.697H1447.95V105.791H1484.44C1484.44 101.79 1483.99 98.6605 1483.09 96.4018C1482.25 94.0786 1480.76 92.433 1478.63 91.465C1476.57 90.497 1473.7 90.013 1470.02 90.013C1466.15 90.013 1463.11 90.6906 1460.92 92.0458C1458.73 93.3365 1457.15 95.5306 1456.18 98.6282C1455.27 101.726 1454.82 106.017 1454.82 111.503C1454.82 117.375 1455.27 122.022 1456.18 125.442C1457.15 128.798 1458.73 131.185 1460.92 132.605C1463.11 134.025 1466.15 134.735 1470.02 134.735C1472.28 134.735 1474.25 134.476 1475.92 133.96C1477.67 133.379 1479.28 132.476 1480.76 131.25C1482.25 129.959 1483.8 128.217 1485.41 126.023L1493.15 131.153C1491.03 134.315 1488.9 136.8 1486.77 138.607C1484.64 140.414 1482.25 141.704 1479.6 142.479C1476.96 143.253 1473.76 143.64 1470.02 143.64Z" fill="#022DD8"/>
<path d="M1392.42 142.285V64.8452H1402.1V105.792H1403.46L1422.92 82.4628H1434.63L1412.07 110.051L1438.5 142.285H1426.79L1403.85 114.697H1402.1V142.285H1392.42Z" fill="#022DD8"/>
<path d="M1352.1 143.64C1346.55 143.64 1342.13 143.027 1338.83 141.801C1335.54 140.575 1333.16 138.607 1331.67 135.896C1330.25 133.186 1329.54 129.572 1329.54 125.055C1329.54 120.021 1330.25 116.117 1331.67 113.342C1333.16 110.502 1335.54 108.534 1338.83 107.437C1342.13 106.34 1346.55 105.791 1352.1 105.791H1364.97V102.694C1364.97 99.7253 1364.58 97.4021 1363.81 95.7242C1363.1 93.9818 1361.81 92.7557 1359.94 92.0458C1358.13 91.336 1355.52 90.981 1352.1 90.981C1349.39 90.981 1347.26 91.2714 1345.71 91.8522C1344.22 92.3685 1343.06 93.3688 1342.22 94.853C1341.38 96.3373 1340.61 98.4346 1339.9 101.145L1330.61 98.8218C1331.7 94.6272 1333.09 91.2392 1334.77 88.6578C1336.45 86.0765 1338.67 84.1728 1341.45 82.9466C1344.22 81.7205 1347.77 81.1074 1352.1 81.1074C1357.71 81.1074 1362.16 81.8818 1365.45 83.4306C1368.75 84.9794 1371.1 87.3672 1372.52 90.5938C1373.94 93.756 1374.65 97.7893 1374.65 102.694V126.023C1374.65 128.41 1374.84 130.153 1375.23 131.25C1375.62 132.282 1376.36 132.928 1377.46 133.186C1378.55 133.379 1380.14 133.412 1382.2 133.283V142.188C1378.52 142.382 1375.55 142.124 1373.3 141.414C1371.1 140.704 1369.46 139.381 1368.36 137.445C1367.2 138.929 1365.84 140.155 1364.29 141.123C1362.81 142.027 1361.07 142.672 1359.07 143.059C1357.07 143.447 1354.74 143.64 1352.1 143.64ZM1352.1 134.735C1355.52 134.735 1358.13 134.315 1359.94 133.476C1361.81 132.637 1363.1 131.185 1363.81 129.12C1364.58 126.991 1364.97 124.087 1364.97 120.408V114.697H1352.1C1348.68 114.697 1346.03 114.923 1344.16 115.375C1342.29 115.826 1341 116.794 1340.29 118.279C1339.58 119.698 1339.22 121.957 1339.22 125.055C1339.22 127.507 1339.58 129.443 1340.29 130.863C1341 132.282 1342.29 133.283 1344.16 133.863C1346.03 134.444 1348.68 134.735 1352.1 134.735Z" fill="#022DD8"/>
<path d="M1305.67 143.64C1301.41 143.64 1298.05 142.963 1295.6 141.608C1293.15 140.252 1291.41 137.961 1290.38 134.735C1289.34 131.508 1288.83 127.12 1288.83 121.57V73.7508H1276.63V64.8452H1298.51V121.57C1298.51 124.861 1298.73 127.475 1299.18 129.411C1299.64 131.347 1300.38 132.734 1301.41 133.573C1302.44 134.348 1303.86 134.735 1305.67 134.735C1306.9 134.735 1308.15 134.38 1309.45 133.67C1310.74 132.96 1312.48 131.669 1314.67 129.798L1320.09 138.026C1317.32 140.156 1314.9 141.608 1312.83 142.382C1310.77 143.221 1308.38 143.64 1305.67 143.64Z" fill="#022DD8"/>
<path d="M1215.2 142.285V64.8452H1236.01C1241.76 64.8452 1246.3 65.5228 1249.66 66.878C1253.08 68.2332 1255.53 70.3951 1257.02 73.3636C1258.5 76.2676 1259.24 80.1719 1259.24 85.0764C1259.24 87.9159 1259.02 90.3036 1258.57 92.2396C1258.18 94.1111 1257.5 95.6922 1256.53 96.9828C1255.57 98.2735 1254.27 99.4673 1252.66 100.564C1254.86 101.661 1256.6 102.984 1257.89 104.533C1259.24 106.082 1260.21 108.05 1260.79 110.438C1261.37 112.826 1261.66 115.859 1261.66 119.537C1261.66 125.023 1260.92 129.443 1259.44 132.799C1257.95 136.155 1255.5 138.575 1252.08 140.059C1248.72 141.543 1244.18 142.285 1238.43 142.285H1215.2ZM1224.88 133.38H1238.43C1241.98 133.38 1244.72 132.992 1246.66 132.218C1248.66 131.379 1250.05 129.959 1250.82 127.959C1251.6 125.894 1251.98 123.087 1251.98 119.537C1251.98 115.601 1251.6 112.664 1250.82 110.728C1250.05 108.728 1248.66 107.405 1246.66 106.76C1244.72 106.114 1241.98 105.792 1238.43 105.792H1224.88V133.38ZM1224.88 96.886H1236.01C1239.63 96.886 1242.4 96.6279 1244.34 96.1116C1246.27 95.5308 1247.63 94.4015 1248.4 92.7236C1249.18 91.0457 1249.56 88.4967 1249.56 85.0764C1249.56 82.1724 1249.18 79.9137 1248.4 78.3004C1247.69 76.6225 1246.34 75.4609 1244.34 74.8156C1242.4 74.1057 1239.63 73.7508 1236.01 73.7508H1224.88V96.886Z" fill="#022DD8"/>
<path d="M1127.77 143.64C1123.25 143.64 1119.6 142.866 1116.83 141.317C1114.05 139.704 1112.02 137.187 1110.73 133.767C1109.51 130.347 1108.89 125.861 1108.89 120.312V90.4972H1096.89V81.5916H1108.89V64.8452H1118.57V81.5916H1138.71V90.4972H1118.57V120.312C1118.57 125.797 1119.25 129.572 1120.6 131.637C1121.96 133.702 1124.35 134.735 1127.77 134.735C1130.09 134.735 1131.83 134.573 1133 134.251C1134.22 133.864 1135.13 133.218 1135.71 132.315C1136.35 131.411 1136.93 130.088 1137.45 128.346L1146.55 131.444C1145.64 134.477 1144.45 136.897 1142.97 138.704C1141.48 140.446 1139.51 141.704 1137.06 142.479C1134.67 143.253 1131.58 143.64 1127.77 143.64Z" fill="#022DD8"/>
<path d="M1061.79 143.64C1056.75 143.64 1052.75 142.898 1049.79 141.414C1046.82 139.865 1044.69 137.348 1043.4 133.864C1042.11 130.314 1041.46 125.603 1041.46 119.731V82.4629H1051.14V119.731C1051.14 123.732 1051.43 126.83 1052.01 129.024C1052.66 131.153 1053.75 132.638 1055.3 133.476C1056.85 134.315 1059.01 134.735 1061.79 134.735C1065.79 134.735 1068.85 134.38 1070.98 133.67C1073.18 132.96 1074.7 131.702 1075.53 129.895C1076.37 128.088 1076.79 125.571 1076.79 122.344V82.4629H1086.47V142.285H1076.79V140.252C1075.63 141.027 1074.34 141.672 1072.92 142.188C1071.5 142.705 1069.86 143.06 1067.98 143.253C1066.18 143.511 1064.11 143.64 1061.79 143.64Z" fill="#022DD8"/>
<path d="M1005.39 143.64C999.584 143.64 994.97 142.608 991.549 140.543C988.194 138.478 985.774 135.154 984.289 130.572C982.87 125.926 982.16 119.86 982.16 112.374C982.16 104.823 982.87 98.7573 984.289 94.1754C985.774 89.5936 988.194 86.2701 991.549 84.205C994.97 82.14 999.584 81.1074 1005.39 81.1074C1011.2 81.1074 1015.78 82.14 1019.14 84.205C1022.56 86.2701 1024.98 89.5936 1026.4 94.1754C1027.88 98.7573 1028.62 104.823 1028.62 112.374C1028.62 119.86 1027.88 125.926 1026.4 130.572C1024.98 135.154 1022.56 138.478 1019.14 140.543C1015.78 142.608 1011.2 143.64 1005.39 143.64ZM1005.39 134.735C1008.88 134.735 1011.59 134.057 1013.52 132.702C1015.52 131.347 1016.91 129.056 1017.69 125.829C1018.52 122.538 1018.94 118.053 1018.94 112.374C1018.94 106.63 1018.52 102.145 1017.69 98.9186C1016.91 95.692 1015.52 93.401 1013.52 92.0458C1011.59 90.6906 1008.88 90.013 1005.39 90.013C1001.91 90.013 999.164 90.6906 997.164 92.0458C995.228 93.401 993.84 95.692 993.001 98.9186C992.227 102.145 991.84 106.63 991.84 112.374C991.84 118.053 992.227 122.538 993.001 125.829C993.84 129.056 995.228 131.347 997.164 132.702C999.164 134.057 1001.91 134.735 1005.39 134.735Z" fill="#022DD8"/>
<path d="M948.511 143.64C944.833 143.64 941.639 143.318 938.928 142.672C936.282 142.092 933.927 141.091 931.862 139.672C929.797 138.187 927.796 136.251 925.86 133.864V64.8452H935.54V84.6892C937.153 83.4631 939.025 82.5596 941.154 81.9788C943.284 81.398 945.736 81.1076 948.511 81.1076C954.19 81.1076 958.643 82.1401 961.87 84.2052C965.161 86.2703 967.516 89.626 968.936 94.2724C970.356 98.8543 971.066 104.92 971.066 112.471C971.066 119.957 970.356 125.991 968.936 130.572C967.516 135.154 965.161 138.478 961.87 140.543C958.643 142.608 954.19 143.64 948.511 143.64ZM948.511 134.735C951.802 134.735 954.384 134.057 956.255 132.702C958.127 131.347 959.45 129.056 960.224 125.829C960.999 122.603 961.386 118.15 961.386 112.471C961.386 106.727 960.999 102.242 960.224 99.0156C959.45 95.7244 958.127 93.4012 956.255 92.046C954.384 90.6908 951.802 90.0132 948.511 90.0132C945.091 90.0132 942.445 90.4327 940.574 91.2716C938.702 92.046 937.379 93.4657 936.605 95.5308C935.895 97.5959 935.54 100.564 935.54 104.436V130.766C937.218 132.315 938.96 133.38 940.767 133.96C942.574 134.477 945.156 134.735 948.511 134.735Z" fill="#022DD8"/>
<path d="M862.591 142.285L884.177 64.8452H894.438L916.024 142.285H906.054L889.307 81.2044L872.561 142.285H862.591ZM872.658 123.603L874.981 114.697H903.634L905.957 123.603H872.658Z" fill="#022DD8"/>
<path d="M773.513 143.64C767.254 143.64 762.285 142.704 758.606 140.833C754.992 138.897 752.411 135.638 750.862 131.056C749.378 126.474 748.636 120.247 748.636 112.374C748.636 104.436 749.378 98.2088 750.862 93.6914C752.411 89.1096 754.992 85.8829 758.606 84.0114C762.285 82.0754 767.254 81.1074 773.513 81.1074C779.709 81.1074 784.549 82.14 788.033 84.205C791.583 86.2056 794.099 89.6581 795.584 94.5626C797.068 99.4672 797.81 106.179 797.81 114.697H751.443V105.791H787.937C787.937 101.79 787.485 98.6605 786.581 96.4018C785.742 94.0786 784.258 92.433 782.129 91.465C780.063 90.497 777.192 90.013 773.513 90.013C769.641 90.013 766.608 90.6906 764.414 92.0458C762.22 93.3365 760.639 95.5306 759.671 98.6282C758.767 101.726 758.316 106.017 758.316 111.503C758.316 117.375 758.767 122.022 759.671 125.442C760.639 128.798 762.22 131.185 764.414 132.605C766.608 134.025 769.641 134.735 773.513 134.735C775.772 134.735 777.74 134.476 779.418 133.96C781.161 133.379 782.774 132.476 784.258 131.25C785.742 129.959 787.291 128.217 788.905 126.023L796.649 131.153C794.519 134.315 792.389 136.8 790.26 138.607C788.13 140.414 785.742 141.704 783.096 142.479C780.451 143.253 777.256 143.64 773.513 143.64Z" fill="#022DD8"/>
<path d="M695.821 142.285V82.4626H705.501V88.9482C706.34 87.7221 707.469 86.5282 708.889 85.3666C710.309 84.1405 711.986 83.1402 713.922 82.3658C715.858 81.5269 717.956 81.1074 720.214 81.1074C723.764 81.1074 726.732 81.5914 729.12 82.5594C731.508 83.4629 733.541 84.9794 735.218 87.109C736.896 89.2386 738.413 92.1104 739.768 95.7242L731.056 99.693C730.217 97.1117 729.346 95.1434 728.442 93.7882C727.603 92.3685 726.539 91.4005 725.248 90.8842C724.022 90.3034 722.344 90.013 720.214 90.013C717.439 90.013 715.084 90.5616 713.148 91.6586C711.277 92.7557 709.76 94.2722 708.598 96.2082C707.501 98.0797 706.695 100.274 706.178 102.791C705.727 105.243 705.501 107.856 705.501 110.631V142.285H695.821Z" fill="#022DD8"/>
<path d="M657.139 143.64C651.331 143.64 646.717 142.608 643.296 140.543C639.941 138.478 637.521 135.154 636.036 130.572C634.617 125.926 633.907 119.86 633.907 112.374C633.907 104.823 634.617 98.7573 636.036 94.1754C637.521 89.5936 639.941 86.2701 643.296 84.205C646.717 82.14 651.331 81.1074 657.139 81.1074C662.947 81.1074 667.529 82.14 670.884 84.205C674.305 86.2701 676.725 89.5936 678.144 94.1754C679.629 98.7573 680.371 104.823 680.371 112.374C680.371 119.86 679.629 125.926 678.144 130.572C676.725 135.154 674.305 138.478 670.884 140.543C667.529 142.608 662.947 143.64 657.139 143.64ZM657.139 134.735C660.624 134.735 663.334 134.057 665.27 132.702C667.27 131.347 668.658 129.056 669.432 125.829C670.271 122.538 670.691 118.053 670.691 112.374C670.691 106.63 670.271 102.145 669.432 98.9186C668.658 95.692 667.27 93.401 665.27 92.0458C663.334 90.6906 660.624 90.013 657.139 90.013C653.654 90.013 650.911 90.6906 648.911 92.0458C646.975 93.401 645.587 95.692 644.748 98.9186C643.974 102.145 643.587 106.63 643.587 112.374C643.587 118.053 643.974 122.538 644.748 125.829C645.587 129.056 646.975 131.347 648.911 132.702C650.911 134.057 653.654 134.735 657.139 134.735Z" fill="#022DD8"/>
<path d="M573.444 142.285L574.8 64.8452H583.899L599.096 103.178L614.294 64.8452H623.393L624.748 142.285H615.068L614.1 89.8196L603.259 119.15H594.934L584.092 89.8196L583.124 142.285H573.444Z" fill="#022DD8"/>
<path d="M483.302 143.64C477.043 143.64 472.074 142.704 468.395 140.833C464.781 138.897 462.2 135.638 460.651 131.056C459.167 126.474 458.425 120.247 458.425 112.374C458.425 104.436 459.167 98.2088 460.651 93.6914C462.2 89.1096 464.781 85.8829 468.395 84.0114C472.074 82.0754 477.043 81.1074 483.302 81.1074C489.498 81.1074 494.338 82.14 497.822 84.205C501.372 86.2056 503.889 89.6581 505.373 94.5626C506.857 99.4672 507.599 106.179 507.599 114.697H461.232V105.791H497.726C497.726 101.79 497.274 98.6605 496.37 96.4018C495.531 94.0786 494.047 92.433 491.918 91.465C489.853 90.497 486.981 90.013 483.302 90.013C479.43 90.013 476.397 90.6906 474.203 92.0458C472.009 93.3365 470.428 95.5306 469.46 98.6282C468.557 101.726 468.105 106.017 468.105 111.503C468.105 117.375 468.557 122.022 469.46 125.442C470.428 128.798 472.009 131.185 474.203 132.605C476.397 134.025 479.43 134.735 483.302 134.735C485.561 134.735 487.529 134.476 489.207 133.96C490.95 133.379 492.563 132.476 494.047 131.25C495.531 129.959 497.08 128.217 498.694 126.023L506.438 131.153C504.308 134.315 502.178 136.8 500.049 138.607C497.919 140.414 495.531 141.704 492.886 142.479C490.24 143.253 487.045 143.64 483.302 143.64Z" fill="#022DD8"/>
<path d="M435.037 143.64C430.778 143.64 427.422 142.963 424.97 141.608C422.518 140.252 420.775 137.961 419.743 134.735C418.71 131.508 418.194 127.12 418.194 121.57V73.7508H405.997V64.8452H427.874V121.57C427.874 124.861 428.1 127.475 428.551 129.411C429.003 131.347 429.745 132.734 430.778 133.573C431.81 134.348 433.23 134.735 435.037 134.735C436.263 134.735 437.522 134.38 438.812 133.67C440.103 132.96 441.845 131.669 444.039 129.798L449.46 138.026C446.685 140.156 444.265 141.608 442.2 142.382C440.135 143.221 437.747 143.64 435.037 143.64Z" fill="#022DD8"/>
<path d="M373.22 143.64C368.702 143.64 365.056 142.866 362.281 141.317C359.506 139.704 357.473 137.187 356.183 133.767C354.957 130.347 354.344 125.861 354.344 120.312V90.4972H342.34V81.5916H354.344V64.8452H364.024V81.5916H384.158V90.4972H364.024V120.312C364.024 125.797 364.701 129.572 366.056 131.637C367.412 133.702 369.799 134.735 373.22 134.735C375.543 134.735 377.285 134.573 378.447 134.251C379.673 133.864 380.576 133.218 381.157 132.315C381.802 131.411 382.383 130.088 382.9 128.346L391.999 131.444C391.095 134.477 389.901 136.897 388.417 138.704C386.933 140.446 384.965 141.704 382.512 142.479C380.125 143.253 377.027 143.64 373.22 143.64Z" fill="#022DD8"/>
<path d="M315.178 143.64C310.66 143.64 307.014 142.866 304.239 141.317C301.464 139.704 299.431 137.187 298.141 133.767C296.915 130.347 296.302 125.861 296.302 120.312V90.4972H284.298V81.5916H296.302V64.8452H305.982V81.5916H326.116V90.4972H305.982V120.312C305.982 125.797 306.659 129.572 308.014 131.637C309.37 133.702 311.757 134.735 315.178 134.735C317.501 134.735 319.243 134.573 320.405 134.251C321.631 133.864 322.534 133.218 323.115 132.315C323.76 131.411 324.341 130.088 324.858 128.346L333.957 131.444C333.053 134.477 331.859 136.897 330.375 138.704C328.891 140.446 326.923 141.704 324.47 142.479C322.083 143.253 318.985 143.64 315.178 143.64Z" fill="#022DD8"/>
<path d="M248.52 142.285V85.2698L254.618 91.3682H236.323V82.4626H258.2V142.285H248.52ZM231.58 142.285V133.379H275.14V142.285H231.58ZM251.327 72.8794C248.359 72.8794 246.326 72.3631 245.229 71.3306C244.132 70.298 243.583 68.3943 243.583 65.6194C243.583 62.8444 244.132 60.9407 245.229 59.9082C246.326 58.8756 248.359 58.3594 251.327 58.3594C254.296 58.3594 256.329 58.8756 257.426 59.9082C258.523 60.9407 259.071 62.8444 259.071 65.6194C259.071 68.3943 258.523 70.298 257.426 71.3306C256.329 72.3631 254.296 72.8794 251.327 72.8794Z" fill="#022DD8"/>
<path d="M173.054 142.285V64.8452H182.734V133.38H215.162V142.285H173.054Z" fill="#022DD8"/>
<path d="M50 142.285L71.5864 64.8452H81.8472L103.434 142.285H93.4632L76.7168 81.2044L59.9704 142.285H50ZM60.0672 123.603L62.3904 114.697H91.0432L93.3664 123.603H60.0672Z" fill="#022DD8"/>
<path opacity="0.3" d="M1646.32 101C1646.32 129.167 1623.48 152 1595.32 152C1567.15 152 1544.32 129.167 1544.32 101C1544.32 72.8327 1567.15 50 1595.32 50C1623.48 50 1646.32 72.8327 1646.32 101Z" fill="#022DD8"/>
<path d="M1599.86 60.4499C1600.52 60.5236 1601.19 60.4654 1601.84 60.2787C1602.48 60.092 1603.08 59.7804 1603.6 59.3618C1604.13 58.9432 1604.56 58.4256 1604.89 57.8388C1605.21 57.2519 1605.41 56.6072 1605.49 55.9415C1605.56 55.2758 1605.5 54.6021 1605.31 53.9588C1605.13 53.3156 1604.82 52.7154 1604.4 52.1926C1603.98 51.6697 1603.46 51.2345 1602.87 50.9117C1602.29 50.5888 1601.64 50.3848 1600.98 50.3111L1599.86 60.4499ZM1646.01 95.339C1645.86 93.9945 1645.18 92.7642 1644.12 91.9187C1643.07 91.0732 1641.72 90.6818 1640.37 90.8306C1639.03 90.9794 1637.8 91.6562 1636.95 92.7121C1636.11 93.768 1635.72 95.1165 1635.87 96.461L1646.01 95.339ZM1591.49 86.1794C1592.15 86.03 1592.78 85.7481 1593.34 85.3506C1593.89 84.9531 1594.36 84.448 1594.72 83.8653C1595.08 83.2827 1595.31 82.6343 1595.41 81.9587C1595.52 81.2831 1595.48 80.594 1595.31 79.9324C1595.14 79.2708 1594.84 78.6501 1594.42 78.1072C1594.01 77.5643 1593.49 77.1103 1592.9 76.772C1592.3 76.4338 1591.65 76.2182 1590.97 76.1381C1590.29 76.058 1589.6 76.115 1588.95 76.3058L1591.49 86.1794ZM1620.01 107.37C1620.2 106.714 1620.26 106.026 1620.18 105.348C1620.1 104.669 1619.88 104.014 1619.54 103.42C1619.21 102.827 1618.75 102.307 1618.21 101.893C1617.67 101.478 1617.05 101.177 1616.38 101.007C1615.72 100.836 1615.03 100.801 1614.36 100.902C1613.68 101.003 1613.03 101.239 1612.45 101.596C1611.87 101.953 1611.36 102.423 1610.97 102.978C1610.57 103.534 1610.29 104.164 1610.14 104.83L1620.01 107.37ZM1608.51 87.8114H1603.41C1603.41 89.164 1603.94 90.4612 1604.9 91.4176C1605.86 92.3741 1607.15 92.9114 1608.51 92.9114V87.8114ZM1608.51 73.3886L1604.9 69.7778C1604.43 70.2519 1604.05 70.8148 1603.79 71.4344C1603.54 72.054 1603.4 72.7181 1603.41 73.3886H1608.51ZM1626.53 55.355H1631.63C1631.63 54.3465 1631.33 53.3607 1630.77 52.5222C1630.21 51.6837 1629.41 51.0302 1628.48 50.6442C1627.55 50.2583 1626.52 50.1573 1625.53 50.354C1624.54 50.5507 1623.64 51.0363 1622.92 51.7493L1626.53 55.355ZM1626.53 69.7778H1621.43C1621.43 71.1304 1621.97 72.4276 1622.92 73.384C1623.88 74.3405 1625.18 74.8778 1626.53 74.8778V69.7778ZM1640.96 69.7778L1644.56 73.3886C1645.28 72.6756 1645.76 71.7665 1645.96 70.7765C1646.16 69.7865 1646.06 68.7601 1645.67 67.8272C1645.29 66.8944 1644.63 66.0972 1643.79 65.5365C1642.95 64.9759 1641.97 64.677 1640.96 64.6778V69.7778ZM1622.92 87.8114V92.9114C1624.28 92.9111 1625.57 92.3736 1626.53 91.4171L1622.92 87.8114ZM1610.61 92.9114C1611.52 91.9458 1612.01 90.6654 1611.99 89.341C1611.97 88.0166 1611.44 86.7522 1610.5 85.8152C1609.56 84.8783 1608.3 84.3424 1606.98 84.3209C1605.65 84.2994 1604.37 84.794 1603.41 85.7L1610.61 92.9114ZM1594.08 95.0228C1593.59 95.4933 1593.2 96.056 1592.93 96.6782C1592.67 97.3005 1592.53 97.9697 1592.52 98.6469C1592.51 99.324 1592.64 99.9956 1592.9 100.622C1593.16 101.249 1593.54 101.819 1594.01 102.297C1594.49 102.776 1595.06 103.155 1595.69 103.411C1596.32 103.668 1596.99 103.797 1597.66 103.791C1598.34 103.785 1599.01 103.644 1599.63 103.377C1600.26 103.11 1600.82 102.721 1601.29 102.234L1594.08 95.0228ZM1636.12 101C1636.12 111.821 1631.82 122.198 1624.17 129.85C1616.51 137.501 1606.14 141.8 1595.32 141.8V152C1623.48 152 1646.32 129.167 1646.32 101H1636.12ZM1595.32 141.8C1584.5 141.8 1574.12 137.501 1566.47 129.85C1558.81 122.198 1554.52 111.821 1554.52 101H1544.32C1544.32 129.167 1567.15 152 1595.32 152V141.8ZM1554.52 101C1554.52 90.1792 1558.81 79.8015 1566.47 72.15C1574.12 64.4986 1584.5 60.2 1595.32 60.2V50C1567.15 50 1544.32 72.8327 1544.32 101H1554.52ZM1595.32 60.2C1596.85 60.2 1598.37 60.2867 1599.86 60.4499L1600.98 50.3111C1599.1 50.1036 1597.21 49.9997 1595.32 50V60.2ZM1635.87 96.461C1636.03 97.9502 1636.12 99.4649 1636.12 101H1646.32C1646.32 99.0875 1646.21 97.2005 1646.01 95.339L1635.87 96.461ZM1595.32 116.3C1591.26 116.3 1587.37 114.688 1584.5 111.819C1581.63 108.949 1580.02 105.058 1580.02 101H1569.82C1569.82 107.763 1572.5 114.249 1577.29 119.031C1582.07 123.813 1588.55 126.5 1595.32 126.5V116.3ZM1580.02 101C1580.02 93.8804 1584.89 87.8828 1591.49 86.1794L1588.94 76.3058C1583.47 77.7209 1578.62 80.9141 1575.16 85.3838C1571.7 89.8535 1569.82 95.3465 1569.82 101H1580.02ZM1610.14 104.825C1609.29 108.109 1607.37 111.019 1604.69 113.096C1602.01 115.173 1598.71 116.3 1595.32 116.3V126.5C1600.97 126.499 1606.46 124.62 1610.93 121.159C1615.4 117.697 1618.6 112.849 1620.01 107.375L1610.14 104.825ZM1613.61 87.8114V73.3886H1603.41V87.8114H1613.61ZM1612.11 76.9943L1630.14 58.9607L1622.92 51.7493L1604.9 69.7778L1612.11 76.9943ZM1621.43 55.355V69.7778H1631.63V55.355H1621.43ZM1626.53 74.8778H1640.96V64.6778H1626.53V74.8778ZM1637.35 66.1721L1619.32 84.2057L1626.53 91.4171L1644.56 73.3886L1637.35 66.1721ZM1622.92 82.7114H1608.5V92.9114H1622.92V82.7114ZM1603.41 85.7L1594.08 95.0228L1601.29 102.234L1610.62 92.9114L1603.41 85.7Z" fill="#022DD8"/>
</svg>
