<svg width="200" height="200" viewBox="0 0 200 200" fill="none" xmlns="http://www.w3.org/2000/svg">
<rect width="200" height="200" rx="100" fill="#022DD8"/>
<g style="mix-blend-mode:plus-lighter">
<g clip-path="url(#clip0_67_35)">
<rect x="15" y="14" width="171" height="171" rx="6.67969" fill="black"/>
<path d="M120.105 31.6011C120.452 28.4215 124.146 26.5579 125.95 26.0235H131.36L142.482 30.4655L144.619 38.1472L143.217 48.4005L147.625 52.4083L151.466 60.0899L148.894 69.9425L143.217 73.0819L138.374 61.6597L134.667 56.8169L129.523 60.0899L120.105 61.6597L114.26 60.0899L108.716 57.5517L97.7279 61.6597L84.3352 62.3944L76.6201 58.5202L75.351 67.5044L70.074 73.9169V84.905L68.0701 96.3272L62.2254 93.3214L55.9799 90.3155L50.2687 91.8853L45.5596 87.9108L42.7207 73.0819L45.5596 64.0978L42.7207 54.2452L44.5576 48.4005L54.4102 40.5853H66.2332L68.9385 34.0058L76.6201 27.1925L81.6299 23.1847L97.7279 21.7485L108.716 26.0235L120.105 31.6011Z" fill="#B3B3B3"/>
<path d="M37.2768 169.303L65.0977 152.336L67.2352 153.906L84.4688 165.028L99.999 168.434L111.855 166.297L116.264 161.888V155.609L131.928 161.888L148.627 173.444L154.605 183.564V187.973L165.427 192.949L26.0215 192.114L31.2984 178.688L37.2768 169.303Z" fill="#1C1C19"/>
<path d="M69.5061 91.3174L66.9344 96.8949L53.2411 91.3174L46.1272 96.3271L46.5614 110.154L53.2411 118.704L62.6594 121.242L69.5061 118.704V144.922L65.2311 152.036L75.6514 159.617L90.0461 167.867H107.848L116.832 161.321L110.853 148.763L116.832 147.059L127.252 140.513L138.374 133.8L144.352 118.704L147.191 106.013L144.352 92.3193V85.6063V76.7891L139.509 62.9621L134.8 57.251L127.953 61.6596L115.963 60.524L107.848 57.251L99.7317 61.6596H85.4706L77.7889 59.3885L75.6514 66.3688L69.5061 74.9188V82.6338V91.3174Z" fill="#F9F7F3"/>
<path d="M93.2878 39.3298C98.5685 36.1705 109.019 37.2208 110.597 46.4804C111.07 49.2604 111.644 53.2279 106.825 57.796" stroke="#797979" stroke-width="3.7719" stroke-linecap="round" stroke-linejoin="round"/>
<path d="M76.9429 58.4663C77.2223 63.9006 74.9815 74.8112 63.7832 74.9788" stroke="black" stroke-width="3.7719" stroke-linecap="round" stroke-linejoin="round"/>
<path d="M69.022 73.9312C70.5447 77.6891 72.2575 87.9626 66.9265 98.9933" stroke="black" stroke-width="3.7719" stroke-linecap="round" stroke-linejoin="round"/>
<path d="M67.3455 96.8982C63.392 92.7072 54.06 86.295 48.3603 94.1741C41.2356 104.023 48.3603 116.512 55.6526 119.865C62.9449 123.218 69.6505 118.608 69.6505 118.608C70.6284 123.567 75.4257 134.902 86.7917 140.568C100.999 147.651 117.302 149.537 129.414 140.568C141.526 131.6 146.304 116.303 146.513 105.238C146.681 96.3869 144.655 90.8492 143.622 89.1868C144.655 83.0539 144.678 68.2402 135.156 56.7065" stroke="black" stroke-width="3.7719" stroke-linecap="round" stroke-linejoin="round"/>
<path d="M142.993 48.0308C148.776 52.4173 157.293 63.4033 143.412 74.2664" stroke="black" stroke-width="3.7719" stroke-linecap="round" stroke-linejoin="round"/>
<path d="M123.966 36.2962C117.065 28.2215 98.4176 14.6203 79.0384 24.8128C76.1746 26.2098 69.6171 31.2586 66.2978 40.2776C55.8622 39.0203 37.0782 42.0211 45.4266 64.0825C42.2834 68.6786 38.7546 80.8381 49.7853 92.707" stroke="black" stroke-width="3.7719" stroke-linecap="round" stroke-linejoin="round"/>
<path d="M86.7917 81.0141C89.7254 79.2678 97.0094 76.1525 102.676 77.6613" stroke="black" stroke-width="3.7719" stroke-linecap="round" stroke-linejoin="round"/>
<path d="M125.642 76.6137C127.249 75.6358 132.004 74.2668 138.173 76.6137" stroke="black" stroke-width="3.7719" stroke-linecap="round" stroke-linejoin="round"/>
<path d="M120.739 100.502C121.032 101.466 121.619 102.212 121.954 102.681C122.733 103.771 131.384 111.021 121.368 113.787" stroke="black" stroke-width="3.7719" stroke-linecap="round" stroke-linejoin="round"/>
<path d="M98.1914 118.901C102.145 122.421 113.187 128.565 125.726 124.978" stroke="black" stroke-width="3.7719" stroke-linecap="round" stroke-linejoin="round"/>
<path d="M56.9519 101.214C58.9356 103.03 63.054 107.769 63.6575 112.195" stroke="black" stroke-width="3.7719" stroke-linecap="round" stroke-linejoin="round"/>
<path d="M59.9274 104.945C59.145 105.979 57.5385 108.298 57.3708 109.303" stroke="black" stroke-width="3.7719" stroke-linecap="round" stroke-linejoin="round"/>
<path d="M69.7347 120.284V144.172C69.5531 145.961 68.1254 150.3 63.8673 153.351C59.6093 156.402 47.5923 163.2 42.1161 166.217C39.0287 167.712 32.0661 173.132 28.9144 182.855C25.7628 192.578 21.2589 196.797 19.4009 197.691" stroke="black" stroke-width="3.7719" stroke-linecap="round" stroke-linejoin="round"/>
<path d="M114.41 146.812L113.572 154.817C124.832 157.248 149.271 167.415 156.949 188.639" stroke="black" stroke-width="3.7719" stroke-linecap="round" stroke-linejoin="round"/>
<path d="M113.782 147.902V152.68C88.7169 149.65 77.3418 138.569 73.3594 130.635L89.474 144.047L113.782 147.902Z" fill="black"/>
<path d="M71.7461 126.025C71.978 127.337 72.4942 128.912 73.3594 130.635M73.3594 130.635C77.3418 138.569 88.7169 149.65 113.782 152.68V147.902L89.474 144.047L73.3594 130.635Z" stroke="black" stroke-width="3.7719" stroke-linecap="round" stroke-linejoin="round"/>
<path d="M66.4236 151.926C75.843 161.529 98.7682 175.757 113.866 163.87C115.987 162.2 116.967 160.14 117.512 156.745" stroke="black" stroke-width="3.7719" stroke-linecap="round" stroke-linejoin="round"/>
<path d="M113.027 151.422C112.245 153.099 111.703 157.131 115.793 159.846" stroke="black" stroke-width="3.7719" stroke-linecap="round" stroke-linejoin="round"/>
<path d="M54.0181 177.072C56.826 180.201 61.7463 188.111 58.9634 194.716" stroke="black" stroke-width="3.7719" stroke-linecap="round" stroke-linejoin="round"/>
<path d="M119.637 30.3984C126.584 17.6735 143.152 27.0756 144.46 36.2958C146.094 47.8211 138.425 55.5744 128.366 60.3521C118.308 65.1299 108.082 56.7898 108.082 56.7898C102.662 61.5256 87.8478 67.7786 71.9556 54.9038" stroke="black" stroke-width="3.7719" stroke-linecap="round" stroke-linejoin="round"/>
<path d="M102.089 95.1796C102.089 99.3228 99.1681 102.682 96.5988 102.682C94.0296 102.682 91.1086 100.161 91.1086 96.0178C91.1086 91.8746 94.0296 87.6777 96.5988 87.6777C99.1681 87.6777 102.089 91.0364 102.089 95.1796Z" fill="black"/>
<path d="M124.469 93.5871C124.469 89.6754 127.234 86.5044 129.666 86.5044C132.098 86.5044 134.863 88.884 134.863 92.7958C134.863 96.7075 132.098 100.67 129.666 100.67C127.234 100.67 124.469 97.4989 124.469 93.5871Z" fill="black"/>
<path d="M46.7285 164.16C61.2457 177.975 103.84 196.489 144.686 171.173" stroke="black" stroke-width="3.00586" stroke-linecap="round" stroke-linejoin="round"/>
</g>
</g>
<defs>
<clipPath id="clip0_67_35">
<rect x="15" y="14" width="171" height="171" rx="85.5" fill="white"/>
</clipPath>
</defs>
</svg>
