<svg width="451" height="231" viewBox="0 0 451 231" fill="none" xmlns="http://www.w3.org/2000/svg">
<rect x="5" y="5" width="441" height="221" rx="25" fill="#02D898" fill-opacity="0.1"/>
<rect x="5" y="5" width="441" height="221" rx="25" stroke="#02D898" stroke-width="10"/>
<path d="M87.0664 157V79.56H110.202C115.945 79.56 120.495 80.3021 123.85 81.7864C127.271 83.2707 129.723 85.6907 131.207 89.0464C132.691 92.4021 133.434 96.8549 133.434 102.405C133.434 108.277 132.691 112.891 131.207 116.247C129.723 119.538 127.271 121.862 123.85 123.217C120.495 124.572 115.945 125.25 110.202 125.25H89.7768V116.344H110.202C113.751 116.344 116.494 116.021 118.43 115.376C120.43 114.666 121.818 113.311 122.592 111.31C123.366 109.31 123.754 106.341 123.754 102.405C123.754 98.7909 123.366 95.9837 122.592 93.9832C121.818 91.9181 120.43 90.4984 118.43 89.724C116.494 88.8851 113.751 88.4656 110.202 88.4656H96.7464V157H87.0664ZM125.883 157L99.5536 118.861H110.879L137.112 157H125.883ZM167.373 158.355C161.113 158.355 156.144 157.419 152.465 155.548C148.852 153.612 146.27 150.353 144.721 145.771C143.237 141.189 142.495 134.962 142.495 127.089C142.495 119.151 143.237 112.924 144.721 108.406C146.27 103.825 148.852 100.598 152.465 98.7264C156.144 96.7904 161.113 95.8224 167.373 95.8224C173.568 95.8224 178.408 96.8549 181.893 98.92C185.442 100.921 187.959 104.373 189.443 109.278C190.927 114.182 191.669 120.894 191.669 129.412H145.302V120.506H181.796C181.796 116.505 181.344 113.375 180.441 111.117C179.602 108.794 178.117 107.148 175.988 106.18C173.923 105.212 171.051 104.728 167.373 104.728C163.501 104.728 160.468 105.406 158.273 106.761C156.079 108.051 154.498 110.246 153.53 113.343C152.627 116.441 152.175 120.732 152.175 126.218C152.175 132.09 152.627 136.737 153.53 140.157C154.498 143.513 156.079 145.9 158.273 147.32C160.468 148.74 163.501 149.45 167.373 149.45C169.631 149.45 171.6 149.191 173.277 148.675C175.02 148.094 176.633 147.191 178.117 145.965C179.602 144.674 181.15 142.932 182.764 140.738L190.508 145.868C188.378 149.03 186.249 151.515 184.119 153.322C181.989 155.129 179.602 156.419 176.956 157.194C174.31 157.968 171.116 158.355 167.373 158.355ZM223.576 158.355C218.026 158.355 213.605 157.742 210.314 156.516C207.023 155.29 204.635 153.322 203.151 150.611C201.731 147.901 201.021 144.287 201.021 139.77C201.021 134.736 201.731 130.832 203.151 128.057C204.635 125.217 207.023 123.249 210.314 122.152C213.605 121.055 218.026 120.506 223.576 120.506H236.45V117.409C236.45 114.44 236.063 112.117 235.288 110.439C234.579 108.697 233.288 107.471 231.416 106.761C229.609 106.051 226.996 105.696 223.576 105.696C220.865 105.696 218.736 105.986 217.187 106.567C215.703 107.083 214.541 108.084 213.702 109.568C212.863 111.052 212.089 113.15 211.379 115.86L202.086 113.537C203.183 109.342 204.571 105.954 206.248 103.373C207.926 100.791 210.153 98.8877 212.928 97.6616C215.703 96.4355 219.252 95.8224 223.576 95.8224C229.19 95.8224 233.643 96.5968 236.934 98.1456C240.225 99.6944 242.581 102.082 244 105.309C245.42 108.471 246.13 112.504 246.13 117.409V140.738C246.13 143.125 246.324 144.868 246.711 145.965C247.098 146.997 247.84 147.643 248.937 147.901C250.034 148.094 251.615 148.127 253.68 147.998V156.903C250.002 157.097 247.033 156.839 244.775 156.129C242.581 155.419 240.935 154.096 239.838 152.16C238.676 153.644 237.321 154.87 235.772 155.838C234.288 156.742 232.546 157.387 230.545 157.774C228.545 158.162 226.221 158.355 223.576 158.355ZM223.576 149.45C226.996 149.45 229.609 149.03 231.416 148.191C233.288 147.352 234.579 145.9 235.288 143.835C236.063 141.706 236.45 138.802 236.45 135.123V129.412H223.576C220.155 129.412 217.509 129.638 215.638 130.09C213.767 130.541 212.476 131.509 211.766 132.994C211.056 134.413 210.701 136.672 210.701 139.77C210.701 142.222 211.056 144.158 211.766 145.578C212.476 146.997 213.767 147.998 215.638 148.578C217.509 149.159 220.155 149.45 223.576 149.45ZM284.909 158.355C278.649 158.355 273.68 157.323 270.002 155.258C266.323 153.193 263.678 149.869 262.064 145.287C260.515 140.705 259.741 134.639 259.741 127.089C259.741 119.538 260.548 113.472 262.161 108.89C263.774 104.309 266.42 100.985 270.099 98.92C273.842 96.8549 278.907 95.8224 285.296 95.8224C288.91 95.8224 291.975 96.2419 294.492 97.0808C297.074 97.8552 299.364 99.1781 301.365 101.05C303.43 102.857 305.463 105.373 307.463 108.6L299.332 113.44C297.848 111.117 296.493 109.342 295.267 108.116C294.04 106.825 292.653 105.954 291.104 105.502C289.62 104.986 287.684 104.728 285.296 104.728C281.231 104.728 278.036 105.406 275.713 106.761C273.39 108.116 271.744 110.407 270.776 113.634C269.873 116.86 269.421 121.345 269.421 127.089C269.421 132.768 269.873 137.253 270.776 140.544C271.68 143.771 273.261 146.062 275.519 147.417C277.778 148.772 280.908 149.45 284.909 149.45C287.232 149.45 289.168 149.191 290.717 148.675C292.33 148.159 293.782 147.288 295.073 146.062C296.428 144.771 297.88 142.964 299.429 140.641L307.463 145.481C305.463 148.643 303.398 151.192 301.268 153.128C299.203 154.999 296.88 156.322 294.299 157.097C291.717 157.936 288.587 158.355 284.909 158.355ZM347.501 158.355C342.983 158.355 339.337 157.581 336.562 156.032C333.787 154.419 331.755 151.902 330.464 148.482C329.238 145.061 328.625 140.576 328.625 135.026V105.212H316.622V96.3064H328.625V79.56H338.305V96.3064H358.439V105.212H338.305V135.026C338.305 140.512 338.982 144.287 340.338 146.352C341.693 148.417 344.08 149.45 347.501 149.45C349.824 149.45 351.566 149.288 352.728 148.966C353.954 148.578 354.858 147.933 355.438 147.03C356.084 146.126 356.664 144.803 357.181 143.061L366.28 146.158C365.376 149.191 364.183 151.611 362.698 153.418C361.214 155.161 359.246 156.419 356.794 157.194C354.406 157.968 351.308 158.355 347.501 158.355Z" fill="#02D898"/>
</svg>
