<svg width="602" height="231" viewBox="0 0 602 231" fill="none" xmlns="http://www.w3.org/2000/svg">
<rect width="601.932" height="231" rx="30" fill="#0B1118"/>
<g opacity="0.3">
<path d="M147.948 125.593C132.621 152.143 114.892 164.78 105.233 159.203C95.5789 153.637 97.6531 131.957 112.985 105.406C128.311 78.8613 146.04 66.2196 155.699 71.7961C165.353 77.3726 163.279 99.0427 147.948 125.593Z" fill="#F9FAFC"/>
<path d="M130.466 95.314C161.124 95.314 180.932 104.352 180.932 115.5C180.932 126.653 161.124 135.687 130.466 135.687C99.8079 135.687 80 126.653 80 115.5C80 104.352 99.8079 95.314 130.466 95.314Z" fill="#F9FAFC"/>
<path d="M147.948 105.407C132.621 78.8566 114.892 66.2199 105.233 71.7964C95.5789 77.3679 97.6531 99.043 112.985 125.593C128.311 152.143 146.04 164.78 155.699 159.204C165.353 153.632 163.279 131.957 147.948 105.407Z" fill="#F9FAFC"/>
</g>
<path d="M132.989 115.5C132.989 116.17 132.723 116.811 132.25 117.285C131.777 117.758 131.135 118.024 130.466 118.024C129.796 118.024 129.155 117.758 128.681 117.285C128.208 116.811 127.942 116.17 127.942 115.5C127.942 114.831 128.208 114.189 128.681 113.716C129.155 113.243 129.796 112.977 130.466 112.977C131.135 112.977 131.777 113.243 132.25 113.716C132.723 114.189 132.989 114.831 132.989 115.5Z" fill="#F9FAFC"/>
<path d="M147.948 125.593C132.621 152.143 114.892 164.78 105.233 159.203C95.5789 153.637 97.6531 131.957 112.985 105.406C128.311 78.8613 146.04 66.2196 155.699 71.7961C165.353 77.3726 163.279 99.0427 147.948 125.593Z" stroke="#F9FAFC" stroke-width="10.0932"/>
<path d="M130.466 95.314C161.124 95.314 180.932 104.352 180.932 115.5C180.932 126.653 161.124 135.687 130.466 135.687C99.8079 135.687 80 126.653 80 115.5C80 104.352 99.8079 95.314 130.466 95.314Z" stroke="#F9FAFC" stroke-width="10.0932"/>
<path d="M147.948 105.407C132.621 78.8566 114.892 66.2199 105.233 71.7964C95.5789 77.3679 97.6531 99.043 112.985 125.593C128.311 152.143 146.04 164.78 155.699 159.204C165.353 153.632 163.279 131.957 147.948 105.407Z" stroke="#F9FAFC" stroke-width="10.0932"/>
<path d="M132.989 115.5C132.989 116.17 132.723 116.811 132.25 117.285C131.777 117.758 131.135 118.024 130.466 118.024C129.796 118.024 129.155 117.758 128.681 117.285C128.208 116.811 127.942 116.17 127.942 115.5C127.942 114.831 128.208 114.189 128.681 113.716C129.155 113.243 129.796 112.977 130.466 112.977C131.135 112.977 131.777 113.243 132.25 113.716C132.723 114.189 132.989 114.831 132.989 115.5Z" stroke="#F9FAFC" stroke-width="10.0932"/>
<path d="M237.999 157V79.56H261.134C266.877 79.56 271.427 80.3021 274.783 81.7864C278.203 83.2707 280.655 85.6907 282.139 89.0464C283.624 92.4021 284.366 96.8549 284.366 102.405C284.366 108.277 283.624 112.891 282.139 116.247C280.655 119.538 278.203 121.862 274.783 123.217C271.427 124.572 266.877 125.25 261.134 125.25H240.709V116.344H261.134C264.683 116.344 267.426 116.021 269.362 115.376C271.362 114.666 272.75 113.311 273.524 111.31C274.299 109.31 274.686 106.341 274.686 102.405C274.686 98.7909 274.299 95.9837 273.524 93.9832C272.75 91.9181 271.362 90.4984 269.362 89.724C267.426 88.8851 264.683 88.4656 261.134 88.4656H247.679V157H237.999ZM276.815 157L250.486 118.861H261.811L288.044 157H276.815ZM318.305 158.355C312.045 158.355 307.076 157.419 303.398 155.548C299.784 153.612 297.202 150.353 295.654 145.771C294.169 141.189 293.427 134.962 293.427 127.089C293.427 119.151 294.169 112.924 295.654 108.406C297.202 103.825 299.784 100.598 303.398 98.7264C307.076 96.7904 312.045 95.8224 318.305 95.8224C324.5 95.8224 329.34 96.8549 332.825 98.92C336.374 100.921 338.891 104.373 340.375 109.278C341.859 114.182 342.602 120.894 342.602 129.412H296.234V120.506H332.728C332.728 116.505 332.276 113.375 331.373 111.117C330.534 108.794 329.05 107.148 326.92 106.18C324.855 105.212 321.983 104.728 318.305 104.728C314.433 104.728 311.4 105.406 309.206 106.761C307.011 108.051 305.43 110.246 304.462 113.343C303.559 116.441 303.107 120.732 303.107 126.218C303.107 132.09 303.559 136.737 304.462 140.157C305.43 143.513 307.011 145.9 309.206 147.32C311.4 148.74 314.433 149.45 318.305 149.45C320.563 149.45 322.532 149.191 324.21 148.675C325.952 148.094 327.565 147.191 329.05 145.965C330.534 144.674 332.083 142.932 333.696 140.738L341.44 145.868C339.31 149.03 337.181 151.515 335.051 153.322C332.922 155.129 330.534 156.419 327.888 157.194C325.242 157.968 322.048 158.355 318.305 158.355ZM374.508 158.355C368.958 158.355 364.537 157.742 361.246 156.516C357.955 155.29 355.567 153.322 354.083 150.611C352.663 147.901 351.953 144.287 351.953 139.77C351.953 134.736 352.663 130.832 354.083 128.057C355.567 125.217 357.955 123.249 361.246 122.152C364.537 121.055 368.958 120.506 374.508 120.506H387.382V117.409C387.382 114.44 386.995 112.117 386.221 110.439C385.511 108.697 384.22 107.471 382.349 106.761C380.542 106.051 377.928 105.696 374.508 105.696C371.797 105.696 369.668 105.986 368.119 106.567C366.635 107.083 365.473 108.084 364.634 109.568C363.795 111.052 363.021 113.15 362.311 115.86L353.018 113.537C354.115 109.342 355.503 105.954 357.181 103.373C358.858 100.791 361.085 98.8877 363.86 97.6616C366.635 96.4355 370.184 95.8224 374.508 95.8224C380.122 95.8224 384.575 96.5968 387.866 98.1456C391.157 99.6944 393.513 102.082 394.933 105.309C396.352 108.471 397.062 112.504 397.062 117.409V140.738C397.062 143.125 397.256 144.868 397.643 145.965C398.03 146.997 398.772 147.643 399.869 147.901C400.966 148.094 402.547 148.127 404.613 147.998V156.903C400.934 157.097 397.966 156.839 395.707 156.129C393.513 155.419 391.867 154.096 390.77 152.16C389.609 153.644 388.253 154.87 386.705 155.838C385.22 156.742 383.478 157.387 381.477 157.774C379.477 158.162 377.154 158.355 374.508 158.355ZM374.508 149.45C377.928 149.45 380.542 149.03 382.349 148.191C384.22 147.352 385.511 145.9 386.221 143.835C386.995 141.706 387.382 138.802 387.382 135.123V129.412H374.508C371.087 129.412 368.442 129.638 366.57 130.09C364.699 130.541 363.408 131.509 362.698 132.994C361.988 134.413 361.633 136.672 361.633 139.77C361.633 142.222 361.988 144.158 362.698 145.578C363.408 146.997 364.699 147.998 366.57 148.578C368.442 149.159 371.087 149.45 374.508 149.45ZM435.841 158.355C429.581 158.355 424.612 157.323 420.934 155.258C417.256 153.193 414.61 149.869 412.996 145.287C411.448 140.705 410.673 134.639 410.673 127.089C410.673 119.538 411.48 113.472 413.093 108.89C414.706 104.309 417.352 100.985 421.031 98.92C424.774 96.8549 429.84 95.8224 436.228 95.8224C439.842 95.8224 442.908 96.2419 445.424 97.0808C448.006 97.8552 450.297 99.1781 452.297 101.05C454.362 102.857 456.395 105.373 458.396 108.6L450.264 113.44C448.78 111.117 447.425 109.342 446.199 108.116C444.973 106.825 443.585 105.954 442.036 105.502C440.552 104.986 438.616 104.728 436.228 104.728C432.163 104.728 428.968 105.406 426.645 106.761C424.322 108.116 422.676 110.407 421.708 113.634C420.805 116.86 420.353 121.345 420.353 127.089C420.353 132.768 420.805 137.253 421.708 140.544C422.612 143.771 424.193 146.062 426.452 147.417C428.71 148.772 431.84 149.45 435.841 149.45C438.164 149.45 440.1 149.191 441.649 148.675C443.262 148.159 444.714 147.288 446.005 146.062C447.36 144.771 448.812 142.964 450.361 140.641L458.396 145.481C456.395 148.643 454.33 151.192 452.2 153.128C450.135 154.999 447.812 156.322 445.231 157.097C442.649 157.936 439.52 158.355 435.841 158.355ZM498.433 158.355C493.916 158.355 490.269 157.581 487.494 156.032C484.72 154.419 482.687 151.902 481.396 148.482C480.17 145.061 479.557 140.576 479.557 135.026V105.212H467.554V96.3064H479.557V79.56H489.237V96.3064H509.371V105.212H489.237V135.026C489.237 140.512 489.914 144.287 491.27 146.352C492.625 148.417 495.013 149.45 498.433 149.45C500.756 149.45 502.498 149.288 503.66 148.966C504.886 148.578 505.79 147.933 506.37 147.03C507.016 146.126 507.597 144.803 508.113 143.061L517.212 146.158C516.309 149.191 515.115 151.611 513.63 153.418C512.146 155.161 510.178 156.419 507.726 157.194C505.338 157.968 502.24 158.355 498.433 158.355Z" fill="#F9FAFC"/>
</svg>
