<svg width="557" height="190" viewBox="0 0 557 190" fill="none" xmlns="http://www.w3.org/2000/svg">
<rect width="556.533" height="190" rx="30" fill="#022DD8"/>
<path d="M287.977 133.72V56.28H297.657V97.2264H299.012L318.469 73.8976H330.181L307.627 101.486L334.053 133.72H322.341L299.399 106.132H297.657V133.72H287.977Z" fill="#F9FAFC"/>
<path d="M250.94 135.075C244.681 135.075 239.712 134.043 236.033 131.978C232.355 129.913 229.709 126.589 228.096 122.007C226.547 117.425 225.772 111.359 225.772 103.809C225.772 96.2585 226.579 90.1923 228.192 85.6105C229.806 81.0286 232.452 77.7051 236.13 75.6401C239.873 73.575 244.939 72.5425 251.328 72.5425C254.942 72.5425 258.007 72.9619 260.524 73.8009C263.105 74.5753 265.396 75.8982 267.396 77.7697C269.462 79.5766 271.494 82.0934 273.495 85.3201L265.364 90.1601C263.879 87.8369 262.524 86.0622 261.298 84.8361C260.072 83.5454 258.684 82.6742 257.136 82.2225C255.651 81.7062 253.715 81.4481 251.328 81.4481C247.262 81.4481 244.068 82.1257 241.744 83.4809C239.421 84.8361 237.776 87.127 236.808 90.3537C235.904 93.5803 235.452 98.0654 235.452 103.809C235.452 109.488 235.904 113.973 236.808 117.264C237.711 120.491 239.292 122.782 241.551 124.137C243.81 125.492 246.939 126.17 250.94 126.17C253.264 126.17 255.2 125.912 256.748 125.395C258.362 124.879 259.814 124.008 261.104 122.782C262.46 121.491 263.912 119.684 265.46 117.361L273.495 122.201C271.494 125.363 269.429 127.912 267.3 129.848C265.235 131.72 262.911 133.042 260.33 133.817C257.749 134.656 254.619 135.075 250.94 135.075Z" fill="#F9FAFC"/>
<path d="M189.607 135.075C184.057 135.075 179.636 134.462 176.345 133.236C173.054 132.01 170.666 130.042 169.182 127.331C167.762 124.621 167.052 121.007 167.052 116.49C167.052 111.456 167.762 107.552 169.182 104.777C170.666 101.937 173.054 99.9692 176.345 98.8721C179.636 97.775 184.057 97.2265 189.607 97.2265H202.481V94.1289C202.481 91.1603 202.094 88.8371 201.319 87.1593C200.61 85.4169 199.319 84.1907 197.447 83.4809C195.641 82.771 193.027 82.4161 189.607 82.4161C186.896 82.4161 184.767 82.7065 183.218 83.2873C181.734 83.8035 180.572 84.8038 179.733 86.2881C178.894 87.7723 178.12 89.8697 177.41 92.5801L168.117 90.2569C169.214 86.0622 170.602 82.6742 172.279 80.0929C173.957 77.5115 176.184 75.6078 178.959 74.3817C181.734 73.1555 185.283 72.5425 189.607 72.5425C195.221 72.5425 199.674 73.3169 202.965 74.8657C206.256 76.4145 208.612 78.8022 210.031 82.0289C211.451 85.191 212.161 89.2243 212.161 94.1289V117.458C212.161 119.845 212.355 121.588 212.742 122.685C213.129 123.717 213.871 124.363 214.968 124.621C216.065 124.814 217.646 124.847 219.711 124.718V133.623C216.033 133.817 213.065 133.559 210.806 132.849C208.612 132.139 206.966 130.816 205.869 128.88C204.707 130.364 203.352 131.59 201.803 132.558C200.319 133.462 198.577 134.107 196.576 134.494C194.576 134.882 192.253 135.075 189.607 135.075ZM189.607 126.17C193.027 126.17 195.641 125.75 197.447 124.911C199.319 124.072 200.61 122.62 201.319 120.555C202.094 118.426 202.481 115.522 202.481 111.843V106.132H189.607C186.186 106.132 183.541 106.358 181.669 106.81C179.798 107.261 178.507 108.229 177.797 109.714C177.087 111.133 176.732 113.392 176.732 116.49C176.732 118.942 177.087 120.878 177.797 122.298C178.507 123.717 179.798 124.718 181.669 125.298C183.541 125.879 186.186 126.17 189.607 126.17Z" fill="#F9FAFC"/>
<path d="M139.406 135.075C134.888 135.075 131.242 134.301 128.467 132.752C125.692 131.139 123.659 128.622 122.369 125.202C121.143 121.781 120.53 117.296 120.53 111.746V81.932H108.526V73.0264H120.53V56.28H130.21V73.0264H150.344V81.932H130.21V111.746C130.21 117.232 130.887 121.007 132.242 123.072C133.598 125.137 135.985 126.17 139.406 126.17C141.729 126.17 143.471 126.008 144.633 125.686C145.859 125.298 146.762 124.653 147.343 123.75C147.989 122.846 148.569 121.523 149.086 119.781L158.185 122.878C157.281 125.911 156.087 128.332 154.603 130.138C153.119 131.881 151.151 133.139 148.698 133.914C146.311 134.688 143.213 135.075 139.406 135.075Z" fill="#F9FAFC"/>
<path d="M75.0712 135.075C70.4248 135.075 66.5205 134.656 63.3584 133.817C60.2608 132.978 57.6472 131.59 55.5176 129.654C53.4525 127.718 51.6133 125.105 50 121.814L57.4536 114.844C58.5507 117.813 59.7123 120.136 60.9384 121.814C62.2291 123.427 63.9392 124.556 66.0688 125.202C68.2629 125.847 71.2637 126.17 75.0712 126.17C78.8787 126.17 81.8149 125.75 83.88 124.911C85.9451 124.008 87.3971 122.523 88.236 120.458C89.0749 118.329 89.4944 115.425 89.4944 111.746C89.4944 108.971 89.0427 106.777 88.1392 105.164C87.3003 103.551 85.7837 102.163 83.5896 101.002C81.3955 99.84 78.2979 98.6139 74.2968 97.3232C68.8115 95.5163 64.4555 93.7093 61.2288 91.9024C58.0667 90.0955 55.7757 87.9659 54.356 85.5136C53.0008 82.9968 52.3232 79.8347 52.3232 76.0272C52.3232 70.8645 53.0331 66.7667 54.4528 63.7336C55.9371 60.636 58.3248 58.4096 61.616 57.0544C64.9717 55.6347 69.4568 54.9248 75.0712 54.9248C79.3949 54.9248 82.9765 55.2797 85.816 55.9896C88.72 56.6995 91.1723 57.9256 93.1728 59.668C95.1733 61.3459 96.948 63.6368 98.4968 66.5408L91.624 73.9944C90.5269 71.284 89.3653 69.2189 88.1392 67.7992C86.9131 66.3149 85.2997 65.2824 83.2992 64.7016C81.3632 64.1208 78.6205 63.8304 75.0712 63.8304C71.5864 63.8304 68.9083 64.1853 67.0368 64.8952C65.1653 65.6051 63.8424 66.8635 63.068 68.6704C62.3581 70.4128 62.0032 72.8651 62.0032 76.0272C62.0032 78.3504 62.3904 80.2219 63.1648 81.6416C63.9392 82.9968 65.3267 84.1584 67.3272 85.1264C69.3277 86.0299 72.1349 87.0624 75.7488 88.224C81.6213 90.0309 86.2355 91.9347 89.5912 93.9352C93.0115 95.8712 95.4637 98.2267 96.948 101.002C98.4323 103.777 99.1744 107.358 99.1744 111.746C99.1744 117.425 98.4 121.975 96.8512 125.395C95.3669 128.815 92.8501 131.3 89.3008 132.849C85.816 134.333 81.0728 135.075 75.0712 135.075Z" fill="#F9FAFC"/>
<path opacity="0.3" fill-rule="evenodd" clip-rule="evenodd" d="M409.91 66.7831C410.978 65.7139 412.428 65.1131 413.94 65.1128H476.646C478.158 65.1131 479.607 65.7139 480.676 66.7831L504.863 90.9704C505.932 92.0394 506.532 93.4891 506.532 95.0007C506.532 96.5123 505.932 97.962 504.863 99.031L480.676 123.218C479.607 124.287 478.158 124.888 476.646 124.889H413.94C412.428 124.888 410.978 124.287 409.91 123.218L385.722 99.031C384.654 97.962 384.053 96.5123 384.053 95.0007C384.053 93.4891 384.654 92.0394 385.722 90.9704L409.91 66.7831Z" fill="#F9FAFC"/>
<path d="M457.925 50L432.66 140M413.939 70.8126L389.752 95L413.939 119.187M476.645 70.8126L500.833 95L476.645 119.187" stroke="#F9FAFC" stroke-width="11.4011" stroke-linecap="round" stroke-linejoin="round"/>
</svg>
