<svg width="385" height="181" viewBox="0 0 385 181" fill="none" xmlns="http://www.w3.org/2000/svg">
<rect width="384.053" height="180.15" rx="30" fill="#022DD8"/>
<path d="M287.977 128.795V51.3552H297.657V92.3016H299.012L318.469 68.9728H330.181L307.627 96.5608L334.053 128.795H322.341L299.399 101.207H297.657V128.795H287.977Z" fill="#F9FAFC"/>
<path d="M250.94 130.15C244.681 130.15 239.712 129.118 236.033 127.053C232.355 124.988 229.709 121.664 228.096 117.082C226.547 112.501 225.772 106.434 225.772 98.8841C225.772 91.3337 226.579 85.2675 228.192 80.6857C229.806 76.1038 232.452 72.7803 236.13 70.7153C239.873 68.6502 244.939 67.6177 251.328 67.6177C254.942 67.6177 258.007 68.0371 260.524 68.8761C263.105 69.6505 265.396 70.9734 267.396 72.8449C269.462 74.6518 271.494 77.1686 273.495 80.3953L265.364 85.2353C263.879 82.9121 262.524 81.1374 261.298 79.9113C260.072 78.6206 258.684 77.7494 257.136 77.2977C255.651 76.7814 253.715 76.5233 251.328 76.5233C247.262 76.5233 244.068 77.2009 241.744 78.5561C239.421 79.9113 237.776 82.2022 236.808 85.4289C235.904 88.6555 235.452 93.1406 235.452 98.8841C235.452 104.563 235.904 109.048 236.808 112.339C237.711 115.566 239.292 117.857 241.551 119.212C243.81 120.567 246.939 121.245 250.94 121.245C253.264 121.245 255.2 120.987 256.748 120.47C258.362 119.954 259.814 119.083 261.104 117.857C262.46 116.566 263.912 114.759 265.46 112.436L273.495 117.276C271.494 120.438 269.429 122.987 267.3 124.923C265.235 126.795 262.911 128.118 260.33 128.892C257.749 129.731 254.619 130.15 250.94 130.15Z" fill="#F9FAFC"/>
<path d="M189.607 130.15C184.057 130.15 179.636 129.537 176.345 128.311C173.054 127.085 170.666 125.117 169.182 122.406C167.762 119.696 167.052 116.082 167.052 111.565C167.052 106.531 167.762 102.627 169.182 99.8521C170.666 97.0126 173.054 95.0443 176.345 93.9473C179.636 92.8502 184.057 92.3017 189.607 92.3017H202.481V89.2041C202.481 86.2355 202.094 83.9123 201.319 82.2345C200.61 80.4921 199.319 79.2659 197.447 78.5561C195.641 77.8462 193.027 77.4913 189.607 77.4913C186.896 77.4913 184.767 77.7817 183.218 78.3625C181.734 78.8787 180.572 79.879 179.733 81.3633C178.894 82.8475 178.12 84.9449 177.41 87.6553L168.117 85.3321C169.214 81.1374 170.602 77.7494 172.279 75.1681C173.957 72.5867 176.184 70.683 178.959 69.4569C181.734 68.2307 185.283 67.6177 189.607 67.6177C195.221 67.6177 199.674 68.3921 202.965 69.9409C206.256 71.4897 208.612 73.8774 210.031 77.1041C211.451 80.2662 212.161 84.2995 212.161 89.2041V112.533C212.161 114.921 212.355 116.663 212.742 117.76C213.129 118.793 213.871 119.438 214.968 119.696C216.065 119.89 217.646 119.922 219.711 119.793V128.698C216.033 128.892 213.065 128.634 210.806 127.924C208.612 127.214 206.966 125.891 205.869 123.955C204.707 125.44 203.352 126.666 201.803 127.634C200.319 128.537 198.577 129.182 196.576 129.57C194.576 129.957 192.253 130.15 189.607 130.15ZM189.607 121.245C193.027 121.245 195.641 120.825 197.447 119.986C199.319 119.148 200.61 117.696 201.319 115.63C202.094 113.501 202.481 110.597 202.481 106.918V101.207H189.607C186.186 101.207 183.541 101.433 181.669 101.885C179.798 102.337 178.507 103.305 177.797 104.789C177.087 106.209 176.732 108.467 176.732 111.565C176.732 114.017 177.087 115.953 177.797 117.373C178.507 118.793 179.798 119.793 181.669 120.374C183.541 120.954 186.186 121.245 189.607 121.245Z" fill="#F9FAFC"/>
<path d="M139.406 130.15C134.888 130.15 131.242 129.376 128.467 127.827C125.692 126.214 123.659 123.697 122.369 120.277C121.143 116.857 120.53 112.371 120.53 106.822V77.0072H108.526V68.1016H120.53V51.3552H130.21V68.1016H150.344V77.0072H130.21V106.822C130.21 112.307 130.887 116.082 132.242 118.147C133.598 120.212 135.985 121.245 139.406 121.245C141.729 121.245 143.471 121.083 144.633 120.761C145.859 120.374 146.762 119.728 147.343 118.825C147.989 117.921 148.569 116.598 149.086 114.856L158.185 117.954C157.281 120.987 156.087 123.407 154.603 125.214C153.119 126.956 151.151 128.214 148.698 128.989C146.311 129.763 143.213 130.15 139.406 130.15Z" fill="#F9FAFC"/>
<path d="M75.0712 130.15C70.4248 130.15 66.5205 129.731 63.3584 128.892C60.2608 128.053 57.6472 126.666 55.5176 124.73C53.4525 122.794 51.6133 120.18 50 116.889L57.4536 109.919C58.5507 112.888 59.7123 115.211 60.9384 116.889C62.2291 118.502 63.9392 119.631 66.0688 120.277C68.2629 120.922 71.2637 121.245 75.0712 121.245C78.8787 121.245 81.8149 120.825 83.88 119.986C85.9451 119.083 87.3971 117.599 88.236 115.534C89.0749 113.404 89.4944 110.5 89.4944 106.822C89.4944 104.047 89.0427 101.853 88.1392 100.239C87.3003 98.6259 85.7837 97.2384 83.5896 96.0768C81.3955 94.9152 78.2979 93.6891 74.2968 92.3984C68.8115 90.5915 64.4555 88.7845 61.2288 86.9776C58.0667 85.1707 55.7757 83.0411 54.356 80.5888C53.0008 78.072 52.3232 74.9099 52.3232 71.1024C52.3232 65.9397 53.0331 61.8419 54.4528 58.8088C55.9371 55.7112 58.3248 53.4848 61.616 52.1296C64.9717 50.7099 69.4568 50 75.0712 50C79.3949 50 82.9765 50.3549 85.816 51.0648C88.72 51.7747 91.1723 53.0008 93.1728 54.7432C95.1733 56.4211 96.948 58.712 98.4968 61.616L91.624 69.0696C90.5269 66.3592 89.3653 64.2941 88.1392 62.8744C86.9131 61.3901 85.2997 60.3576 83.2992 59.7768C81.3632 59.196 78.6205 58.9056 75.0712 58.9056C71.5864 58.9056 68.9083 59.2605 67.0368 59.9704C65.1653 60.6803 63.8424 61.9387 63.068 63.7456C62.3581 65.488 62.0032 67.9403 62.0032 71.1024C62.0032 73.4256 62.3904 75.2971 63.1648 76.7168C63.9392 78.072 65.3267 79.2336 67.3272 80.2016C69.3277 81.1051 72.1349 82.1376 75.7488 83.2992C81.6213 85.1061 86.2355 87.0099 89.5912 89.0104C93.0115 90.9464 95.4637 93.3019 96.948 96.0768C98.4323 98.8517 99.1744 102.433 99.1744 106.822C99.1744 112.501 98.4 117.05 96.8512 120.47C95.3669 123.891 92.8501 126.375 89.3008 127.924C85.816 129.408 81.0728 130.15 75.0712 130.15Z" fill="#F9FAFC"/>
</svg>
