<svg width="625" height="231" viewBox="0 0 625 231" fill="none" xmlns="http://www.w3.org/2000/svg">
<rect x="5" y="5" width="615" height="221" rx="25" fill="#F97316" fill-opacity="0.1"/>
<rect x="5" y="5" width="615" height="221" rx="25" stroke="#F97316" stroke-width="10"/>
<path d="M109.04 158.355C104.394 158.355 100.489 157.936 97.3272 157.097C94.2296 156.258 91.616 154.87 89.4864 152.934C87.4213 150.998 85.5821 148.385 83.9688 145.094L91.4224 138.124C92.5195 141.093 93.6811 143.416 94.9072 145.094C96.1979 146.707 97.908 147.836 100.038 148.482C102.232 149.127 105.233 149.45 109.04 149.45C112.847 149.45 115.784 149.03 117.849 148.191C119.914 147.288 121.366 145.803 122.205 143.738C123.044 141.609 123.463 138.705 123.463 135.026C123.463 132.251 123.011 130.057 122.108 128.444C121.269 126.831 119.753 125.443 117.558 124.282C115.364 123.12 112.267 121.894 108.266 120.603C102.78 118.796 98.4243 116.989 95.1976 115.182C92.0355 113.375 89.7445 111.246 88.3248 108.794C86.9696 106.277 86.292 103.115 86.292 99.3072C86.292 94.1445 87.0019 90.0467 88.4216 87.0136C89.9059 83.916 92.2936 81.6896 95.5848 80.3344C98.9405 78.9147 103.426 78.2048 109.04 78.2048C113.364 78.2048 116.945 78.5597 119.785 79.2696C122.689 79.9795 125.141 81.2056 127.142 82.948C129.142 84.6259 130.917 86.9168 132.466 89.8208L125.593 97.2744C124.496 94.564 123.334 92.4989 122.108 91.0792C120.882 89.5949 119.269 88.5624 117.268 87.9816C115.332 87.4008 112.589 87.1104 109.04 87.1104C105.555 87.1104 102.877 87.4653 101.006 88.1752C99.1341 88.8851 97.8112 90.1435 97.0368 91.9504C96.3269 93.6928 95.972 96.1451 95.972 99.3072C95.972 101.63 96.3592 103.502 97.1336 104.922C97.908 106.277 99.2955 107.438 101.296 108.406C103.297 109.31 106.104 110.342 109.718 111.504C115.59 113.311 120.204 115.215 123.56 117.215C126.98 119.151 129.433 121.507 130.917 124.282C132.401 127.057 133.143 130.638 133.143 135.026C133.143 140.705 132.369 145.255 130.82 148.675C129.336 152.095 126.819 154.58 123.27 156.129C119.785 157.613 115.042 158.355 109.04 158.355ZM165.437 158.355C160.403 158.355 156.402 157.613 153.433 156.129C150.465 154.58 148.335 152.063 147.045 148.578C145.754 145.029 145.109 140.318 145.109 134.446V97.1776H154.789V134.446C154.789 138.447 155.079 141.544 155.66 143.738C156.305 145.868 157.402 147.352 158.951 148.191C160.5 149.03 162.662 149.45 165.437 149.45C169.438 149.45 172.503 149.095 174.633 148.385C176.827 147.675 178.343 146.417 179.182 144.61C180.021 142.803 180.441 140.286 180.441 137.059V97.1776H190.121V157H180.441V154.967C179.279 155.742 177.988 156.387 176.569 156.903C175.149 157.419 173.503 157.774 171.632 157.968C169.825 158.226 167.76 158.355 165.437 158.355ZM202.473 174.618V97.1776H212.153V98.8232C213.831 97.7907 215.799 97.0485 218.058 96.5968C220.317 96.0805 222.898 95.8224 225.802 95.8224C231.61 95.8224 236.192 96.8549 239.548 98.92C242.968 100.985 245.388 104.309 246.808 108.89C248.292 113.408 249.034 119.442 249.034 126.992C249.034 134.542 248.292 140.609 246.808 145.19C245.388 149.772 242.968 153.128 239.548 155.258C236.192 157.323 231.61 158.355 225.802 158.355C222.898 158.355 220.317 158.033 218.058 157.387C215.799 156.742 213.831 155.806 212.153 154.58V174.618H202.473ZM225.802 149.45C229.287 149.45 231.997 148.772 233.933 147.417C235.934 146.062 237.321 143.738 238.096 140.447C238.935 137.156 239.354 132.671 239.354 126.992C239.354 121.313 238.935 116.86 238.096 113.634C237.321 110.407 235.934 108.116 233.933 106.761C231.997 105.406 229.287 104.728 225.802 104.728C222.769 104.728 220.22 104.986 218.155 105.502C216.154 105.954 214.638 106.664 213.605 107.632C212.637 108.535 212.153 109.665 212.153 111.02V135.22C212.153 140.125 213.25 143.738 215.444 146.062C217.639 148.32 221.091 149.45 225.802 149.45ZM281.618 158.355C276.068 158.355 271.647 157.742 268.356 156.516C265.065 155.29 262.677 153.322 261.193 150.611C259.773 147.901 259.063 144.287 259.063 139.77C259.063 134.736 259.773 130.832 261.193 128.057C262.677 125.217 265.065 123.249 268.356 122.152C271.647 121.055 276.068 120.506 281.618 120.506H294.492V117.409C294.492 114.44 294.105 112.117 293.331 110.439C292.621 108.697 291.33 107.471 289.459 106.761C287.652 106.051 285.038 105.696 281.618 105.696C278.907 105.696 276.778 105.986 275.229 106.567C273.745 107.083 272.583 108.084 271.744 109.568C270.905 111.052 270.131 113.15 269.421 115.86L260.128 113.537C261.225 109.342 262.613 105.954 264.291 103.373C265.968 100.791 268.195 98.8877 270.97 97.6616C273.745 96.4355 277.294 95.8224 281.618 95.8224C287.232 95.8224 291.685 96.5968 294.976 98.1456C298.267 99.6944 300.623 102.082 302.043 105.309C303.462 108.471 304.172 112.504 304.172 117.409V140.738C304.172 143.125 304.366 144.868 304.753 145.965C305.14 146.997 305.882 147.643 306.979 147.901C308.076 148.094 309.658 148.127 311.723 147.998V156.903C308.044 157.097 305.076 156.839 302.817 156.129C300.623 155.419 298.977 154.096 297.88 152.16C296.719 153.644 295.363 154.87 293.815 155.838C292.33 156.742 290.588 157.387 288.587 157.774C286.587 158.162 284.264 158.355 281.618 158.355ZM281.618 149.45C285.038 149.45 287.652 149.03 289.459 148.191C291.33 147.352 292.621 145.9 293.331 143.835C294.105 141.706 294.492 138.802 294.492 135.123V129.412H281.618C278.198 129.412 275.552 129.638 273.68 130.09C271.809 130.541 270.518 131.509 269.808 132.994C269.098 134.413 268.743 136.672 268.743 139.77C268.743 142.222 269.098 144.158 269.808 145.578C270.518 146.997 271.809 147.998 273.68 148.578C275.552 149.159 278.198 149.45 281.618 149.45ZM342.37 158.355C338.692 158.355 335.498 158.033 332.787 157.387C330.141 156.806 327.786 155.806 325.721 154.386C323.656 152.902 321.655 150.966 319.719 148.578V79.56H329.399V99.404C331.012 98.1779 332.884 97.2744 335.014 96.6936C337.143 96.1128 339.595 95.8224 342.37 95.8224C348.049 95.8224 352.502 96.8549 355.729 98.92C359.02 100.985 361.375 104.341 362.795 108.987C364.215 113.569 364.925 119.635 364.925 127.186C364.925 134.671 364.215 140.705 362.795 145.287C361.375 149.869 359.02 153.193 355.729 155.258C352.502 157.323 348.049 158.355 342.37 158.355ZM342.37 149.45C345.662 149.45 348.243 148.772 350.114 147.417C351.986 146.062 353.309 143.771 354.083 140.544C354.858 137.317 355.245 132.865 355.245 127.186C355.245 121.442 354.858 116.957 354.083 113.73C353.309 110.439 351.986 108.116 350.114 106.761C348.243 105.406 345.662 104.728 342.37 104.728C338.95 104.728 336.304 105.147 334.433 105.986C332.561 106.761 331.238 108.181 330.464 110.246C329.754 112.311 329.399 115.279 329.399 119.151V145.481C331.077 147.03 332.819 148.094 334.626 148.675C336.433 149.191 339.015 149.45 342.37 149.45ZM397.702 158.355C392.152 158.355 387.732 157.742 384.441 156.516C381.149 155.29 378.762 153.322 377.277 150.611C375.858 147.901 375.148 144.287 375.148 139.77C375.148 134.736 375.858 130.832 377.277 128.057C378.762 125.217 381.149 123.249 384.441 122.152C387.732 121.055 392.152 120.506 397.702 120.506H410.577V117.409C410.577 114.44 410.189 112.117 409.415 110.439C408.705 108.697 407.414 107.471 405.543 106.761C403.736 106.051 401.122 105.696 397.702 105.696C394.992 105.696 392.862 105.986 391.313 106.567C389.829 107.083 388.667 108.084 387.829 109.568C386.99 111.052 386.215 113.15 385.505 115.86L376.213 113.537C377.31 109.342 378.697 105.954 380.375 103.373C382.053 100.791 384.279 98.8877 387.054 97.6616C389.829 96.4355 393.378 95.8224 397.702 95.8224C403.317 95.8224 407.769 96.5968 411.061 98.1456C414.352 99.6944 416.707 102.082 418.127 105.309C419.547 108.471 420.257 112.504 420.257 117.409V140.738C420.257 143.125 420.45 144.868 420.837 145.965C421.225 146.997 421.967 147.643 423.064 147.901C424.161 148.094 425.742 148.127 427.807 147.998V156.903C424.129 157.097 421.16 156.839 418.901 156.129C416.707 155.419 415.062 154.096 413.965 152.16C412.803 153.644 411.448 154.87 409.899 155.838C408.415 156.742 406.672 157.387 404.672 157.774C402.671 158.162 400.348 158.355 397.702 158.355ZM397.702 149.45C401.122 149.45 403.736 149.03 405.543 148.191C407.414 147.352 408.705 145.9 409.415 143.835C410.189 141.706 410.577 138.802 410.577 135.123V129.412H397.702C394.282 129.412 391.636 129.638 389.765 130.09C387.893 130.541 386.602 131.509 385.893 132.994C385.183 134.413 384.828 136.672 384.828 139.77C384.828 142.222 385.183 144.158 385.893 145.578C386.602 146.997 387.893 147.998 389.765 148.578C391.636 149.159 394.282 149.45 397.702 149.45ZM454.873 158.355C451.388 158.355 448.42 157.968 445.968 157.194C443.58 156.419 441.482 155.129 439.676 153.322C437.869 151.45 436.158 148.998 434.545 145.965L442.192 139.673C443.354 142.254 444.451 144.255 445.484 145.674C446.516 147.094 447.742 148.094 449.162 148.675C450.646 149.191 452.55 149.45 454.873 149.45C459.39 149.45 462.843 149.159 465.231 148.578C467.618 147.998 469.264 146.997 470.168 145.578C471.136 144.158 471.62 142.254 471.62 139.866C471.62 137.479 471.232 135.672 470.458 134.446C469.684 133.219 468.264 132.316 466.199 131.735C464.198 131.09 461.294 130.541 457.487 130.09C452.518 129.444 448.42 128.509 445.193 127.282C442.031 126.056 439.676 124.346 438.127 122.152C436.642 119.893 435.9 117.022 435.9 113.537C435.9 109.213 436.675 105.761 438.224 103.179C439.772 100.598 442.289 98.7264 445.774 97.5648C449.259 96.4032 453.905 95.8224 459.713 95.8224C463.392 95.8224 466.457 96.1773 468.909 96.8872C471.426 97.5325 473.62 98.6296 475.492 100.178C477.363 101.727 479.105 103.825 480.719 106.47L473.652 113.343C472.426 111.02 471.232 109.245 470.071 108.019C468.974 106.793 467.618 105.954 466.005 105.502C464.456 104.986 462.359 104.728 459.713 104.728C455.97 104.728 453.066 104.986 451.001 105.502C448.936 106.019 447.516 106.922 446.742 108.213C445.968 109.503 445.58 111.278 445.58 113.537C445.58 115.925 446.516 117.602 448.388 118.57C450.324 119.538 453.55 120.345 458.068 120.99C463.811 121.765 468.361 122.83 471.716 124.185C475.137 125.54 477.589 127.444 479.073 129.896C480.557 132.348 481.3 135.672 481.3 139.866C481.3 144.384 480.428 147.998 478.686 150.708C477.008 153.354 474.233 155.29 470.361 156.516C466.554 157.742 461.391 158.355 454.873 158.355ZM515.626 158.355C509.366 158.355 504.397 157.419 500.719 155.548C497.105 153.612 494.523 150.353 492.975 145.771C491.49 141.189 490.748 134.962 490.748 127.089C490.748 119.151 491.49 112.924 492.975 108.406C494.523 103.825 497.105 100.598 500.719 98.7264C504.397 96.7904 509.366 95.8224 515.626 95.8224C521.821 95.8224 526.661 96.8549 530.146 98.92C533.695 100.921 536.212 104.373 537.696 109.278C539.18 114.182 539.923 120.894 539.923 129.412H493.555V120.506H530.049C530.049 116.505 529.597 113.375 528.694 111.117C527.855 108.794 526.371 107.148 524.241 106.18C522.176 105.212 519.304 104.728 515.626 104.728C511.754 104.728 508.721 105.406 506.527 106.761C504.332 108.051 502.751 110.246 501.783 113.343C500.88 116.441 500.428 120.732 500.428 126.218C500.428 132.09 500.88 136.737 501.783 140.157C502.751 143.513 504.332 145.9 506.527 147.32C508.721 148.74 511.754 149.45 515.626 149.45C517.884 149.45 519.853 149.191 521.531 148.675C523.273 148.094 524.886 147.191 526.371 145.965C527.855 144.674 529.404 142.932 531.017 140.738L538.761 145.868C536.631 149.03 534.502 151.515 532.372 153.322C530.243 155.129 527.855 156.419 525.209 157.194C522.563 157.968 519.369 158.355 515.626 158.355Z" fill="#F97316"/>
</svg>
