<svg width="761" height="231" viewBox="0 0 761 231" fill="none" xmlns="http://www.w3.org/2000/svg">
<rect x="5" y="5" width="750.333" height="221" rx="25" fill="#F97316" fill-opacity="0.1"/>
<rect x="5" y="5" width="750.333" height="221" rx="25" stroke="#F97316" stroke-width="10"/>
<path opacity="0.3" d="M80 80.8333C80 79.4188 80.5619 78.0623 81.5621 77.0621C82.5623 76.0619 83.9188 75.5 85.3333 75.5H160C161.414 75.5 162.771 76.0619 163.771 77.0621C164.771 78.0623 165.333 79.4188 165.333 80.8333V102.167C165.333 103.581 164.771 104.938 163.771 105.938C162.771 106.938 161.414 107.5 160 107.5H85.3333C83.9188 107.5 82.5623 106.938 81.5621 105.938C80.5619 104.938 80 103.581 80 102.167V80.8333ZM80 128.833C80 127.419 80.5619 126.062 81.5621 125.062C82.5623 124.062 83.9188 123.5 85.3333 123.5H160C161.414 123.5 162.771 124.062 163.771 125.062C164.771 126.062 165.333 127.419 165.333 128.833V150.167C165.333 151.581 164.771 152.938 163.771 153.938C162.771 154.938 161.414 155.5 160 155.5H85.3333C83.9188 155.5 82.5623 154.938 81.5621 153.938C80.5619 152.938 80 151.581 80 150.167V128.833Z" fill="#F97316"/>
<path d="M101.333 139.5H112M101.333 91.5H112M85.3333 155.5H160C161.414 155.5 162.771 154.938 163.771 153.938C164.771 152.938 165.333 151.581 165.333 150.167V128.833C165.333 127.419 164.771 126.062 163.771 125.062C162.771 124.062 161.414 123.5 160 123.5H85.3333C83.9188 123.5 82.5623 124.062 81.5621 125.062C80.5619 126.062 80 127.419 80 128.833V150.167C80 151.581 80.5619 152.938 81.5621 153.938C82.5623 154.938 83.9188 155.5 85.3333 155.5ZM85.3333 107.5H160C161.414 107.5 162.771 106.938 163.771 105.938C164.771 104.938 165.333 103.581 165.333 102.167V80.8333C165.333 79.4188 164.771 78.0623 163.771 77.0621C162.771 76.0619 161.414 75.5 160 75.5H85.3333C83.9188 75.5 82.5623 76.0619 81.5621 77.0621C80.5619 78.0623 80 79.4188 80 80.8333V102.167C80 103.581 80.5619 104.938 81.5621 105.938C82.5623 106.938 83.9188 107.5 85.3333 107.5Z" stroke="#F97316" stroke-width="10.6667" stroke-linecap="round"/>
<path d="M244.373 158.355C239.727 158.355 235.823 157.936 232.661 157.097C229.563 156.258 226.949 154.87 224.82 152.934C222.755 150.998 220.916 148.385 219.302 145.094L226.756 138.124C227.853 141.093 229.015 143.416 230.241 145.094C231.531 146.707 233.241 147.836 235.371 148.482C237.565 149.127 240.566 149.45 244.373 149.45C248.181 149.45 251.117 149.03 253.182 148.191C255.247 147.288 256.699 145.803 257.538 143.738C258.377 141.609 258.797 138.705 258.797 135.026C258.797 132.251 258.345 130.057 257.442 128.444C256.603 126.831 255.086 125.443 252.892 124.282C250.698 123.12 247.6 121.894 243.599 120.603C238.114 118.796 233.758 116.989 230.531 115.182C227.369 113.375 225.078 111.246 223.658 108.794C222.303 106.277 221.625 103.115 221.625 99.3072C221.625 94.1445 222.335 90.0467 223.755 87.0136C225.239 83.916 227.627 81.6896 230.918 80.3344C234.274 78.9147 238.759 78.2048 244.373 78.2048C248.697 78.2048 252.279 78.5597 255.118 79.2696C258.022 79.9795 260.475 81.2056 262.475 82.948C264.476 84.6259 266.25 86.9168 267.799 89.8208L260.926 97.2744C259.829 94.564 258.668 92.4989 257.442 91.0792C256.215 89.5949 254.602 88.5624 252.601 87.9816C250.665 87.4008 247.923 87.1104 244.373 87.1104C240.889 87.1104 238.211 87.4653 236.339 88.1752C234.468 88.8851 233.145 90.1435 232.37 91.9504C231.66 93.6928 231.305 96.1451 231.305 99.3072C231.305 101.63 231.693 103.502 232.467 104.922C233.241 106.277 234.629 107.438 236.629 108.406C238.63 109.31 241.437 110.342 245.051 111.504C250.924 113.311 255.538 115.215 258.893 117.215C262.314 119.151 264.766 121.507 266.25 124.282C267.735 127.057 268.477 130.638 268.477 135.026C268.477 140.705 267.702 145.255 266.154 148.675C264.669 152.095 262.152 154.58 258.603 156.129C255.118 157.613 250.375 158.355 244.373 158.355ZM300.77 158.355C295.736 158.355 291.735 157.613 288.767 156.129C285.798 154.58 283.669 152.063 282.378 148.578C281.087 145.029 280.442 140.318 280.442 134.446V97.1776H290.122V134.446C290.122 138.447 290.412 141.544 290.993 143.738C291.639 145.868 292.736 147.352 294.284 148.191C295.833 149.03 297.995 149.45 300.77 149.45C304.771 149.45 307.836 149.095 309.966 148.385C312.16 147.675 313.677 146.417 314.516 144.61C315.355 142.803 315.774 140.286 315.774 137.059V97.1776H325.454V157H315.774V154.967C314.612 155.742 313.322 156.387 311.902 156.903C310.482 157.419 308.837 157.774 306.965 157.968C305.158 158.226 303.093 158.355 300.77 158.355ZM337.807 174.618V97.1776H347.487V98.8232C349.165 97.7907 351.133 97.0485 353.391 96.5968C355.65 96.0805 358.231 95.8224 361.135 95.8224C366.943 95.8224 371.525 96.8549 374.881 98.92C378.301 100.985 380.721 104.309 382.141 108.89C383.625 113.408 384.367 119.442 384.367 126.992C384.367 134.542 383.625 140.609 382.141 145.19C380.721 149.772 378.301 153.128 374.881 155.258C371.525 157.323 366.943 158.355 361.135 158.355C358.231 158.355 355.65 158.033 353.391 157.387C351.133 156.742 349.165 155.806 347.487 154.58V174.618H337.807ZM361.135 149.45C364.62 149.45 367.331 148.772 369.267 147.417C371.267 146.062 372.655 143.738 373.429 140.447C374.268 137.156 374.687 132.671 374.687 126.992C374.687 121.313 374.268 116.86 373.429 113.634C372.655 110.407 371.267 108.116 369.267 106.761C367.331 105.406 364.62 104.728 361.135 104.728C358.102 104.728 355.553 104.986 353.488 105.502C351.488 105.954 349.971 106.664 348.939 107.632C347.971 108.535 347.487 109.665 347.487 111.02V135.22C347.487 140.125 348.584 143.738 350.778 146.062C352.972 148.32 356.425 149.45 361.135 149.45ZM416.951 158.355C411.401 158.355 406.981 157.742 403.69 156.516C400.398 155.29 398.011 153.322 396.526 150.611C395.107 147.901 394.397 144.287 394.397 139.77C394.397 134.736 395.107 130.832 396.526 128.057C398.011 125.217 400.398 123.249 403.69 122.152C406.981 121.055 411.401 120.506 416.951 120.506H429.826V117.409C429.826 114.44 429.438 112.117 428.664 110.439C427.954 108.697 426.664 107.471 424.792 106.761C422.985 106.051 420.372 105.696 416.951 105.696C414.241 105.696 412.111 105.986 410.562 106.567C409.078 107.083 407.917 108.084 407.078 109.568C406.239 111.052 405.464 113.15 404.754 115.86L395.462 113.537C396.559 109.342 397.946 105.954 399.624 103.373C401.302 100.791 403.528 98.8877 406.303 97.6616C409.078 96.4355 412.628 95.8224 416.951 95.8224C422.566 95.8224 427.018 96.5968 430.31 98.1456C433.601 99.6944 435.956 102.082 437.376 105.309C438.796 108.471 439.506 112.504 439.506 117.409V140.738C439.506 143.125 439.699 144.868 440.086 145.965C440.474 146.997 441.216 147.643 442.313 147.901C443.41 148.094 444.991 148.127 447.056 147.998V156.903C443.378 157.097 440.409 156.839 438.15 156.129C435.956 155.419 434.311 154.096 433.214 152.16C432.052 153.644 430.697 154.87 429.148 155.838C427.664 156.742 425.921 157.387 423.921 157.774C421.92 158.162 419.597 158.355 416.951 158.355ZM416.951 149.45C420.372 149.45 422.985 149.03 424.792 148.191C426.664 147.352 427.954 145.9 428.664 143.835C429.438 141.706 429.826 138.802 429.826 135.123V129.412H416.951C413.531 129.412 410.885 129.638 409.014 130.09C407.142 130.541 405.852 131.509 405.142 132.994C404.432 134.413 404.077 136.672 404.077 139.77C404.077 142.222 404.432 144.158 405.142 145.578C405.852 146.997 407.142 147.998 409.014 148.578C410.885 149.159 413.531 149.45 416.951 149.45ZM477.704 158.355C474.025 158.355 470.831 158.033 468.121 157.387C465.475 156.806 463.119 155.806 461.054 154.386C458.989 152.902 456.989 150.966 455.053 148.578V79.56H464.733V99.404C466.346 98.1779 468.217 97.2744 470.347 96.6936C472.477 96.1128 474.929 95.8224 477.704 95.8224C483.383 95.8224 487.836 96.8549 491.062 98.92C494.353 100.985 496.709 104.341 498.129 108.987C499.548 113.569 500.258 119.635 500.258 127.186C500.258 134.671 499.548 140.705 498.129 145.287C496.709 149.869 494.353 153.193 491.062 155.258C487.836 157.323 483.383 158.355 477.704 158.355ZM477.704 149.45C480.995 149.45 483.576 148.772 485.448 147.417C487.319 146.062 488.642 143.771 489.417 140.544C490.191 137.317 490.578 132.865 490.578 127.186C490.578 121.442 490.191 116.957 489.417 113.73C488.642 110.439 487.319 108.116 485.448 106.761C483.576 105.406 480.995 104.728 477.704 104.728C474.284 104.728 471.638 105.147 469.766 105.986C467.895 106.761 466.572 108.181 465.797 110.246C465.088 112.311 464.733 115.279 464.733 119.151V145.481C466.411 147.03 468.153 148.094 469.96 148.675C471.767 149.191 474.348 149.45 477.704 149.45ZM533.036 158.355C527.486 158.355 523.065 157.742 519.774 156.516C516.483 155.29 514.095 153.322 512.611 150.611C511.191 147.901 510.481 144.287 510.481 139.77C510.481 134.736 511.191 130.832 512.611 128.057C514.095 125.217 516.483 123.249 519.774 122.152C523.065 121.055 527.486 120.506 533.036 120.506H545.91V117.409C545.91 114.44 545.523 112.117 544.748 110.439C544.039 108.697 542.748 107.471 540.876 106.761C539.07 106.051 536.456 105.696 533.036 105.696C530.325 105.696 528.196 105.986 526.647 106.567C525.163 107.083 524.001 108.084 523.162 109.568C522.323 111.052 521.549 113.15 520.839 115.86L511.546 113.537C512.643 109.342 514.031 105.954 515.708 103.373C517.386 100.791 519.613 98.8877 522.388 97.6616C525.163 96.4355 528.712 95.8224 533.036 95.8224C538.65 95.8224 543.103 96.5968 546.394 98.1456C549.685 99.6944 552.041 102.082 553.46 105.309C554.88 108.471 555.59 112.504 555.59 117.409V140.738C555.59 143.125 555.784 144.868 556.171 145.965C556.558 146.997 557.3 147.643 558.397 147.901C559.494 148.094 561.075 148.127 563.14 147.998V156.903C559.462 157.097 556.494 156.839 554.235 156.129C552.041 155.419 550.395 154.096 549.298 152.16C548.136 153.644 546.781 154.87 545.232 155.838C543.748 156.742 542.006 157.387 540.005 157.774C538.005 158.162 535.682 158.355 533.036 158.355ZM533.036 149.45C536.456 149.45 539.07 149.03 540.876 148.191C542.748 147.352 544.039 145.9 544.748 143.835C545.523 141.706 545.91 138.802 545.91 135.123V129.412H533.036C529.615 129.412 526.97 129.638 525.098 130.09C523.227 130.541 521.936 131.509 521.226 132.994C520.516 134.413 520.161 136.672 520.161 139.77C520.161 142.222 520.516 144.158 521.226 145.578C521.936 146.997 523.227 147.998 525.098 148.578C526.97 149.159 529.615 149.45 533.036 149.45ZM590.207 158.355C586.722 158.355 583.753 157.968 581.301 157.194C578.913 156.419 576.816 155.129 575.009 153.322C573.202 151.45 571.492 148.998 569.879 145.965L577.526 139.673C578.687 142.254 579.785 144.255 580.817 145.674C581.85 147.094 583.076 148.094 584.495 148.675C585.98 149.191 587.883 149.45 590.207 149.45C594.724 149.45 598.177 149.159 600.564 148.578C602.952 147.998 604.598 146.997 605.501 145.578C606.469 144.158 606.953 142.254 606.953 139.866C606.953 137.479 606.566 135.672 605.791 134.446C605.017 133.219 603.597 132.316 601.532 131.735C599.532 131.09 596.628 130.541 592.82 130.09C587.851 129.444 583.753 128.509 580.527 127.282C577.365 126.056 575.009 124.346 573.46 122.152C571.976 119.893 571.234 117.022 571.234 113.537C571.234 109.213 572.008 105.761 573.557 103.179C575.106 100.598 577.623 98.7264 581.107 97.5648C584.592 96.4032 589.239 95.8224 595.047 95.8224C598.725 95.8224 601.79 96.1773 604.243 96.8872C606.759 97.5325 608.954 98.6296 610.825 100.178C612.697 101.727 614.439 103.825 616.052 106.47L608.986 113.343C607.76 111.02 606.566 109.245 605.404 108.019C604.307 106.793 602.952 105.954 601.339 105.502C599.79 104.986 597.693 104.728 595.047 104.728C591.304 104.728 588.4 104.986 586.335 105.502C584.27 106.019 582.85 106.922 582.075 108.213C581.301 109.503 580.914 111.278 580.914 113.537C580.914 115.925 581.85 117.602 583.721 118.57C585.657 119.538 588.884 120.345 593.401 120.99C599.145 121.765 603.694 122.83 607.05 124.185C610.47 125.54 612.922 127.444 614.407 129.896C615.891 132.348 616.633 135.672 616.633 139.866C616.633 144.384 615.762 147.998 614.019 150.708C612.342 153.354 609.567 155.29 605.695 156.516C601.887 157.742 596.725 158.355 590.207 158.355ZM650.959 158.355C644.7 158.355 639.73 157.419 636.052 155.548C632.438 153.612 629.857 150.353 628.308 145.771C626.824 141.189 626.082 134.962 626.082 127.089C626.082 119.151 626.824 112.924 628.308 108.406C629.857 103.825 632.438 100.598 636.052 98.7264C639.73 96.7904 644.7 95.8224 650.959 95.8224C657.154 95.8224 661.994 96.8549 665.479 98.92C669.029 100.921 671.545 104.373 673.03 109.278C674.514 114.182 675.256 120.894 675.256 129.412H628.889V120.506H665.382C665.382 116.505 664.931 113.375 664.027 111.117C663.188 108.794 661.704 107.148 659.574 106.18C657.509 105.212 654.638 104.728 650.959 104.728C647.087 104.728 644.054 105.406 641.86 106.761C639.666 108.051 638.085 110.246 637.117 113.343C636.213 116.441 635.762 120.732 635.762 126.218C635.762 132.09 636.213 136.737 637.117 140.157C638.085 143.513 639.666 145.9 641.86 147.32C644.054 148.74 647.087 149.45 650.959 149.45C653.218 149.45 655.186 149.191 656.864 148.675C658.606 148.094 660.22 147.191 661.704 145.965C663.188 144.674 664.737 142.932 666.35 140.738L674.094 145.868C671.965 149.03 669.835 151.515 667.706 153.322C665.576 155.129 663.188 156.419 660.542 157.194C657.897 157.968 654.702 158.355 650.959 158.355Z" fill="#F97316"/>
</svg>
