<svg width="593" height="231" viewBox="0 0 593 231" fill="none" xmlns="http://www.w3.org/2000/svg">
<rect width="592.429" height="231" rx="30" fill="#F9FAFC"/>
<path opacity="0.3" d="M80 81.2143C80 79.6988 80.602 78.2453 81.6737 77.1737C82.7453 76.102 84.1988 75.5 85.7143 75.5H165.714C167.23 75.5 168.683 76.102 169.755 77.1737C170.827 78.2453 171.429 79.6988 171.429 81.2143V149.786C171.429 151.301 170.827 152.755 169.755 153.826C168.683 154.898 167.23 155.5 165.714 155.5H85.7143C84.1988 155.5 82.7453 154.898 81.6737 153.826C80.602 152.755 80 151.301 80 149.786V81.2143Z" fill="#022DD8"/>
<path d="M171.429 109.786H80M97.1429 92.6429H97.2M114.286 92.6429H114.343M131.429 92.6429H131.486M85.7143 155.5H165.714C167.23 155.5 168.683 154.898 169.755 153.826C170.827 152.755 171.429 151.301 171.429 149.786V81.2143C171.429 79.6988 170.827 78.2453 169.755 77.1737C168.683 76.102 167.23 75.5 165.714 75.5H85.7143C84.1988 75.5 82.7453 76.102 81.6737 77.1737C80.602 78.2453 80 79.6988 80 81.2143V149.786C80 151.301 80.602 152.755 81.6737 153.826C82.7453 154.898 84.1988 155.5 85.7143 155.5Z" stroke="#022DD8" stroke-width="11.4286" stroke-linecap="round"/>
<path d="M245.629 157V79.56H255.309V157H245.629ZM222.106 88.4656V79.56H278.831V88.4656H222.106ZM306.962 158.355C301.412 158.355 296.992 157.742 293.701 156.516C290.409 155.29 288.022 153.322 286.537 150.611C285.118 147.901 284.408 144.287 284.408 139.77C284.408 134.736 285.118 130.832 286.537 128.057C288.022 125.217 290.409 123.249 293.701 122.152C296.992 121.055 301.412 120.506 306.962 120.506H319.837V117.409C319.837 114.44 319.449 112.117 318.675 110.439C317.965 108.697 316.674 107.471 314.803 106.761C312.996 106.051 310.382 105.696 306.962 105.696C304.252 105.696 302.122 105.986 300.573 106.567C299.089 107.083 297.927 108.084 297.089 109.568C296.25 111.052 295.475 113.15 294.765 115.86L285.473 113.537C286.57 109.342 287.957 105.954 289.635 103.373C291.313 100.791 293.539 98.8877 296.314 97.6616C299.089 96.4355 302.638 95.8224 306.962 95.8224C312.577 95.8224 317.029 96.5968 320.321 98.1456C323.612 99.6944 325.967 102.082 327.387 105.309C328.807 108.471 329.517 112.504 329.517 117.409V140.738C329.517 143.125 329.71 144.868 330.097 145.965C330.485 146.997 331.227 147.643 332.324 147.901C333.421 148.094 335.002 148.127 337.067 147.998V156.903C333.389 157.097 330.42 156.839 328.161 156.129C325.967 155.419 324.322 154.096 323.225 152.16C322.063 153.644 320.708 154.87 319.159 155.838C317.675 156.742 315.932 157.387 313.932 157.774C311.931 158.162 309.608 158.355 306.962 158.355ZM306.962 149.45C310.382 149.45 312.996 149.03 314.803 148.191C316.674 147.352 317.965 145.9 318.675 143.835C319.449 141.706 319.837 138.802 319.837 135.123V129.412H306.962C303.542 129.412 300.896 129.638 299.025 130.09C297.153 130.541 295.862 131.509 295.153 132.994C294.443 134.413 294.088 136.672 294.088 139.77C294.088 142.222 294.443 144.158 295.153 145.578C295.862 146.997 297.153 147.998 299.025 148.578C300.896 149.159 303.542 149.45 306.962 149.45ZM364.907 158.355C359.874 158.355 355.873 157.613 352.904 156.129C349.936 154.58 347.806 152.063 346.515 148.578C345.225 145.029 344.579 140.318 344.579 134.446V97.1776H354.259V134.446C354.259 138.447 354.55 141.544 355.131 143.738C355.776 145.868 356.873 147.352 358.422 148.191C359.971 149.03 362.133 149.45 364.907 149.45C368.909 149.45 371.974 149.095 374.103 148.385C376.298 147.675 377.814 146.417 378.653 144.61C379.492 142.803 379.911 140.286 379.911 137.059V97.1776H389.591V157H379.911V154.967C378.75 155.742 377.459 156.387 376.039 156.903C374.62 157.419 372.974 157.774 371.103 157.968C369.296 158.226 367.231 158.355 364.907 158.355ZM405.235 157V97.1776H414.915V103.663C415.754 102.437 416.884 101.243 418.303 100.082C419.723 98.8555 421.401 97.8552 423.337 97.0808C425.273 96.2419 427.37 95.8224 429.629 95.8224C433.178 95.8224 436.147 96.3064 438.534 97.2744C440.922 98.1779 442.955 99.6944 444.633 101.824C446.311 103.954 447.827 106.825 449.182 110.439L440.47 114.408C439.632 111.827 438.76 109.858 437.857 108.503C437.018 107.083 435.953 106.115 434.662 105.599C433.436 105.018 431.758 104.728 429.629 104.728C426.854 104.728 424.498 105.277 422.562 106.374C420.691 107.471 419.174 108.987 418.013 110.923C416.916 112.795 416.109 114.989 415.593 117.506C415.141 119.958 414.915 122.571 414.915 125.346V157H405.235ZM480.314 157V99.9848L486.413 106.083H468.117V97.1776H489.994V157H480.314ZM463.374 157V148.094H506.934V157H463.374ZM483.121 87.5944C480.153 87.5944 478.12 87.0781 477.023 86.0456C475.926 85.0131 475.377 83.1093 475.377 80.3344C475.377 77.5595 475.926 75.6557 477.023 74.6232C478.12 73.5907 480.153 73.0744 483.121 73.0744C486.09 73.0744 488.123 73.5907 489.22 74.6232C490.317 75.6557 490.865 77.5595 490.865 80.3344C490.865 83.1093 490.317 85.0131 489.22 86.0456C488.123 87.0781 486.09 87.5944 483.121 87.5944Z" fill="#022DD8"/>
</svg>
