<svg width="451" height="231" viewBox="0 0 451 231" fill="none" xmlns="http://www.w3.org/2000/svg">
<rect x="5" y="5" width="441" height="221" rx="25" fill="#F97316" fill-opacity="0.1"/>
<rect x="5" y="5" width="441" height="221" rx="25" stroke="#F97316" stroke-width="10"/>
<path d="M104.2 157V79.56H113.88V157H104.2ZM80.6776 88.4656V79.56H137.402V88.4656H80.6776ZM165.533 158.355C159.984 158.355 155.563 157.742 152.272 156.516C148.981 155.29 146.593 153.322 145.109 150.611C143.689 147.901 142.979 144.287 142.979 139.77C142.979 134.736 143.689 130.832 145.109 128.057C146.593 125.217 148.981 123.249 152.272 122.152C155.563 121.055 159.984 120.506 165.533 120.506H178.408V117.409C178.408 114.44 178.021 112.117 177.246 110.439C176.536 108.697 175.246 107.471 173.374 106.761C171.567 106.051 168.954 105.696 165.533 105.696C162.823 105.696 160.693 105.986 159.145 106.567C157.66 107.083 156.499 108.084 155.66 109.568C154.821 111.052 154.046 113.15 153.337 115.86L144.044 113.537C145.141 109.342 146.528 105.954 148.206 103.373C149.884 100.791 152.11 98.8877 154.885 97.6616C157.66 96.4355 161.21 95.8224 165.533 95.8224C171.148 95.8224 175.601 96.5968 178.892 98.1456C182.183 99.6944 184.538 102.082 185.958 105.309C187.378 108.471 188.088 112.504 188.088 117.409V140.738C188.088 143.125 188.281 144.868 188.669 145.965C189.056 146.997 189.798 147.643 190.895 147.901C191.992 148.094 193.573 148.127 195.638 147.998V156.903C191.96 157.097 188.991 156.839 186.733 156.129C184.538 155.419 182.893 154.096 181.796 152.16C180.634 153.644 179.279 154.87 177.73 155.838C176.246 156.742 174.504 157.387 172.503 157.774C170.502 158.162 168.179 158.355 165.533 158.355ZM165.533 149.45C168.954 149.45 171.567 149.03 173.374 148.191C175.246 147.352 176.536 145.9 177.246 143.835C178.021 141.706 178.408 138.802 178.408 135.123V129.412H165.533C162.113 129.412 159.467 129.638 157.596 130.09C155.724 130.541 154.434 131.509 153.724 132.994C153.014 134.413 152.659 136.672 152.659 139.77C152.659 142.222 153.014 144.158 153.724 145.578C154.434 146.997 155.724 147.998 157.596 148.578C159.467 149.159 162.113 149.45 165.533 149.45ZM223.479 158.355C218.445 158.355 214.444 157.613 211.476 156.129C208.507 154.58 206.377 152.063 205.087 148.578C203.796 145.029 203.151 140.318 203.151 134.446V97.1776H212.831V134.446C212.831 138.447 213.121 141.544 213.702 143.738C214.347 145.868 215.444 147.352 216.993 148.191C218.542 149.03 220.704 149.45 223.479 149.45C227.48 149.45 230.545 149.095 232.675 148.385C234.869 147.675 236.385 146.417 237.224 144.61C238.063 142.803 238.483 140.286 238.483 137.059V97.1776H248.163V157H238.483V154.967C237.321 155.742 236.031 156.387 234.611 156.903C233.191 157.419 231.545 157.774 229.674 157.968C227.867 158.226 225.802 158.355 223.479 158.355ZM263.807 157V97.1776H273.487V103.663C274.326 102.437 275.455 101.243 276.875 100.082C278.294 98.8555 279.972 97.8552 281.908 97.0808C283.844 96.2419 285.942 95.8224 288.2 95.8224C291.75 95.8224 294.718 96.3064 297.106 97.2744C299.494 98.1779 301.526 99.6944 303.204 101.824C304.882 103.954 306.399 106.825 307.754 110.439L299.042 114.408C298.203 111.827 297.332 109.858 296.428 108.503C295.589 107.083 294.524 106.115 293.234 105.599C292.008 105.018 290.33 104.728 288.2 104.728C285.425 104.728 283.07 105.277 281.134 106.374C279.262 107.471 277.746 108.987 276.584 110.923C275.487 112.795 274.68 114.989 274.164 117.506C273.712 119.958 273.487 122.571 273.487 125.346V157H263.807ZM338.886 157V99.9848L344.984 106.083H326.689V97.1776H348.566V157H338.886ZM321.946 157V148.094H365.506V157H321.946ZM341.693 87.5944C338.724 87.5944 336.691 87.0781 335.594 86.0456C334.497 85.0131 333.949 83.1093 333.949 80.3344C333.949 77.5595 334.497 75.6557 335.594 74.6232C336.691 73.5907 338.724 73.0744 341.693 73.0744C344.661 73.0744 346.694 73.5907 347.791 74.6232C348.888 75.6557 349.437 77.5595 349.437 80.3344C349.437 83.1093 348.888 85.0131 347.791 86.0456C346.694 87.0781 344.661 87.5944 341.693 87.5944Z" fill="#F97316"/>
</svg>
