<svg width="612" height="231" viewBox="0 0 612 231" fill="none" xmlns="http://www.w3.org/2000/svg">
<rect width="611.663" height="231" rx="30" fill="#F97316"/>
<g opacity="0.3">
<path d="M106.76 75.5C112.474 75.5 123.903 81.2143 135.332 81.2143C146.76 81.2143 158.189 75.5 163.903 75.5C181.046 75.5 203.903 155.5 181.046 155.5C163.903 155.5 155.332 132.643 135.332 132.643C115.332 132.643 106.76 155.5 89.6172 155.5C66.7601 155.5 89.6172 75.5 106.76 75.5Z" fill="#0B1118"/>
<path d="M123.903 106.929C123.903 109.202 123 111.382 121.393 112.99C119.785 114.597 117.605 115.5 115.332 115.5C113.058 115.5 110.878 114.597 109.271 112.99C107.663 111.382 106.76 109.202 106.76 106.929C106.76 104.656 107.663 102.475 109.271 100.868C110.878 99.2605 113.058 98.3574 115.332 98.3574C117.605 98.3574 119.785 99.2605 121.393 100.868C123 102.475 123.903 104.656 123.903 106.929Z" fill="#0B1118"/>
</g>
<path d="M152.474 98.3571V115.5M143.903 106.929H161.046M106.76 75.5C112.474 75.5 123.903 81.2143 135.332 81.2143C146.76 81.2143 158.189 75.5 163.903 75.5C181.046 75.5 203.903 155.5 181.046 155.5C163.903 155.5 155.332 132.643 135.332 132.643C115.332 132.643 106.76 155.5 89.6172 155.5C66.7601 155.5 89.6172 75.5 106.76 75.5ZM123.903 106.929C123.903 109.202 123 111.382 121.392 112.989C119.785 114.597 117.605 115.5 115.332 115.5C113.058 115.5 110.878 114.597 109.271 112.989C107.663 111.382 106.76 109.202 106.76 106.929C106.76 104.655 107.663 102.475 109.271 100.868C110.878 99.2602 113.058 98.3571 115.332 98.3571C117.605 98.3571 119.785 99.2602 121.392 100.868C123 102.475 123.903 104.655 123.903 106.929Z" stroke="#0B1118" stroke-width="11.4286" stroke-linecap="round"/>
<path d="M269.703 158.355C264.024 158.355 259.507 157.355 256.151 155.354C252.795 153.354 250.375 150.095 248.891 145.578C247.471 140.996 246.761 134.93 246.761 127.379V79.56H256.441V127.379C256.441 133.058 256.829 137.511 257.603 140.738C258.442 143.964 259.829 146.223 261.765 147.514C263.701 148.804 266.347 149.45 269.703 149.45C273.123 149.45 275.769 148.804 277.641 147.514C279.577 146.223 280.932 143.964 281.706 140.738C282.545 137.511 282.965 133.058 282.965 127.379V79.56H292.645V127.379C292.645 134.93 291.903 140.996 290.418 145.578C288.999 150.095 286.611 153.354 283.255 155.354C279.964 157.355 275.447 158.355 269.703 158.355ZM305.772 157V97.1776H315.452V99.6944C317.194 98.4683 319.259 97.5325 321.647 96.8872C324.035 96.1773 326.971 95.8224 330.456 95.8224C335.618 95.8224 339.684 96.5645 342.652 98.0488C345.621 99.5331 347.718 102.05 348.944 105.599C350.171 109.149 350.784 114.021 350.784 120.216V157H341.104V120.216C341.104 116.279 340.781 113.182 340.136 110.923C339.49 108.665 338.393 107.083 336.844 106.18C335.296 105.212 333.166 104.728 330.456 104.728C326.326 104.728 323.163 105.115 320.969 105.89C318.84 106.664 317.388 108.084 316.613 110.149C315.839 112.214 315.452 115.215 315.452 119.151V157H305.772ZM383.464 157V99.9848L389.563 106.083H371.267V97.1776H393.144V157H383.464ZM366.524 157V148.094H410.084V157H366.524ZM386.271 87.5944C383.303 87.5944 381.27 87.0781 380.173 86.0456C379.076 85.0131 378.527 83.1093 378.527 80.3344C378.527 77.5595 379.076 75.6557 380.173 74.6232C381.27 73.5907 383.303 73.0744 386.271 73.0744C389.24 73.0744 391.273 73.5907 392.37 74.6232C393.467 75.6557 394.015 77.5595 394.015 80.3344C394.015 83.1093 393.467 85.0131 392.37 86.0456C391.273 87.0781 389.24 87.5944 386.271 87.5944ZM450.122 158.355C445.604 158.355 441.958 157.581 439.183 156.032C436.408 154.419 434.376 151.902 433.085 148.482C431.859 145.061 431.246 140.576 431.246 135.026V105.212H419.242V96.3064H431.246V79.56H440.926V96.3064H461.06V105.212H440.926V135.026C440.926 140.512 441.603 144.287 442.958 146.352C444.314 148.417 446.701 149.45 450.122 149.45C452.445 149.45 454.187 149.288 455.349 148.966C456.575 148.578 457.478 147.933 458.059 147.03C458.705 146.126 459.285 144.803 459.802 143.061L468.901 146.158C467.997 149.191 466.804 151.611 465.319 153.418C463.835 155.161 461.867 156.419 459.414 157.194C457.027 157.968 453.929 158.355 450.122 158.355ZM485.803 175.973C483.415 175.973 481.35 175.682 479.608 175.102C477.93 174.521 476.091 173.521 474.09 172.101L477.962 163.97C480.092 165.196 481.608 166.002 482.512 166.39C483.48 166.841 484.577 167.067 485.803 167.067C488.191 167.067 490.159 166.712 491.708 166.002C493.257 165.357 494.612 164.163 495.773 162.421C496.935 160.678 498.032 158.226 499.065 155.064L479.221 97.1776H489.288L504.195 142.19L519.296 97.1776H529.46L508.938 155.645C507.196 160.678 505.324 164.679 503.324 167.648C501.323 170.617 498.936 172.746 496.161 174.037C493.386 175.327 489.933 175.973 485.803 175.973Z" fill="#0B1118"/>
</svg>
