<svg width="451" height="231" viewBox="0 0 451 231" fill="none" xmlns="http://www.w3.org/2000/svg">
<rect x="5" y="5" width="441" height="221" rx="25" fill="#F97316" fill-opacity="0.1"/>
<rect x="5" y="5" width="441" height="221" rx="25" stroke="#F97316" stroke-width="10"/>
<path d="M109.04 158.355C103.361 158.355 98.8437 157.355 95.488 155.354C92.1323 153.354 89.7123 150.095 88.228 145.578C86.8083 140.996 86.0984 134.93 86.0984 127.379V79.56H95.7784V127.379C95.7784 133.058 96.1656 137.511 96.94 140.738C97.7789 143.964 99.1664 146.223 101.102 147.514C103.038 148.804 105.684 149.45 109.04 149.45C112.46 149.45 115.106 148.804 116.978 147.514C118.914 146.223 120.269 143.964 121.043 140.738C121.882 137.511 122.302 133.058 122.302 127.379V79.56H131.982V127.379C131.982 134.93 131.239 140.996 129.755 145.578C128.335 150.095 125.948 153.354 122.592 155.354C119.301 157.355 114.783 158.355 109.04 158.355ZM145.109 157V97.1776H154.789V99.6944C156.531 98.4683 158.596 97.5325 160.984 96.8872C163.372 96.1773 166.308 95.8224 169.793 95.8224C174.955 95.8224 179.021 96.5645 181.989 98.0488C184.958 99.5331 187.055 102.05 188.281 105.599C189.508 109.149 190.121 114.021 190.121 120.216V157H180.441V120.216C180.441 116.279 180.118 113.182 179.473 110.923C178.827 108.665 177.73 107.083 176.181 106.18C174.633 105.212 172.503 104.728 169.793 104.728C165.662 104.728 162.5 105.115 160.306 105.89C158.177 106.664 156.725 108.084 155.95 110.149C155.176 112.214 154.789 115.215 154.789 119.151V157H145.109ZM222.801 157V99.9848L228.9 106.083H210.604V97.1776H232.481V157H222.801ZM205.861 157V148.094H249.421V157H205.861ZM225.608 87.5944C222.64 87.5944 220.607 87.0781 219.51 86.0456C218.413 85.0131 217.864 83.1093 217.864 80.3344C217.864 77.5595 218.413 75.6557 219.51 74.6232C220.607 73.5907 222.64 73.0744 225.608 73.0744C228.577 73.0744 230.61 73.5907 231.707 74.6232C232.804 75.6557 233.352 77.5595 233.352 80.3344C233.352 83.1093 232.804 85.0131 231.707 86.0456C230.61 87.0781 228.577 87.5944 225.608 87.5944ZM289.459 158.355C284.941 158.355 281.295 157.581 278.52 156.032C275.745 154.419 273.712 151.902 272.422 148.482C271.196 145.061 270.583 140.576 270.583 135.026V105.212H258.579V96.3064H270.583V79.56H280.263V96.3064H300.397V105.212H280.263V135.026C280.263 140.512 280.94 144.287 282.295 146.352C283.651 148.417 286.038 149.45 289.459 149.45C291.782 149.45 293.524 149.288 294.686 148.966C295.912 148.578 296.815 147.933 297.396 147.03C298.042 146.126 298.622 144.803 299.139 143.061L308.238 146.158C307.334 149.191 306.14 151.611 304.656 153.418C303.172 155.161 301.204 156.419 298.751 157.194C296.364 157.968 293.266 158.355 289.459 158.355ZM325.14 175.973C322.752 175.973 320.687 175.682 318.945 175.102C317.267 174.521 315.428 173.521 313.427 172.101L317.299 163.97C319.429 165.196 320.945 166.002 321.849 166.39C322.817 166.841 323.914 167.067 325.14 167.067C327.528 167.067 329.496 166.712 331.045 166.002C332.594 165.357 333.949 164.163 335.11 162.421C336.272 160.678 337.369 158.226 338.402 155.064L318.558 97.1776H328.625L343.532 142.19L358.633 97.1776H368.797L348.275 155.645C346.533 160.678 344.661 164.679 342.661 167.648C340.66 170.617 338.272 172.746 335.498 174.037C332.723 175.327 329.27 175.973 325.14 175.973Z" fill="#F97316"/>
</svg>
